<svg width="36" height="37" viewBox="0 0 36 37" fill="none" xmlns="http://www.w3.org/2000/svg">
<path d="M27.09 34.5759H29.58C30.84 34.5759 31.875 33.6159 32.025 32.3859L34.5 7.66585H27V1.59085H24.045V7.66585H16.59L17.04 11.1759C19.605 11.8809 22.005 13.1559 23.445 14.5659C25.605 16.6959 27.09 18.9009 27.09 22.5009V34.5759ZM1.5 33.0759V31.5909H24.045V33.0759C24.045 33.9009 23.37 34.5759 22.53 34.5759H3.015C2.175 34.5759 1.5 33.9009 1.5 33.0759ZM24.045 22.5759C24.045 10.5759 1.5 10.5759 1.5 22.5759H24.045ZM1.53 25.5909H24.03V28.5909H1.53V25.5909Z" fill="#999999"/>
</svg>
