<svg width="256" height="135" viewBox="0 0 256 135" fill="none" xmlns="http://www.w3.org/2000/svg">
<path d="M91.8319 142.662L76.82 61.5531C76.82 61.5531 63.7427 33.3356 79.7219 18.3362C95.7011 3.33671 91.8319 47.1506 101.998 46.7621C112.164 46.3736 115.559 29.9908 120.405 39.1819C125.251 48.3729 104.909 61.5626 104.909 61.5626L129.12 143.676L91.8319 142.662Z" fill="#F4A28C"/>
<path d="M20.6413 142.662L5.61044 61.5531C5.61044 61.5531 -7.43846 33.3356 8.54075 18.3362C24.52 3.33671 20.6413 47.1506 30.8168 46.7621C40.9923 46.3736 44.3778 29.9908 49.2143 39.1819C54.0507 48.3729 33.7187 61.5626 33.7187 61.5626L57.9293 143.676L20.6413 142.662Z" fill="#F2BF8C"/>
<path d="M85.0514 142.662L75.369 83.1569L116.526 79.4331L134.933 142.662H85.0514Z" fill="#FFD200"/>
<path d="M162.207 142.662L148.93 48.335C148.93 48.335 139.324 41.0011 137.968 32.3785C137.818 31.407 137.956 30.413 138.364 29.5186C138.772 28.6241 139.432 27.8679 140.263 27.3428C141.095 26.8178 142.062 26.5465 143.046 26.5624C144.029 26.5783 144.987 26.8807 145.801 27.4324C149.594 29.9907 154.336 31.6773 156.678 26.0774C160.879 16.081 153.103 2.53123 165.374 0.920429C177.645 -0.690376 189.936 27.6882 168.627 45.7482L192.838 142.662H162.207Z" fill="#9B6448"/>
<path d="M154.781 142.662L149.291 101.558L188.039 99.6157L198.689 142.662H154.781Z" fill="#FFE01B"/>
<path d="M152.145 101.416L149.291 82.5221L177.076 79.4331L182.197 99.9093L152.145 101.416Z" fill="#FFE01B"/>
<path opacity="0.46" d="M152.145 101.416L149.291 82.5221L177.076 79.4331L182.197 99.9093L152.145 101.416Z" fill="white"/>
<path d="M37.7056 63.0189L3.42249 68.3096L5.30427 80.4831L39.5874 75.1925L37.7056 63.0189Z" fill="black"/>
<path d="M15.8239 80.1721C20.4381 80.1721 24.1787 76.4347 24.1787 71.8243C24.1787 67.214 20.4381 63.4766 15.8239 63.4766C11.2098 63.4766 7.46924 67.214 7.46924 71.8243C7.46924 76.4347 11.2098 80.1721 15.8239 80.1721Z" fill="white"/>
<path d="M216.764 142.662L207.404 52.5231C207.404 52.5231 195.787 48.0129 196.109 39.6272C196.432 31.2416 203.212 20.2691 212.572 21.2356C221.932 22.2021 226.408 23.8413 227.385 12.2246C228.362 0.607835 243.724 2.85349 239.362 15.2093C237.722 19.8617 234.355 36.1403 232.42 45.8051C231.452 50.6273 231.511 55.5989 232.591 60.3971L250.989 142.662H216.764Z" fill="#F4A28C"/>
<path opacity="0.08" d="M224.673 29.7351C224.673 29.7351 231.311 38.1681 223.525 47.3687C215.74 56.5692 227.319 142.662 227.319 142.662H216.764L207.404 52.5233L224.673 29.7351Z" fill="black"/>
<path d="M213.435 49.9081C212.048 51.2889 210.242 52.1711 208.299 52.4163C206.357 52.6615 204.387 52.2559 202.7 51.263C198.66 48.9037 194.165 45.123 194.326 40.1106C194.649 31.0711 203.468 18.6963 212.572 20.7525C221.676 22.8086 227.1 27.2052 223.867 35.7519C221.97 40.7833 217.086 46.2506 213.435 49.9081Z" fill="#F4A28C"/>
<path d="M213.539 142.662L209.566 117.363L249.054 115.752L255.18 142.662H213.539Z" fill="#FFD200"/>
</svg>
