<svg width="381" height="377" viewBox="0 0 381 377" fill="none" xmlns="http://www.w3.org/2000/svg">
<path d="M200.709 123.371L175.6 127.31L162.734 128.536L159.303 128.866C159.303 128.866 153.177 129.838 152.578 128.866C151.98 127.895 140.174 128.866 140.174 128.866C140.174 128.866 133.002 120.31 115.961 124.829C114.24 125.848 112.301 126.443 110.305 126.564C110.303 126.53 110.303 126.495 110.305 126.461C110.367 124.494 110.122 117.71 104.141 113.998C102.44 114.174 100.79 114.68 99.2824 115.489L99.1457 115.564L98.7404 115.8L98.6886 115.857C98.8649 115.08 98.9846 114.292 99.0468 113.498C99.0468 113.201 99.0468 112.904 99.0797 112.607C99.7657 112.416 100.366 111.997 100.781 111.418C100.952 111.075 101.025 110.691 100.993 110.309C100.993 110.173 100.993 110.031 100.993 109.894C100.991 109.864 100.991 109.834 100.993 109.805C100.993 109.805 100.993 109.805 100.993 109.833C100.894 108.436 100.69 107.048 100.38 105.682L102.228 106.908C102.671 107.201 103.227 107.512 103.755 107.347C103.924 107.287 104.077 107.187 104.202 107.057C104.326 106.927 104.418 106.769 104.471 106.597C104.801 105.701 104.561 104.63 105.258 103.889C105.423 103.715 105.63 103.573 105.772 103.389C105.964 103.137 106.056 102.823 106.031 102.507C106.033 102.324 106.019 102.141 105.989 101.96V101.998C105.866 101.536 105.847 101.053 105.932 100.583C106.178 100.679 106.449 100.693 106.704 100.622C106.959 100.552 107.184 100.4 107.346 100.191C107.599 99.7935 107.724 99.3274 107.704 98.8562C107.746 98.059 107.779 97.243 107.761 96.4316C107.763 96.416 107.763 96.4001 107.761 96.3845C107.713 94.4646 107.351 92.573 106.031 91.04C106.375 88.8418 103.986 86.4455 101.318 86.1436C100.663 86.0729 99.8573 86.0351 99.5652 85.5398C99.4664 85.3044 99.4228 85.0494 99.4379 84.7945C99.3719 83.9596 98.797 83.219 98.2456 82.5162C98.0214 82.2092 97.7511 81.9387 97.4444 81.7143C96.5679 81.1482 95.3237 81.2992 94.2398 81.4926C92.2542 81.8416 90.2811 82.2316 88.3207 82.6624C88.0853 81.7126 88.0999 80.718 88.3631 79.7755C88.5453 79.304 88.6564 78.808 88.693 78.3038C88.7019 78.1448 88.6844 77.9854 88.6411 77.8321V77.8934C88.6138 77.8148 88.5824 77.7376 88.5469 77.6623C88.4529 77.4898 88.3176 77.3435 88.153 77.2364C87.9885 77.1294 87.7999 77.065 87.6043 77.0491C87.3486 77.0406 87.0959 77.1065 86.8768 77.2388C86.6576 77.371 86.4815 77.564 86.3696 77.7944C85.2482 79.4288 84.4705 81.2744 84.084 83.219C83.3361 82.6969 82.4698 82.3699 81.5637 82.2677C80.6577 82.1656 79.7404 82.2915 78.8953 82.6341C78.4696 82.8636 78.0097 83.0229 77.5333 83.1058C77.1368 83.1069 76.747 83.0043 76.4023 82.8083C76.0576 82.6122 75.77 82.3294 75.5681 81.9879C75.0262 81.1812 74.7858 80.219 73.7396 79.6859C73.5062 79.5663 73.2478 79.5039 72.9856 79.5039C72.7234 79.5039 72.4649 79.5663 72.2315 79.6859C72.1092 79.7501 72.0011 79.8384 71.9137 79.9454C71.8262 80.0523 71.7612 80.1759 71.7225 80.3086C71.7249 80.2851 71.7249 80.2614 71.7225 80.2378C71.7154 80.3068 71.7154 80.3764 71.7225 80.4454C71.7225 80.4737 71.7225 80.502 71.7225 80.5303C71.7225 80.5586 71.7225 80.601 71.7225 80.6341C71.6848 81.5445 72.3211 82.7237 71.6 83.4407C71.3104 83.6828 70.9733 83.8612 70.6104 83.9643L68.0466 84.8842C66.6777 85.4532 65.2299 85.8095 63.7534 85.9408C62.4103 85.988 61.053 85.6908 59.7287 85.7238C59.6665 85.6921 59.6066 85.6559 59.5497 85.6153C59.254 85.631 58.9596 85.6656 58.6684 85.7191C58.6973 85.7559 58.7288 85.7906 58.7626 85.8229H58.6684C59.3435 86.574 60.2339 87.0979 61.218 87.3229C61.8259 87.4739 62.4668 87.521 63.0559 87.7097C63.645 87.8984 64.2058 88.2758 64.3095 88.7946C64.3203 89.2291 64.2162 89.6587 64.0079 90.04L63.9843 90.0022C63.9227 90.1698 63.8923 90.3473 63.8948 90.5258C63.8833 90.6103 63.8833 90.696 63.8948 90.7805C63.998 91.0774 64.2054 91.3267 64.4785 91.482C64.7515 91.6373 65.0716 91.6881 65.3793 91.6249L62.349 93.5353C62.1232 93.6709 61.9116 93.8289 61.7175 94.007L61.6327 93.9835C61.5465 94.0681 61.4786 94.1695 61.4332 94.2815C61.3878 94.3935 61.3658 94.5136 61.3688 94.6344C61.359 94.7269 61.3703 94.8205 61.4017 94.908L62.3773 95.1863L59.7146 98.8751C59.5523 99.0894 59.4103 99.3184 59.2905 99.5591L59.2622 99.5119C59.2017 99.6619 59.1697 99.8219 59.1679 99.9836C59.1585 100.064 59.1585 100.144 59.1679 100.224C59.1907 100.357 59.2415 100.483 59.3169 100.594C59.3924 100.706 59.4908 100.8 59.6055 100.87C59.7202 100.94 59.8486 100.985 59.982 101.001C60.1155 101.017 60.2508 101.005 60.3791 100.965C59.7956 101.551 59.3258 102.24 58.9936 102.998L58.9511 102.97L58.9087 103.069C58.8423 103.217 58.8085 103.378 58.8098 103.54C58.79 103.664 58.815 103.792 58.8805 103.899C59.0001 104.025 59.1481 104.12 59.3121 104.176C59.4761 104.233 59.6513 104.249 59.823 104.224C61.2368 104.224 62.5516 103.257 62.7731 102.102C63.2067 102.573 62.7402 103.135 62.3302 103.62C60.6619 105.573 58.9653 107.559 58.0887 109.838C57.7806 110.619 57.5931 111.443 57.5326 112.281C57.5326 112.281 57.5326 112.243 57.5326 112.224C57.5326 112.286 57.5326 112.347 57.5326 112.408C57.4145 113.973 57.9078 115.522 58.9087 116.729C59.2793 117.105 59.6109 117.518 59.8984 117.96C60.4262 118.942 60.1246 120.201 60.9446 121.031C61.6063 119.266 62.4068 117.556 63.3387 115.918C63.324 116.361 63.2575 116.801 63.1407 117.229V117.192C63.1407 117.305 63.103 117.413 63.0936 117.522C63.0889 117.602 63.0889 117.682 63.0936 117.762C63.0717 118.047 63.1407 118.331 63.2907 118.573C63.4406 118.816 63.6637 119.004 63.9278 119.111C64.7619 119.409 65.6243 118.805 66.1898 118.201C66.27 118.409 66.3501 118.611 66.4396 118.814C68.1938 122.72 71.3637 125.814 75.3089 127.47L75.3843 127.626C72.2032 129.513 64.809 134.102 64.3283 135.862C63.711 138.107 63.9325 144.013 68.3624 145.211C69.3211 145.473 70.3157 145.578 71.3078 145.522C71.1193 145.82 70.9355 146.122 70.7564 146.414C69.5311 148.405 68.5038 150.249 68.1927 151.24C67.2973 154.131 58.9276 157.631 58.9276 157.631C58.9276 157.631 51.3024 163.763 49.6624 175.556C49.6624 175.556 41.5896 186.057 37.1078 188.245C32.626 190.434 24.8548 203.849 24.8548 203.849C24.8548 203.849 17.159 209.255 15.5236 214.524C13.8883 219.793 9.86841 221.09 9.86841 221.09C9.86841 221.09 10.236 221.27 10.811 221.628C10.6272 221.727 10.4339 221.84 10.2172 221.973C6.5601 224.152 -1.51275 230.119 0.273363 239.426C2.00764 248.388 12.1305 239.666 17.0506 234.789L17.4936 234.345C17.4183 234.848 17.3144 235.346 17.1825 235.836C18.2468 234.174 19.567 232.69 21.0941 231.44C22.7374 230.111 24.087 228.455 25.0574 226.576C25.802 225.161 26.9943 223.746 28.8276 223.274C32.8617 222.256 53.3336 206.505 57.8248 198.335C62.316 190.165 71.7225 187.014 71.7225 187.014L76.0394 200.529C76.6979 202.595 76.8131 204.796 76.374 206.92C75.4314 211.524 74.2486 220.421 77.1044 227.341C77.1044 227.341 77.2364 227.218 77.4768 227.015C77.8679 228.77 78.3674 231.077 78.8199 233.345C78.9283 233.902 79.0319 234.459 79.1309 235.006C79.4184 236.548 79.6587 237.997 79.7954 239.152C80.3939 244.115 82.0386 255.492 83.3818 256.657C84.7249 257.822 92.3359 281.45 92.3359 281.45C92.3359 281.45 99.0609 296.913 98.0194 303.767C97.9245 304.607 97.9388 305.455 98.0618 306.291C98.2936 307.995 98.6368 309.683 99.0892 311.343C99.2211 311.843 99.3531 312.352 99.5039 312.871C99.6264 313.319 99.7584 313.777 99.8903 314.234C103.147 325.296 109.377 340.084 109.377 340.084C109.377 340.084 109.895 341.428 110.569 343.226C110.791 343.829 111.041 344.485 111.281 345.16C112.388 348.178 113.557 351.565 113.557 352.334C113.557 352.509 113.793 352.702 114.203 352.9C113.135 354.676 112.191 356.524 111.375 358.429C110.065 361.523 106.295 364.589 106.295 364.589C106.295 364.589 101.808 365.863 101.808 369.778V372.769C101.808 372.769 111.337 372.585 114.476 373.462C117.615 374.34 121.8 372.839 121.8 372.839L122.695 371.679C122.695 371.679 133.567 372.151 134.241 369.448C134.439 368.655 134.43 366.967 134.269 364.953C134.064 362.496 133.702 360.056 133.186 357.646C133.902 357.617 134.392 357.57 134.392 357.57C134.392 357.57 139.364 360.778 139.882 363.952C140.041 364.886 140.401 365.773 140.936 366.553C141.472 367.334 142.17 367.988 142.983 368.471C142.983 368.471 148.144 370.83 158.04 369.75C163.224 369.198 164.2 366.556 163.724 364.207C163.29 362.056 161.631 360.15 160.844 360.306C159.204 360.636 152.588 351.117 152.588 351.117L149.228 344.042C149.529 340.268 148.643 338.48 147.399 337.721C148.252 329.763 148.365 319.098 148.365 319.098C148.365 319.098 149.114 306.262 148.365 294.738C147.616 283.215 147.616 260.61 145.066 253.025C143.888 249.497 142.182 239.614 140.702 230.058C140.589 229.341 140.476 228.643 140.372 227.921C140.014 225.595 139.68 223.322 139.369 221.189C139.515 221.119 139.665 221.048 139.797 220.973L138.996 213.972L138.883 213.005C138.911 213.034 138.949 213.052 138.977 213.076C141.668 215.553 138.082 201.845 138.082 201.845C138.082 201.845 136.466 186.08 136.574 177.014C136.584 173.788 136.413 170.564 136.06 167.358C135.787 164.66 136.423 161.155 140.495 158.688C141.565 158.012 142.568 157.237 143.492 156.372C144.628 155.339 147.107 154.013 152.446 153.858C161.4 153.57 170.355 148.9 170.355 148.9C170.355 148.9 180.671 149.485 185.435 143.357C190.2 137.23 202.175 135.777 202.175 135.777L200.709 123.371ZM16.0656 226.859L14.7413 225.001C15.2333 225.583 15.6762 226.204 16.0656 226.859ZM128.779 302.734C128.704 303.677 128.647 304.786 128.638 306.036C128.6 309.942 128.987 315.149 130.744 320.126L129.995 339.725H129.934C129.302 339.659 128.713 341.659 128.256 344.296C127.882 343.208 127.419 342.152 126.871 341.141C125.975 339.829 126.724 332.541 126.724 332.541C126.724 332.541 122.983 326.56 122.69 325.244C122.398 323.928 117.902 302.635 117.902 302.635C117.902 302.635 117.605 286.012 115.961 281.785C114.316 277.559 113.868 259.176 113.868 259.176C113.868 259.176 122.087 272.445 122.69 279.158L129.114 299.724C129.114 299.724 128.916 300.847 128.779 302.734Z" fill="url(#paint0_linear)"/>
<path d="M146.758 318.489C146.758 318.489 146.513 341.825 144.058 344.999C141.602 348.174 128.76 345.146 128.76 345.146L129.703 319.499C128.002 314.574 127.625 309.414 127.667 305.546C127.667 304.31 127.728 303.187 127.799 302.277C127.936 300.39 128.124 299.276 128.124 299.276L121.917 278.908C121.338 272.257 113.402 259.096 113.402 259.096C113.402 259.096 113.835 277.3 115.423 281.488C117.012 285.677 117.308 302.144 117.308 302.144C117.308 302.144 121.639 323.239 121.927 324.541C122.214 325.843 125.824 331.763 125.824 331.763C125.824 331.763 125.103 338.985 125.97 340.287C126.838 341.589 130.443 351.702 129.576 353.58C128.708 355.457 113.124 352.853 113.124 351.41C113.124 350.65 111.993 347.292 110.923 344.301L110.235 342.386C109.584 340.608 109.08 339.277 109.08 339.277C109.08 339.277 103.067 324.626 99.9233 313.668C99.7913 313.197 99.6688 312.763 99.5463 312.324C99.4049 311.805 99.273 311.3 99.1504 310.805C98.7146 309.161 98.3824 307.491 98.156 305.805C98.0378 304.977 98.0235 304.137 98.1136 303.305C99.1221 296.512 92.6281 281.201 92.6281 281.201C92.6281 281.201 85.2668 257.794 83.9661 256.639C82.6654 255.483 81.0772 244.218 80.5023 239.303C80.3703 238.152 80.1394 236.718 79.8613 235.195C79.7671 234.652 79.6634 234.1 79.5597 233.544C78.6785 228.992 77.5945 224.279 77.5945 224.279L93.7827 213.586L136.362 208.963C136.362 208.963 137.549 218.095 139.043 228.161C139.147 228.86 139.255 229.577 139.364 230.279C140.778 239.742 142.441 249.535 143.577 253.025C146.028 260.54 146.028 282.932 146.753 294.342C147.479 305.753 146.758 318.489 146.758 318.489Z" fill="#63667E"/>
<path opacity="0.1" d="M104.876 222.307L110.235 249.69H112.78L107.69 221.354L104.876 222.307Z" fill="black"/>
<path opacity="0.1" d="M79.8802 235.199C79.786 234.657 79.6823 234.105 79.5786 233.548C82.0716 233.039 87.7127 230.959 86.8362 222.619H88.5657C88.5657 222.619 90.2057 233.605 79.8802 235.199Z" fill="black"/>
<path opacity="0.1" d="M139.383 230.298C136.15 230.893 126.046 232.633 123.93 231.482C121.409 230.11 118.916 222.671 118.916 222.671L121.225 222.308C121.225 222.308 119.189 233.218 139.062 228.18C139.166 228.879 139.274 229.586 139.383 230.298Z" fill="black"/>
<path d="M138.511 221.298C135.598 222.991 128.76 223.807 120.801 224.128C120.075 224.156 119.344 224.185 118.6 224.204C105.696 224.609 90.6299 223.878 84.6259 223.534C82.9341 223.439 81.9633 223.373 81.9633 223.373L87.2321 219.727L95.894 216.548L114.113 212.972L137.46 212.321L137.696 214.326L138.511 221.298Z" fill="#33363D"/>
<path d="M120.801 224.147C120.075 224.175 119.344 224.204 118.6 224.222C117.685 220.345 114.801 214.147 114.801 214.147L117.252 213.821L120.801 224.147Z" fill="#63667E"/>
<path d="M22.4984 232.19C22.4984 232.19 21.4805 233.369 19.9158 234.963C15.1654 239.798 5.3866 248.435 3.7183 239.558C1.98874 230.355 9.78826 224.463 13.3181 222.284C14.3172 221.666 14.9722 221.34 14.9722 221.34L22.4984 232.19Z" fill="#FFA2A2"/>
<path d="M109.966 128.225C109.966 128.225 104.448 124.758 103.42 125.083C102.393 125.409 103.42 130.06 103.42 130.06C102.089 132.601 99.9848 134.653 97.4115 135.918C94.4616 137.462 91.6054 139.179 88.8579 141.06C86.7309 140.852 84.584 141.092 82.5551 141.764C80.5261 142.436 78.6599 143.525 77.0762 144.961C75.9689 145.706 74.7162 146.208 73.4009 146.432C72.0856 146.657 70.7377 146.599 69.4463 146.263C65.1672 145.074 64.9551 139.225 65.5489 137.003C66.0202 135.258 73.1552 130.73 76.2279 128.843C77.0762 128.324 77.6134 128.008 77.6134 128.008C77.6134 128.008 91.4782 127.536 94.6074 121.616C95.5702 119.786 97.0056 118.249 98.764 117.163L98.8441 117.121L99.24 116.885L99.3672 116.814C100.824 116.011 102.426 115.507 104.08 115.333C110.852 119.663 109.966 128.225 109.966 128.225Z" fill="#CED7E7"/>
<path opacity="0.1" d="M109.966 128.225C109.966 128.225 104.448 124.758 103.42 125.083C102.393 125.409 103.42 130.06 103.42 130.06C102.089 132.601 99.9848 134.653 97.4115 135.918C94.4616 137.462 91.6054 139.179 88.8579 141.06C86.7309 140.852 84.584 141.092 82.5551 141.764C80.5261 142.436 78.6599 143.525 77.0762 144.961C75.9689 145.706 74.7162 146.208 73.4009 146.432C72.0856 146.657 70.7377 146.599 69.4463 146.263C65.1672 145.074 64.9551 139.225 65.5489 137.003C66.0202 135.258 73.1552 130.73 76.2279 128.843C77.0762 128.324 77.6134 128.008 77.6134 128.008C77.6134 128.008 91.4782 127.536 94.6074 121.616C95.5702 119.786 97.0056 118.249 98.764 117.163L98.8441 117.121L99.24 116.885L99.3672 116.814C100.824 116.011 102.426 115.507 104.08 115.333C110.852 119.663 109.966 128.225 109.966 128.225Z" fill="black"/>
<path opacity="0.1" d="M137.696 214.345C135.099 211.887 118.934 216.364 118.934 216.364C118.934 216.364 107.803 219.562 99.3106 220.081C98.1545 220.158 96.9951 220.172 95.8374 220.123C92.2699 219.939 88.5516 221.383 85.4317 223.114L84.6447 223.586C82.9529 223.491 81.9821 223.425 81.9821 223.425L87.2509 219.779L95.9128 216.6L114.132 213.024L137.479 212.373L137.696 214.345Z" fill="black"/>
<path opacity="0.1" d="M19.9158 234.963C20.995 227.765 15.4152 223.581 13.3181 222.284C14.3171 221.666 14.9722 221.34 14.9722 221.34L22.5125 232.19C22.5125 232.19 21.4804 233.369 19.9158 234.963Z" fill="black"/>
<path d="M198.734 136.895C198.734 136.895 187.184 138.31 182.57 144.404C177.956 150.499 167.989 149.895 167.989 149.895C167.989 149.895 159.327 154.518 150.67 154.806C145.528 154.975 143.129 156.268 142.036 157.292C141.147 158.148 140.178 158.917 139.142 159.589C135.212 162.032 134.595 165.499 134.863 168.174C135.2 171.351 135.365 174.545 135.358 177.74C135.254 186.703 136.814 202.335 136.814 202.335C136.814 202.335 140.278 215.916 137.677 213.463C135.075 211.01 118.915 215.482 118.915 215.482C118.915 215.482 107.784 218.68 99.2918 219.204C98.1356 219.279 96.9761 219.292 95.8186 219.241C92.251 219.057 88.5327 220.501 85.4129 222.237C82.7283 223.752 80.2173 225.557 77.9244 227.619C75.1628 220.765 76.3127 211.949 77.2175 207.392C77.6403 205.288 77.5301 203.112 76.8971 201.062L72.7263 187.674C72.7263 187.674 63.6355 190.778 59.3046 198.868C54.9736 206.958 35.1991 222.562 31.297 223.576C29.5109 224.048 28.361 225.44 27.64 226.826C26.7129 228.681 25.4114 230.322 23.818 231.647C22.341 232.892 21.0688 234.361 20.0478 236.001C22.6492 226.175 12.9788 221.406 12.9788 221.406C12.9788 221.406 16.8714 220.104 18.4596 214.916C20.0478 209.727 27.4137 204.373 27.4137 204.373C27.4137 204.373 34.9211 191.08 39.252 188.91C43.583 186.74 51.3778 176.344 51.3778 176.344C52.9613 164.641 60.3319 158.575 60.3319 158.575C60.3319 158.575 68.4189 155.108 69.2861 152.244C69.5877 151.263 70.5773 149.438 71.7602 147.466C72.863 145.607 74.1166 143.631 75.1298 142.088C76.143 140.546 76.9395 139.357 76.9395 139.357L89.8994 139.235L92.2558 139.211L99.1598 126.201C99.1598 126.201 101.615 123.748 105.871 126.635C107.094 127.453 108.549 127.853 110.018 127.777C111.947 127.652 113.817 127.063 115.47 126.06C131.927 121.578 138.855 130.06 138.855 130.06C138.855 130.06 150.255 129.093 150.83 130.06C151.405 131.027 157.324 130.06 157.324 130.06L173.06 128.513L197.311 124.616L198.734 136.895Z" fill="#CED7E7"/>
<path d="M104.047 132.56L96.6857 144.692C96.6857 144.692 76.6238 159.287 79.5127 147.872C79.9808 145.952 80.1477 143.97 80.0075 141.999C79.9651 141.23 79.8755 140.461 79.7624 139.702C79.2393 136.554 78.3143 133.486 77.0102 130.574C76.8641 130.225 76.7133 129.89 76.5389 129.56C76.3127 129.088 76.0912 128.616 75.8697 128.173C74.9407 126.29 73.8841 124.473 72.7075 122.734C72.7075 122.734 94.5037 104.965 95.2248 116.088C95.3827 118.601 95.9561 121.07 96.9214 123.395L97.091 123.786C98.3041 126.528 100.048 129.002 102.223 131.065C102.792 131.609 103.402 132.109 104.047 132.56Z" fill="#FFA2A2"/>
<path d="M74.8942 143.829L78.2873 153.938L92.0908 156.179L100.008 147.461C100.008 147.461 104.556 140.961 104.843 140.815C105.131 140.669 105.852 134.461 105.852 134.461L106.7 130.952L101.361 129.154L93.8533 137.315L90.7854 139.202L87.3781 140.032L76.0676 143.334L74.8942 143.829Z" fill="#CED7E7"/>
<path opacity="0.1" d="M109.966 129.093C109.966 129.093 106.196 129.055 105.192 129.381C104.188 129.706 103.42 130.923 103.42 130.923C102.09 133.467 99.9857 135.52 97.4115 136.787C94.4616 138.33 91.6054 140.047 88.8579 141.928C86.7309 141.719 84.5837 141.959 82.5545 142.63C80.5254 143.302 78.6592 144.392 77.0762 145.829C75.497 146.89 73.6387 147.458 71.7367 147.461C72.8395 145.603 74.093 143.626 75.1063 142.084C79.7624 141.574 89.6167 139.768 89.6167 139.768L89.8759 139.23C90.7901 137.343 93.8864 130.97 95.0269 129.046C96.3558 126.8 100.522 119.786 100.654 119.564L96.5632 123.31L98.7499 118.036L98.83 117.994L99.2259 117.758L99.3531 117.687C100.81 116.884 102.412 116.38 104.066 116.206C109.226 119.508 109.961 125.215 110.018 127.786C110.025 128.222 110.008 128.659 109.966 129.093Z" fill="black"/>
<path opacity="0.1" d="M76.2137 127.98L77.2835 130.338C77.2835 130.338 77.194 130.414 77.0055 130.555C76.8594 130.206 76.7086 129.871 76.5342 129.541C76.308 129.069 76.0865 128.598 75.865 128.154C75.9781 128.088 76.0818 128.017 76.1854 127.961L76.2137 127.98Z" fill="black"/>
<path opacity="0.1" d="M102.242 131.065C100.943 132.732 99.2943 134.093 97.4115 135.051C94.4609 136.595 91.6047 138.313 88.8579 140.197C85.7939 139.894 82.7096 140.521 80.0075 141.999C79.965 141.23 79.8755 140.461 79.7624 139.702C84.3997 138.985 89.6166 138.027 89.6166 138.027C89.6166 138.027 93.679 129.579 95.0268 127.305C95.4981 126.541 96.271 125.206 97.1098 123.786C98.3229 126.528 100.067 129.002 102.242 131.065Z" fill="black"/>
<path d="M109.966 128.225C109.966 128.225 106.196 128.187 105.187 128.513C104.179 128.838 103.42 130.06 103.42 130.06C102.089 132.602 99.9848 134.653 97.4115 135.919C94.4616 137.462 91.6054 139.179 88.8579 141.06C86.7309 140.853 84.584 141.092 82.5551 141.764C80.5261 142.436 78.6599 143.525 77.0762 144.961C75.9689 145.706 74.7162 146.208 73.4009 146.432C72.0856 146.657 70.7377 146.599 69.4463 146.263C65.1672 145.074 64.9551 139.225 65.5489 137.003C66.0202 135.258 73.1552 130.73 76.2279 128.843L77.2977 131.225C75.0689 132.935 72.7346 134.503 70.3087 135.919C65.7044 138.678 68.0325 141.659 68.0325 141.659C69.6892 141.372 71.3716 141.261 73.0515 141.329C75.4362 141.489 89.6167 138.89 89.6167 138.89C89.6167 138.89 93.679 130.437 95.0268 128.168C96.3747 125.899 100.522 118.909 100.654 118.687L96.5632 122.461L98.7499 117.187L98.83 117.144L99.2259 116.909L99.3531 116.838C100.81 116.034 102.412 115.531 104.066 115.357C110.852 119.663 109.966 128.225 109.966 128.225Z" fill="#CED7E7"/>
<path opacity="0.1" d="M96.9402 123.404C94.82 126.684 91.605 129.103 87.8685 130.23C84.1319 131.358 80.1168 131.12 76.5389 129.56C75.4501 127.184 74.1687 124.901 72.7075 122.734C72.7075 122.734 94.5037 104.965 95.2248 116.088C95.3877 118.605 95.9674 121.077 96.9402 123.404Z" fill="black"/>
<path d="M99.1599 113.588C99.1599 114 99.1457 114.405 99.1175 114.805C98.8076 119.12 96.8182 123.14 93.5771 126.002C90.336 128.864 86.1023 130.338 81.7865 130.108C77.4707 129.877 73.4178 127.96 70.4994 124.77C67.581 121.579 66.0304 117.369 66.1811 113.046C66.3317 108.722 68.1717 104.631 71.3051 101.651C74.4385 98.672 78.6151 97.0425 82.9364 97.1136C87.2577 97.1846 91.3786 98.9505 94.4125 102.031C97.4465 105.112 99.1511 109.262 99.1599 113.588Z" fill="#FFA2A2"/>
<path opacity="0.1" d="M56.4204 166.655C56.4204 166.655 60.0445 173.443 64.5027 177.179C68.9609 180.915 71.5717 186.717 71.5717 186.717C71.5717 186.717 70.2757 175.467 56.4204 166.655Z" fill="black"/>
<path opacity="0.1" d="M50.7888 183.703C50.7888 183.703 63.513 180.524 69.9176 183.703H50.7888Z" fill="black"/>
<path opacity="0.1" d="M46.1703 202.651L59.8607 197.934C59.8607 197.934 51.0903 204.217 46.1703 202.651Z" fill="black"/>
<path opacity="0.1" d="M22.4984 221.119C22.4984 221.119 28.4176 220.831 30.2932 222.708C30.2932 222.708 24.5202 223.142 22.4984 221.119Z" fill="black"/>
<path opacity="0.1" d="M160.618 129.73C160.618 129.73 147.347 137.617 146.758 150.329L160.618 129.73Z" fill="black"/>
<path opacity="0.1" d="M176.651 141.659C176.651 141.659 160.194 144.985 157.451 146.716C154.708 148.447 148.794 149.315 148.794 149.315C148.794 149.315 172.607 146.14 176.651 141.659Z" fill="black"/>
<path opacity="0.1" d="M128.379 211.383C127.182 212.628 112.407 216.137 99.2022 219.071C98.0037 219.151 96.8018 219.165 95.6018 219.114C91.9023 218.925 88.0614 220.411 84.8097 222.194C80.8227 223.043 78.2449 223.576 78.2449 223.576C78.2449 223.576 73.9045 220.152 79.8896 212.42C85.8747 204.689 86.9257 192.491 86.9257 192.491L113.571 185.67C113.571 185.67 120.758 195.576 124.198 197.165C127.639 198.755 130.594 209.09 128.379 211.383Z" fill="black"/>
<path d="M127.436 211.727C126.277 212.944 112.03 216.35 99.2965 219.204C98.1403 219.279 96.9809 219.292 95.8233 219.241C92.2558 219.057 88.5374 220.501 85.4176 222.237C81.5721 223.058 79.0838 223.576 79.0838 223.576C79.0838 223.576 74.8989 220.251 80.672 212.727C86.445 205.203 87.4535 193.363 87.4535 193.363L113.147 186.722C113.147 186.722 120.075 196.345 123.393 197.892C126.71 199.439 129.557 209.505 127.436 211.727Z" fill="#CED7E7"/>
<path opacity="0.1" d="M106.578 306.428L99.1599 310.824C98.724 309.18 98.3919 307.51 98.1655 305.824C99.2447 306.725 106.578 306.428 106.578 306.428Z" fill="black"/>
<path opacity="0.1" d="M99.5651 312.343C102.185 311.843 108.406 310.597 111.818 309.427C108.727 310.937 103.133 313.461 99.9563 313.673C99.8102 313.234 99.6877 312.781 99.5651 312.343Z" fill="black"/>
<path opacity="0.1" d="M114.005 308.314C113.732 308.649 112.93 309.027 111.823 309.409C113.147 308.786 114.005 308.314 114.005 308.314Z" fill="black"/>
<path opacity="0.1" d="M118.482 344.636C116.38 344.81 112.963 344.527 110.942 344.32L110.254 342.405C112.417 342.636 116.71 342.999 118.482 342.471C120.899 341.754 121.625 344.386 118.482 344.636Z" fill="black"/>
<path opacity="0.1" d="M137.262 306.243C136.913 306.196 131.305 305.564 127.695 305.545C127.695 304.309 127.757 303.187 127.827 302.276C130.316 303.328 136.89 306.116 137.262 306.243Z" fill="black"/>
<path d="M133.134 368.368C132.483 371.052 121.983 370.58 121.983 370.58L121.116 371.731C121.116 371.731 117.078 373.212 114.047 372.344C111.017 371.476 101.794 371.66 101.794 371.66V368.693C101.794 364.83 106.125 363.566 106.125 363.566C106.125 363.566 109.768 360.533 111.031 357.462C111.819 355.561 112.733 353.716 113.769 351.938C113.769 351.938 110.381 347.82 119.472 346.749C128.426 345.712 124.915 353.849 124.816 354.075C124.962 353.943 128.322 350.919 130.188 351.872C131.536 352.566 132.757 359.132 133.138 363.887C133.313 365.905 133.322 367.58 133.134 368.368Z" fill="#CED7E7"/>
<path opacity="0.1" d="M133.134 368.368C132.483 371.052 121.983 370.58 121.983 370.58L121.116 371.731C121.116 371.731 117.078 373.212 114.047 372.344C111.017 371.476 101.794 371.66 101.794 371.66V368.83C107.346 369.104 118.458 369.471 120.956 368.184C120.956 368.184 123.949 367.424 124.637 366.92C125.216 366.49 131.315 364.495 133.12 363.905C133.313 365.905 133.322 367.58 133.134 368.368Z" fill="black"/>
<path d="M156.118 368.665C146.555 369.712 141.574 367.396 141.574 367.396C140.782 366.91 140.105 366.258 139.588 365.486C139.072 364.713 138.728 363.838 138.582 362.919C138.077 359.778 133.275 356.603 133.275 356.603C133.275 356.603 127.361 357.179 126.635 355.443C126.461 354.706 126.394 353.948 126.437 353.193C126.437 348.537 127.601 338.759 128.944 338.9C130.528 339.075 135.424 345.565 135.914 346.216C135.485 345.518 131.225 338.249 140.674 337.386C140.674 337.386 148.393 333.018 147.602 343.202L150.849 350.207C150.849 350.207 157.239 359.641 158.823 359.311C159.581 359.155 161.179 361.042 161.603 363.174C162.06 365.5 161.113 368.118 156.118 368.665Z" fill="#CED7E7"/>
<path opacity="0.1" d="M99.1598 113.588C99.1598 114 99.1457 114.405 99.1174 114.805L98.7169 114.956L97.1664 115.522C96.9051 115.634 96.6257 115.698 96.3416 115.711C96.1201 115.701 95.9035 115.642 95.7084 115.536C95.5132 115.431 95.3446 115.282 95.2153 115.102C94.9922 114.761 94.8325 114.382 94.7441 113.984L93.5706 109.47C93.335 108.574 92.9721 107.54 91.9683 107.206C91.6751 107.141 91.3869 107.056 91.1059 106.951C90.4791 106.654 90.3471 105.956 90.135 105.371C89.6638 104.007 88.4055 102.918 87.0435 102.069C86.1227 101.423 85.0288 101.072 83.9049 101.059C83.3029 101.069 82.7211 101.278 82.2507 101.654C81.2657 102.488 81.4024 103.616 81.5202 104.805C81.638 105.993 81.9538 107.262 81.6051 108.451C81.3694 109.224 80.8652 109.946 80.7756 110.748C80.7002 111.394 80.9123 112.05 80.8746 112.696C80.8673 113.045 80.7422 113.382 80.5198 113.651C80.2973 113.919 79.9905 114.105 79.6493 114.177C79.588 113.786 79.0178 113.659 78.6361 113.446C77.7736 112.975 77.7265 111.946 77.7642 111.088C77.8302 109.805 77.8915 108.517 77.9527 107.234C77.572 110.104 76.9813 112.941 76.1855 115.725C76.0875 116.209 75.8631 116.658 75.5351 117.027C75.3418 117.219 75.0954 117.35 74.8275 117.401C74.5595 117.452 74.2824 117.422 74.0318 117.314C73.7401 117.13 73.5244 116.847 73.4238 116.517C72.8218 115.023 72.614 113.398 72.8206 111.8C72.2975 113.89 71.7744 116.003 70.7659 117.965C70.3653 118.744 69.7573 119.588 68.7724 119.744C68.4719 119.753 68.174 119.802 67.8864 119.89C67.7716 119.944 67.6678 120.02 67.5801 120.112C66.6197 117.867 66.1699 115.438 66.2632 112.998C66.3565 110.558 66.9905 108.17 68.1195 106.006C69.2484 103.842 70.8439 101.956 72.7906 100.485C74.7373 99.0141 76.9863 97.9948 79.375 97.5009C81.7637 97.007 84.2322 97.0509 86.6018 97.6294C88.9714 98.208 91.1829 99.3066 93.0761 100.846C94.9693 102.385 96.4969 104.327 97.5483 106.529C98.5996 108.732 99.1485 111.142 99.1551 113.583L99.1598 113.588Z" fill="black"/>
<path d="M82.2507 100.809C82.72 100.431 83.3022 100.22 83.9048 100.21C85.0285 100.224 86.1221 100.576 87.0435 101.22C88.4055 102.05 89.6449 103.135 90.135 104.521C90.3471 105.106 90.4743 105.809 91.0776 106.106C91.3598 106.207 91.6478 106.29 91.94 106.356C92.9485 106.691 93.3114 107.724 93.5423 108.621L94.7252 113.135C94.802 113.533 94.954 113.912 95.1729 114.253C95.3017 114.434 95.4701 114.584 95.6653 114.69C95.8604 114.796 96.0772 114.856 96.2992 114.866C96.5853 114.853 96.8665 114.788 97.1287 114.673L98.6791 114.107C99.4944 113.809 100.38 113.456 100.753 112.767C100.948 112.323 101.013 111.832 100.941 111.352C100.851 109.911 100.649 108.479 100.338 107.069L102.119 108.281C102.548 108.569 103.086 108.875 103.594 108.715C103.76 108.653 103.909 108.554 104.029 108.424C104.149 108.295 104.238 108.139 104.287 107.97C104.608 107.083 104.377 106.022 105.046 105.29C105.206 105.121 105.404 104.974 105.546 104.795C106.153 104.012 105.432 102.951 105.682 102.036C105.923 102.13 106.188 102.144 106.436 102.073C106.685 102.002 106.904 101.851 107.058 101.644C107.303 101.249 107.423 100.788 107.402 100.323C107.544 97.6581 107.61 94.7712 105.786 92.6014C106.12 90.4221 103.811 88.0494 101.257 87.7522C100.621 87.6767 99.8432 87.639 99.5651 87.1531C99.4664 86.9193 99.4229 86.6659 99.4379 86.4126C99.3719 85.5871 98.8205 84.8512 98.288 84.1578C98.0751 83.8519 97.8141 83.5827 97.5151 83.3606C96.6715 82.804 95.4698 82.9549 94.4236 83.1436C92.5039 83.4864 90.5969 83.8716 88.7024 84.2993C88.4801 83.3671 88.4946 82.3941 88.7448 81.469C88.938 80.7709 89.2679 80.0539 88.9097 79.3558C88.8187 79.1814 88.6839 79.0336 88.5187 78.9269C88.3535 78.8203 88.1635 78.7584 87.9672 78.7473C87.7179 78.7407 87.4722 78.8074 87.2603 78.939C87.0484 79.0706 86.8797 79.2614 86.7749 79.4878C85.6896 81.1122 84.9397 82.9373 84.5693 84.8559C83.8573 84.3517 83.0296 84.0355 82.163 83.9365C81.2963 83.8376 80.4188 83.9591 79.6116 84.2899C79.2042 84.5191 78.7614 84.6786 78.3014 84.7616C77.9182 84.7563 77.5429 84.6513 77.2124 84.4569C76.8819 84.2626 76.6076 83.9856 76.4164 83.653C75.898 82.8511 75.6623 81.8983 74.6538 81.3747C74.4294 81.2561 74.1795 81.1942 73.9257 81.1942C73.6719 81.1942 73.422 81.2561 73.1976 81.3747C71.8639 82.153 73.5275 84.0823 72.5378 85.0965C72.2631 85.3332 71.9421 85.5099 71.5953 85.6154L69.1211 86.5258C67.8022 87.0897 66.4026 87.4416 64.9739 87.5682C63.3339 87.6343 61.675 87.1296 60.0633 87.4692C60.7115 88.2078 61.5726 88.727 62.528 88.9551C63.1124 89.1013 63.7298 89.1485 64.3 89.3372C64.5765 89.3988 64.8328 89.5298 65.0447 89.718C65.2566 89.9061 65.4171 90.1452 65.5112 90.4127C65.6384 91.0778 64.9975 91.7193 65.1247 92.3844C65.2215 92.6699 65.4175 92.9112 65.6769 93.0644C65.9363 93.2176 66.2421 93.2726 66.5385 93.2193L63.612 95.1062C63.0841 95.4458 62.495 95.9411 62.693 96.4788L63.6355 96.7524L61.0954 100.399C60.7654 100.768 60.5768 101.243 60.5628 101.738C60.5875 101.865 60.6381 101.986 60.7113 102.093C60.7845 102.199 60.8789 102.29 60.9885 102.358C61.0981 102.427 61.2206 102.472 61.3485 102.491C61.4763 102.51 61.6067 102.503 61.7316 102.47C61.1229 103.104 60.6428 103.851 60.3178 104.668C60.2587 104.775 60.2257 104.894 60.2216 105.016C60.2175 105.138 60.2424 105.26 60.2942 105.371C60.4061 105.492 60.5453 105.585 60.7002 105.641C60.8551 105.698 61.0213 105.717 61.1849 105.696C62.5516 105.696 63.8193 104.753 64.0125 103.588C64.432 104.059 63.9843 104.616 63.5837 105.092C61.9767 107.026 60.3366 108.998 59.4836 111.253C58.6306 113.508 58.6683 116.14 60.2659 118.078C60.6196 118.454 60.9353 118.863 61.2085 119.3C61.7175 120.272 61.4253 121.517 62.217 122.343C62.8536 120.596 63.6257 118.902 64.5262 117.277C64.4753 117.848 64.3919 118.417 64.2764 118.979C64.2384 119.277 64.296 119.579 64.4409 119.842C64.5858 120.105 64.8104 120.315 65.0823 120.442C65.9118 120.744 66.7742 120.097 67.3161 119.498C67.451 119.32 67.6231 119.174 67.8204 119.069C68.1068 118.983 68.4029 118.934 68.7017 118.923C69.6866 118.767 70.2899 117.927 70.6951 117.144C71.7037 115.187 72.2315 113.074 72.7499 110.974C72.5418 112.573 72.7513 114.198 73.3578 115.692C73.4553 116.022 73.6697 116.305 73.961 116.489C74.2124 116.595 74.4895 116.623 74.7571 116.571C75.0248 116.519 75.2709 116.389 75.4644 116.196C75.7933 115.828 76.0178 115.379 76.1147 114.894C76.9088 112.111 77.4995 109.273 77.882 106.404L77.6935 110.257C77.6511 111.125 77.6935 112.144 78.5606 112.616C78.9518 112.828 79.5032 112.956 79.5786 113.342C79.9201 113.273 80.2277 113.089 80.4498 112.82C80.672 112.552 80.7953 112.215 80.7992 111.866C80.8416 111.215 80.6295 110.564 80.7049 109.913C80.7944 109.116 81.3034 108.394 81.5343 107.616C81.8831 106.432 81.5768 105.191 81.4495 103.974C81.3223 102.757 81.2516 101.639 82.2507 100.809Z" fill="#896363"/>
<path opacity="0.1" d="M156.118 368.665C146.555 369.712 141.574 367.396 141.574 367.396C140.782 366.91 140.105 366.258 139.588 365.486C139.072 364.713 138.728 363.838 138.582 362.92C138.077 359.778 133.275 356.603 133.275 356.603C133.275 356.603 127.361 357.179 126.635 355.443C126.461 354.706 126.394 353.949 126.437 353.193C128.624 353.716 133.662 354.919 135.221 355.367C137.248 355.943 143.167 365.552 143.167 365.552C148.865 368.552 158.295 364.703 161.603 363.193C162.06 365.5 161.113 368.118 156.118 368.665Z" fill="black"/>
<path opacity="0.1" d="M113.769 351.938C113.769 351.938 110.857 356.41 124.816 354.099L113.769 351.938Z" fill="black"/>
<path opacity="0.1" d="M135.919 346.216C135.919 346.216 150.641 349.419 147.606 343.202L135.919 346.216Z" fill="black"/>
<g opacity="0.1">
<path opacity="0.1" d="M65.2284 91.5825C65.1477 91.791 65.1217 92.0168 65.153 92.2382C65.2148 92.4928 65.3738 92.713 65.596 92.8514L66.5904 92.2099C66.3266 92.2567 66.0548 92.2217 65.8113 92.1095C65.5679 91.9974 65.3646 91.8135 65.2284 91.5825Z" fill="black"/>
<path opacity="0.1" d="M62.5328 88.8135C63.1219 88.9598 63.7392 89.0069 64.3095 89.1956C64.7856 89.3223 65.1933 89.6304 65.4452 90.0541C65.5262 89.8473 65.5522 89.623 65.5206 89.4032C65.4266 89.1357 65.266 88.8967 65.0541 88.7085C64.8422 88.5203 64.586 88.3893 64.3095 88.3277C63.7392 88.139 63.1219 88.0918 62.5328 87.9456C61.9588 87.8018 61.4147 87.5575 60.9258 87.2239C60.639 87.2348 60.3537 87.2695 60.0728 87.3277C60.7199 88.0652 61.5792 88.5843 62.5328 88.8135Z" fill="black"/>
<path opacity="0.1" d="M64.5969 116.267C63.6949 117.893 62.9212 119.587 62.283 121.333C61.496 120.508 61.7835 119.262 61.2745 118.291C61.003 117.852 60.6872 117.443 60.332 117.069C59.529 116.083 59.0647 114.864 59.0077 113.593C58.8773 115.157 59.3512 116.712 60.332 117.937C60.6872 118.311 61.003 118.72 61.2745 119.159C61.7835 120.13 61.496 121.371 62.283 122.201C62.882 120.568 63.5986 118.98 64.4273 117.451C64.5305 117.065 64.5874 116.667 64.5969 116.267Z" fill="black"/>
<path opacity="0.1" d="M60.6996 101.002C60.6159 101.189 60.5818 101.393 60.6006 101.597C60.6277 101.742 60.6882 101.878 60.7774 101.995C60.8666 102.112 60.982 102.207 61.1143 102.271C61.3111 101.984 61.5302 101.713 61.7694 101.46C61.5657 101.522 61.3469 101.51 61.1513 101.426C60.9556 101.342 60.7957 101.192 60.6996 101.002Z" fill="black"/>
<path opacity="0.1" d="M88.594 82.4219C88.6145 82.0521 88.6729 81.6854 88.7684 81.3276C88.938 80.7238 89.2019 80.1105 89.037 79.4973C88.971 79.8181 88.8579 80.1436 88.7684 80.4407C88.5933 81.0855 88.5342 81.7564 88.594 82.4219Z" fill="black"/>
<path opacity="0.1" d="M72.7216 81.8936C72.6688 82.4424 72.7119 82.9963 72.8489 83.5304C72.9033 82.9815 72.8602 82.4274 72.7216 81.8936Z" fill="black"/>
<path opacity="0.1" d="M64.0644 102.578C63.8523 103.724 62.5799 104.663 61.2368 104.687C60.9395 104.71 60.6444 104.619 60.4121 104.432L60.3697 104.526C60.3109 104.633 60.2777 104.752 60.2728 104.874C60.2679 104.996 60.2914 105.118 60.3414 105.229C60.4547 105.35 60.5949 105.441 60.7506 105.497C60.9062 105.553 61.0728 105.571 61.2368 105.55C61.793 105.54 62.3372 105.386 62.8156 105.102C63.0936 104.757 63.3764 104.418 63.6544 104.083C63.8018 103.913 63.9372 103.734 64.0597 103.545C64.0698 103.513 64.0777 103.48 64.0833 103.446V103.47C64.1828 103.341 64.2352 103.183 64.2318 103.021C64.2284 102.858 64.1693 102.702 64.0644 102.578Z" fill="black"/>
<path opacity="0.1" d="M62.9522 95.5354C62.8429 95.6342 62.7637 95.7619 62.7237 95.9037C62.6837 96.0456 62.6845 96.1959 62.726 96.3373L63.169 96.4647L63.6686 95.743L62.9522 95.5354Z" fill="black"/>
<path opacity="0.1" d="M105.569 103.814C105.428 103.993 105.23 104.139 105.07 104.286C104.396 105.017 104.631 106.078 104.311 106.965C104.26 107.134 104.172 107.29 104.052 107.419C103.931 107.548 103.783 107.648 103.618 107.71C103.109 107.871 102.572 107.564 102.143 107.276L100.362 106.064C100.432 106.394 100.498 106.729 100.56 107.064L102.143 108.14C102.572 108.432 103.109 108.739 103.618 108.578C103.783 108.515 103.931 108.415 104.051 108.286C104.171 108.157 104.26 108.002 104.311 107.833C104.631 106.946 104.396 105.885 105.07 105.154C105.23 104.979 105.428 104.838 105.569 104.658C105.693 104.468 105.775 104.254 105.81 104.029C105.845 103.805 105.832 103.575 105.772 103.356C105.74 103.522 105.671 103.679 105.569 103.814Z" fill="black"/>
<path opacity="0.1" d="M100.955 111.14C100.936 111.355 100.875 111.565 100.776 111.758C100.404 112.446 99.518 112.8 98.698 113.097L97.1522 113.663C96.8893 113.776 96.6085 113.842 96.3228 113.857C96.1008 113.847 95.884 113.787 95.6888 113.68C95.4937 113.574 95.3253 113.425 95.1965 113.243C94.9717 112.903 94.8119 112.524 94.7252 112.126L93.547 107.611C93.3114 106.715 92.9532 105.682 91.9447 105.347C91.6525 105.281 91.3645 105.197 91.0823 105.097C90.4555 104.795 90.3235 104.097 90.1397 103.512C89.6685 102.144 88.4102 101.059 87.0482 100.21C86.1264 99.567 85.0331 99.2154 83.9096 99.2007C83.3068 99.2096 82.7243 99.4205 82.2554 99.7997C81.4684 100.465 81.3977 101.319 81.459 102.243C81.477 101.939 81.557 101.642 81.6939 101.371C81.8309 101.099 82.022 100.858 82.2554 100.663C82.7265 100.288 83.3075 100.077 83.9096 100.064C85.0324 100.083 86.1245 100.434 87.0482 101.073C88.4102 101.908 89.6496 102.993 90.1397 104.375C90.3471 104.96 90.4791 105.658 91.0823 105.96C91.3645 106.061 91.6525 106.144 91.9447 106.21C92.9532 106.545 93.3114 107.578 93.547 108.474L94.7252 112.984C94.8107 113.383 94.9706 113.762 95.1965 114.102C95.3243 114.285 95.4923 114.435 95.6876 114.542C95.8829 114.65 96.1003 114.71 96.3228 114.72C96.6082 114.703 96.8886 114.637 97.1522 114.527L98.6886 113.97C99.5086 113.673 100.395 113.319 100.767 112.63C100.962 112.186 101.028 111.695 100.955 111.215C100.96 111.206 100.96 111.177 100.955 111.14Z" fill="black"/>
<path opacity="0.1" d="M107.426 99.347C107.447 99.8119 107.327 100.272 107.082 100.668C106.927 100.875 106.709 101.026 106.46 101.097C106.211 101.167 105.946 101.154 105.706 101.059C105.638 101.37 105.638 101.692 105.706 102.003V101.937C105.946 102.032 106.211 102.045 106.46 101.974C106.709 101.903 106.927 101.753 107.082 101.545C107.326 101.149 107.446 100.689 107.426 100.224C107.468 99.4555 107.501 98.6677 107.482 97.8894C107.473 98.3658 107.449 98.8753 107.426 99.347Z" fill="black"/>
<path opacity="0.1" d="M72.8206 109.951C72.3789 112.081 71.6893 114.152 70.7658 116.121C70.3606 116.904 69.7573 117.744 68.7677 117.899C68.469 117.911 68.173 117.961 67.8864 118.045C67.6913 118.151 67.521 118.298 67.3868 118.475C66.8449 119.088 65.973 119.734 65.153 119.418C64.9586 119.342 64.7867 119.218 64.6539 119.057C64.521 118.896 64.4317 118.704 64.3943 118.498C64.3943 118.612 64.3566 118.72 64.3472 118.828C64.3048 119.126 64.3606 119.429 64.506 119.692C64.6515 119.956 64.8786 120.164 65.153 120.286C65.9825 120.593 66.8449 119.942 67.3868 119.343C67.5225 119.168 67.6925 119.024 67.8864 118.918C68.1719 118.829 68.4685 118.779 68.7677 118.772C69.7573 118.616 70.3606 117.777 70.7658 116.994C71.6484 115.125 72.3111 113.161 72.7405 111.14C72.7411 110.742 72.7679 110.345 72.8206 109.951Z" fill="black"/>
<path opacity="0.1" d="M77.9527 105.394C77.5701 108.264 76.9795 111.101 76.1854 113.885C76.0887 114.37 75.8623 114.82 75.5304 115.187C75.3373 115.38 75.0911 115.511 74.8233 115.563C74.5555 115.615 74.2782 115.586 74.027 115.479C73.7389 115.294 73.5267 115.011 73.4285 114.682C73.0387 113.703 72.8157 112.665 72.7687 111.611C72.7074 112.958 72.9373 114.301 73.4426 115.55C73.5406 115.88 73.7528 116.165 74.0412 116.352C74.2926 116.457 74.5695 116.486 74.837 116.434C75.1046 116.382 75.3507 116.251 75.5445 116.06C75.8757 115.692 76.102 115.243 76.1996 114.758C76.9542 112.11 77.5242 109.413 77.9056 106.687L77.9527 105.394Z" fill="black"/>
<path opacity="0.1" d="M81.6004 106.621C81.3695 107.399 80.8652 108.116 80.7757 108.918C80.745 109.176 80.745 109.438 80.7757 109.696C80.8888 108.932 81.3648 108.238 81.5863 107.488C81.7359 106.941 81.7853 106.37 81.7323 105.804C81.7162 106.08 81.672 106.354 81.6004 106.621Z" fill="black"/>
<path opacity="0.1" d="M79.6493 112.347C79.5833 111.96 79.0178 111.833 78.6313 111.621C78.3627 111.447 78.1426 111.208 77.9917 110.926C77.8408 110.644 77.7642 110.328 77.7689 110.008V110.116C77.7265 110.984 77.7689 112.003 78.6361 112.475C79.0225 112.687 79.5786 112.81 79.654 113.201C79.9952 113.129 80.3018 112.944 80.5236 112.675C80.7454 112.405 80.8692 112.069 80.8746 111.72C80.8856 111.496 80.8777 111.272 80.851 111.05C80.8161 111.367 80.6804 111.664 80.464 111.897C80.2477 112.131 79.9621 112.288 79.6493 112.347Z" fill="black"/>
</g>
<path d="M226.544 377H171.646C170.998 377.001 170.357 376.865 169.765 376.6C169.173 376.335 168.644 375.947 168.213 375.463C167.782 374.978 167.459 374.408 167.264 373.789C167.069 373.17 167.008 372.517 167.084 371.872L180.449 258.19L180.727 255.789C180.859 254.672 181.395 253.642 182.235 252.894C183.075 252.146 184.16 251.733 185.284 251.733H214.107C215.239 251.733 216.331 252.152 217.174 252.91C218.016 253.668 218.548 254.71 218.669 255.837L218.909 258.115L231.115 371.915C231.184 372.557 231.117 373.206 230.919 373.82C230.72 374.434 230.395 374.999 229.964 375.479C229.532 375.958 229.005 376.342 228.416 376.604C227.827 376.866 227.189 377.001 226.544 377Z" fill="#4E5A86"/>
<path opacity="0.1" d="M184.238 265.327C184.238 265.327 186.255 316.899 178.465 336.556C178.465 336.556 179.276 340.744 181.467 336.556C183.659 332.367 191.166 288.734 187.556 266.054C187.556 266.049 186.816 263.592 184.238 265.327Z" fill="black"/>
<path opacity="0.1" d="M193.909 265.327C193.909 265.327 195.926 316.899 188.136 336.556C188.136 336.556 188.946 340.744 191.138 336.556C193.329 332.367 200.836 288.734 197.226 266.054C197.226 266.049 196.505 263.592 193.909 265.327Z" fill="black"/>
<path opacity="0.1" d="M217.449 265.327C217.449 265.327 215.427 316.9 223.222 336.556C223.222 336.556 222.406 340.744 220.215 336.556C218.024 332.367 210.507 288.729 214.112 266.049C214.112 266.049 214.838 263.592 217.449 265.327Z" fill="black"/>
<path opacity="0.1" d="M207.764 265.327C207.764 265.327 205.742 316.9 213.537 336.556C213.537 336.556 212.722 340.744 210.53 336.556C208.339 332.367 200.836 288.729 204.442 266.049C204.442 266.049 205.167 263.592 207.764 265.327Z" fill="black"/>
<path d="M212.543 9.16064H186.453V237.011H212.543V9.16064Z" fill="#4E5A86"/>
<path opacity="0.1" d="M218.909 258.129C218.616 258.207 218.313 258.247 218.009 258.247H180.991C180.81 258.247 180.628 258.233 180.449 258.205L180.727 255.804C180.859 254.686 181.395 253.656 182.235 252.908C183.075 252.16 184.16 251.747 185.284 251.747H214.107C215.239 251.747 216.331 252.167 217.174 252.924C218.016 253.682 218.548 254.724 218.669 255.851L218.909 258.129Z" fill="black"/>
<path opacity="0.1" d="M212.811 232.458H186.453V237.01H212.811V232.458Z" fill="black"/>
<path d="M217.703 233.327H181.293C179.211 233.327 177.523 235.016 177.523 237.1V253.605C177.523 255.69 179.211 257.379 181.293 257.379H217.703C219.785 257.379 221.473 255.69 221.473 253.605V237.1C221.473 235.016 219.785 233.327 217.703 233.327Z" fill="#4E5A86"/>
<path opacity="0.1" d="M191.958 9.16064H188.206V226.176H191.958V9.16064Z" fill="black"/>
<path opacity="0.1" d="M198.235 9.16064H194.484V226.176H198.235V9.16064Z" fill="black"/>
<path opacity="0.1" d="M204.512 9.16064H200.761V226.176H204.512V9.16064Z" fill="black"/>
<path opacity="0.1" d="M210.794 9.16064H207.043V226.176H210.794V9.16064Z" fill="black"/>
<path d="M214.173 117.951C214.173 117.951 205.587 115.277 206.887 124.739C208.188 134.202 211.506 134.782 211.506 134.782C211.506 134.782 214.39 134.131 214.753 130.376C215.116 126.621 214.173 117.951 214.173 117.951Z" fill="#FFA2A2"/>
<g opacity="0.1">
<path opacity="0.1" d="M409.953 319.522C417.177 330.197 414.868 368.415 414.868 368.415C414.868 368.415 378.58 356.386 371.332 345.711C369.614 343.172 368.413 340.318 367.797 337.313C367.18 334.309 367.161 331.212 367.741 328.201C368.911 322.118 372.447 316.75 377.572 313.277C382.696 309.804 388.989 308.511 395.066 309.682C401.143 310.853 406.507 314.393 409.976 319.522H409.953Z" fill="#FFE01B"/>
<path opacity="0.1" d="M409.953 319.522C417.177 330.197 414.868 368.415 414.868 368.415C414.868 368.415 378.58 356.386 371.332 345.711C369.614 343.172 368.413 340.318 367.797 337.313C367.18 334.309 367.161 331.212 367.741 328.201C368.911 322.118 372.447 316.75 377.572 313.277C382.696 309.804 388.989 308.511 395.066 309.682C401.143 310.853 406.507 314.393 409.976 319.522H409.953Z" fill="black"/>
<path opacity="0.1" d="M377.704 313.314C377.704 313.314 404.915 334.343 415.009 368.443" stroke="#535461" stroke-miterlimit="10"/>
</g>
<g opacity="0.1">
<path opacity="0.1" d="M210.403 287.559C210.403 287.559 239.424 213.501 294.906 185.486C318.197 173.731 337.349 155.108 348.938 131.711C354.417 120.607 358.868 109.023 362.237 97.1062" stroke="#535461" stroke-width="2" stroke-miterlimit="10"/>
<path opacity="0.1" d="M397.097 79.2425C391.366 86.6342 361.384 97.6722 361.384 97.6722C361.384 97.6722 364.635 65.8601 370.366 58.4731C371.709 56.666 373.399 55.1452 375.337 53.9999C377.275 52.8546 379.422 52.1077 381.651 51.8031C383.881 51.4984 386.149 51.642 388.323 52.2256C390.496 52.8091 392.532 53.8208 394.31 55.2014C396.088 56.5821 397.573 58.3039 398.678 60.2661C399.783 62.2283 400.486 64.3915 400.745 66.629C401.005 68.8664 400.816 71.1332 400.189 73.2967C399.563 75.4601 398.511 77.4767 397.097 79.2283V79.2425Z" fill="#FFE01B"/>
<path opacity="0.1" d="M387.445 137.338C378.623 140.423 347.458 133.376 347.458 133.376C347.458 133.376 367.463 108.446 376.285 105.361C378.383 104.628 380.604 104.315 382.823 104.441C385.041 104.567 387.213 105.129 389.215 106.095C391.216 107.061 393.008 108.412 394.488 110.071C395.967 111.73 397.106 113.665 397.839 115.765C398.572 117.864 398.884 120.088 398.758 122.308C398.632 124.529 398.071 126.703 397.106 128.706C396.141 130.709 394.791 132.503 393.133 133.984C391.475 135.465 389.543 136.605 387.445 137.338Z" fill="#FFE01B"/>
<path opacity="0.1" d="M332.236 206.524C323.06 204.731 299.718 182.901 299.718 182.901C299.718 182.901 329.564 171.485 338.735 173.283C340.915 173.709 342.99 174.562 344.842 175.791C346.693 177.021 348.285 178.604 349.525 180.449C350.766 182.294 351.631 184.366 352.071 186.545C352.512 188.725 352.519 190.971 352.093 193.153C351.666 195.336 350.815 197.413 349.586 199.266C348.358 201.12 346.777 202.712 344.933 203.954C343.09 205.196 341.02 206.062 338.842 206.503C336.664 206.943 334.421 206.951 332.24 206.524H332.236Z" fill="#FFE01B"/>
<path opacity="0.1" d="M278.681 249.459C269.34 249.242 242.643 231.676 242.643 231.676C242.643 231.676 270.127 215.378 279.472 215.595C281.694 215.647 283.883 216.136 285.916 217.035C287.948 217.934 289.784 219.225 291.318 220.834C292.852 222.443 294.054 224.339 294.856 226.413C295.659 228.488 296.045 230.7 295.993 232.923C295.941 235.147 295.452 237.338 294.554 239.373C293.655 241.407 292.366 243.244 290.758 244.78C289.151 246.315 287.257 247.519 285.184 248.322C283.112 249.125 280.902 249.511 278.681 249.459Z" fill="#FFE01B"/>
<path opacity="0.1" d="M318.3 113.026C319.601 122.286 340.129 146.787 340.129 146.787C340.129 146.787 353.113 117.569 351.812 108.304C351.124 103.912 348.738 99.9664 345.168 97.3193C341.599 94.6723 337.133 93.5361 332.734 94.1559C328.336 94.7757 324.357 97.1018 321.656 100.632C318.956 104.163 317.75 108.614 318.3 113.026Z" fill="#FFE01B"/>
<path opacity="0.1" d="M256.295 164.004C260.306 172.462 287.196 189.684 287.196 189.684C287.196 189.684 290.854 157.914 286.838 149.466C285.885 147.457 284.545 145.656 282.896 144.166C281.247 142.676 279.321 141.525 277.227 140.78C275.134 140.034 272.915 139.709 270.696 139.822C268.477 139.936 266.302 140.485 264.295 141.44C262.288 142.394 260.489 143.735 259 145.386C257.511 147.036 256.362 148.964 255.617 151.06C254.872 153.155 254.547 155.376 254.661 157.597C254.774 159.818 255.323 161.995 256.276 164.004H256.295Z" fill="#FFE01B"/>
<path opacity="0.1" d="M202.839 221.855C205.365 230.86 228.985 252.398 228.985 252.398C228.985 252.398 237.939 221.704 235.423 212.699C234.161 208.431 231.271 204.831 227.378 202.679C223.485 200.527 218.903 199.995 214.621 201.198C210.34 202.401 206.703 205.243 204.499 209.108C202.294 212.974 201.698 217.553 202.839 221.855Z" fill="#FFE01B"/>
</g>
<g opacity="0.1">
<path opacity="0.1" d="M205.601 154.169C205.601 154.169 216.087 127.409 236.13 117.295C244.564 113.104 251.414 106.288 255.65 97.8702C257.63 93.8591 259.239 89.6749 260.457 85.3699" stroke="#535461" stroke-width="2" stroke-miterlimit="10"/>
<path opacity="0.1" d="M273.058 78.9217C270.985 81.5916 260.155 85.5775 260.155 85.5775C260.155 85.5775 261.329 74.0867 263.402 71.4262C263.868 70.7236 264.474 70.1246 265.181 69.6668C265.889 69.209 266.683 68.9023 267.515 68.7657C268.346 68.6292 269.197 68.6657 270.014 68.8732C270.83 69.0806 271.595 69.4544 272.261 69.9712C272.927 70.488 273.479 71.1368 273.883 71.8769C274.287 72.617 274.534 73.4325 274.609 74.2725C274.684 75.1126 274.585 75.959 274.318 76.7589C274.051 77.5589 273.622 78.2952 273.058 78.9217Z" fill="#FFE01B"/>
<path opacity="0.1" d="M269.562 99.9081C266.376 101.021 255.117 98.493 255.117 98.493C255.117 98.493 262.342 89.4833 265.527 88.3701C266.299 88.0412 267.13 87.8744 267.969 87.88C268.808 87.8857 269.636 88.0636 270.403 88.4029C271.171 88.7421 271.86 89.2354 272.429 89.8523C272.998 90.4691 273.434 91.1963 273.711 91.9888C273.988 92.7813 274.099 93.6222 274.038 94.4595C273.977 95.2967 273.744 96.1125 273.355 96.8563C272.966 97.6 272.429 98.2559 271.776 98.7833C271.124 99.3107 270.37 99.6983 269.562 99.9222V99.9081Z" fill="#FFE01B"/>
<path opacity="0.1" d="M249.613 124.904C246.314 124.253 237.869 116.366 237.869 116.366C237.869 116.366 248.647 112.243 251.96 112.894C252.79 113.003 253.59 113.28 254.309 113.71C255.028 114.14 255.652 114.713 256.141 115.394C256.63 116.075 256.975 116.848 257.153 117.668C257.332 118.487 257.341 119.334 257.179 120.157C257.018 120.979 256.69 121.76 256.215 122.451C255.74 123.142 255.129 123.728 254.419 124.173C253.709 124.618 252.915 124.912 252.087 125.038C251.258 125.164 250.413 125.118 249.603 124.904H249.613Z" fill="#FFE01B"/>
<path opacity="0.1" d="M230.267 140.414C226.893 140.334 217.251 133.989 217.251 133.989C217.251 133.989 227.18 128.097 230.555 128.178C232.106 128.313 233.547 129.036 234.586 130.197C235.624 131.359 236.182 132.872 236.145 134.431C236.109 135.989 235.481 137.475 234.389 138.586C233.297 139.698 231.823 140.351 230.267 140.414Z" fill="#FFE01B"/>
<path opacity="0.1" d="M244.575 91.1154C245.046 94.4599 252.464 103.314 252.464 103.314C252.464 103.314 257.177 92.757 256.705 89.4126C256.644 88.5751 256.412 87.7592 256.023 87.0154C255.633 86.2715 255.096 85.6156 254.443 85.0882C253.79 84.5608 253.036 84.1733 252.228 83.9495C251.419 83.7258 250.573 83.6706 249.743 83.7874C248.912 83.9043 248.114 84.1906 247.398 84.6288C246.683 85.0669 246.065 85.6475 245.582 86.3345C245.1 87.0215 244.764 87.8003 244.595 88.6227C244.425 89.4451 244.427 90.2936 244.598 91.1154H244.575Z" fill="#FFE01B"/>
<path opacity="0.1" d="M222.161 109.54C223.613 112.592 233.335 118.819 233.335 118.819C233.335 118.819 234.655 107.342 233.203 104.29C232.443 102.936 231.197 101.92 229.718 101.45C228.238 100.979 226.635 101.088 225.233 101.755C223.831 102.422 222.734 103.596 222.164 105.041C221.593 106.487 221.593 108.095 222.161 109.54Z" fill="#FFE01B"/>
<path opacity="0.1" d="M202.867 130.442C203.782 133.692 212.293 141.475 212.293 141.475C212.293 141.475 215.563 130.385 214.621 127.131C214.44 126.317 214.096 125.549 213.609 124.873C213.122 124.197 212.502 123.628 211.788 123.199C211.074 122.771 210.28 122.493 209.454 122.383C208.629 122.272 207.79 122.331 206.988 122.555C206.187 122.78 205.439 123.166 204.791 123.689C204.143 124.213 203.609 124.863 203.221 125.6C202.832 126.338 202.598 127.146 202.533 127.977C202.467 128.808 202.571 129.643 202.839 130.433L202.867 130.442Z" fill="#FFE01B"/>
</g>
<g opacity="0.1">
<path opacity="0.1" d="M293.912 376.127C293.912 376.127 294.355 347.391 309.582 330.881C316.016 323.999 320.045 315.213 321.062 305.843C321.51 301.39 321.549 296.906 321.18 292.446" stroke="#535461" stroke-width="2" stroke-miterlimit="10"/>
<path opacity="0.1" d="M330.713 281.988C329.71 285.201 320.963 292.748 320.963 292.748C320.963 292.748 318.041 281.568 319.045 278.342C319.609 276.897 320.7 275.719 322.097 275.047C323.495 274.375 325.095 274.258 326.574 274.72C328.054 275.182 329.305 276.188 330.073 277.536C330.841 278.884 331.07 280.473 330.713 281.983V281.988Z" fill="#FFE01B"/>
<path opacity="0.1" d="M334.795 302.866C332.198 305.026 320.765 306.597 320.765 306.597C320.765 306.597 324.375 295.625 326.972 293.46C328.23 292.543 329.789 292.14 331.333 292.332C332.878 292.524 334.291 293.297 335.287 294.494C336.282 295.691 336.785 297.222 336.694 298.777C336.603 300.332 335.924 301.794 334.795 302.866Z" fill="#FFE01B"/>
<path opacity="0.1" d="M324.898 333.272C321.566 333.829 310.906 329.404 310.906 329.404C310.906 329.404 319.559 321.758 322.886 321.201C324.433 321.047 325.982 321.487 327.217 322.432C328.452 323.378 329.282 324.758 329.538 326.294C329.794 327.829 329.457 329.405 328.595 330.7C327.734 331.996 326.412 332.916 324.898 333.272Z" fill="#FFE01B"/>
<path opacity="0.1" d="M312.174 354.589C308.983 355.697 297.729 353.141 297.729 353.141C297.729 353.141 304.987 344.164 308.173 343.032C308.946 342.698 309.78 342.527 310.623 342.53C311.466 342.534 312.298 342.711 313.07 343.051C313.841 343.391 314.533 343.886 315.104 344.506C315.676 345.126 316.113 345.858 316.389 346.655C316.664 347.452 316.773 348.297 316.708 349.138C316.643 349.978 316.405 350.797 316.009 351.541C315.614 352.286 315.069 352.941 314.409 353.465C313.749 353.99 312.988 354.372 312.174 354.589Z" fill="#FFE01B"/>
<path opacity="0.1" d="M308.323 303.399C309.935 306.371 319.983 312.055 319.983 312.055C319.983 312.055 320.675 300.526 319.04 297.554C318.208 296.242 316.908 295.295 315.405 294.906C313.902 294.516 312.306 294.712 310.942 295.454C309.578 296.197 308.546 297.43 308.055 298.905C307.565 300.38 307.652 301.986 308.3 303.399H308.323Z" fill="#FFE01B"/>
<path opacity="0.1" d="M293.794 328.518C296.221 330.876 307.508 333.282 307.508 333.282C307.508 333.282 304.723 322.074 302.296 319.72C301.106 318.739 299.591 318.244 298.052 318.332C296.513 318.42 295.063 319.085 293.993 320.195C292.922 321.305 292.309 322.779 292.276 324.321C292.243 325.864 292.791 327.362 293.813 328.518H293.794Z" fill="#FFE01B"/>
<path opacity="0.1" d="M283.04 354.867C285.033 357.594 295.764 361.886 295.764 361.886C295.764 361.886 294.911 350.362 292.937 347.636C291.937 346.443 290.522 345.676 288.978 345.489C287.434 345.302 285.877 345.71 284.623 346.63C283.368 347.55 282.51 348.913 282.222 350.442C281.934 351.972 282.239 353.554 283.073 354.867H283.04Z" fill="#FFE01B"/>
</g>
<g opacity="0.1">
<path opacity="0.1" d="M223.245 371.608C223.245 371.608 223.688 342.867 238.915 326.357C245.349 319.476 249.378 310.689 250.395 301.319C250.843 296.868 250.882 292.385 250.513 287.927" stroke="#535461" stroke-width="2" stroke-miterlimit="10"/>
<path opacity="0.1" d="M260.047 277.464C259.043 280.691 250.296 288.229 250.296 288.229C250.296 288.229 247.374 277.054 248.378 273.828C248.57 273.007 248.928 272.235 249.431 271.56C249.934 270.884 250.571 270.32 251.302 269.902C252.032 269.483 252.841 269.22 253.678 269.129C254.515 269.037 255.361 269.119 256.165 269.37C256.968 269.62 257.712 270.034 258.349 270.585C258.986 271.135 259.502 271.812 259.866 272.571C260.231 273.331 260.435 274.157 260.466 274.999C260.497 275.841 260.354 276.68 260.047 277.464Z" fill="#FFE01B"/>
<path opacity="0.1" d="M264.137 298.342C261.541 300.507 250.108 302.074 250.108 302.074C250.108 302.074 253.717 291.102 256.314 288.941C257.572 288.032 259.128 287.635 260.667 287.829C262.206 288.024 263.615 288.795 264.608 289.989C265.6 291.182 266.104 292.708 266.017 294.258C265.93 295.809 265.258 297.268 264.137 298.342Z" fill="#FFE01B"/>
<path opacity="0.1" d="M254.208 328.754C250.876 329.305 240.216 324.881 240.216 324.881C240.216 324.881 248.868 317.234 252.195 316.683C253.011 316.49 253.858 316.468 254.684 316.616C255.509 316.765 256.295 317.082 256.993 317.547C257.691 318.012 258.286 318.615 258.742 319.32C259.197 320.024 259.504 320.815 259.642 321.642C259.78 322.47 259.746 323.318 259.544 324.132C259.341 324.946 258.974 325.711 258.465 326.377C257.955 327.044 257.315 327.599 256.583 328.007C255.85 328.416 255.042 328.67 254.208 328.754Z" fill="#FFE01B"/>
<path opacity="0.1" d="M241.526 350.065C238.335 351.179 227.081 348.617 227.081 348.617C227.081 348.617 234.32 339.622 237.506 338.504C238.278 338.176 239.109 338.01 239.948 338.016C240.787 338.023 241.615 338.201 242.382 338.542C243.149 338.882 243.838 339.376 244.407 339.993C244.975 340.611 245.411 341.339 245.686 342.132C245.962 342.925 246.072 343.766 246.01 344.603C245.948 345.441 245.714 346.256 245.324 347C244.934 347.743 244.396 348.398 243.742 348.925C243.089 349.451 242.335 349.838 241.526 350.061V350.065Z" fill="#FFE01B"/>
<path opacity="0.1" d="M237.657 298.88C239.268 301.852 249.316 307.536 249.316 307.536C249.316 307.536 250.009 296.007 248.373 293.036C248.035 292.255 247.537 291.553 246.913 290.975C246.288 290.397 245.55 289.955 244.746 289.678C243.941 289.402 243.088 289.295 242.24 289.367C241.393 289.438 240.569 289.685 239.822 290.093C239.075 290.5 238.421 291.059 237.902 291.733C237.382 292.407 237.009 293.182 236.805 294.009C236.602 294.835 236.572 295.695 236.719 296.534C236.865 297.373 237.185 298.172 237.657 298.88Z" fill="#FFE01B"/>
<path opacity="0.1" d="M223.137 323.994C225.564 326.352 236.851 328.763 236.851 328.763C236.851 328.763 234.066 317.55 231.638 315.201C231.08 314.564 230.395 314.05 229.627 313.692C228.86 313.333 228.027 313.137 227.18 313.117C226.333 313.097 225.492 313.253 224.708 313.575C223.925 313.897 223.217 314.378 222.628 314.988C222.04 315.598 221.584 316.323 221.29 317.118C220.996 317.913 220.87 318.76 220.919 319.607C220.969 320.453 221.193 321.28 221.578 322.035C221.963 322.79 222.5 323.457 223.156 323.994H223.137Z" fill="#FFE01B"/>
<path opacity="0.1" d="M212.373 350.344C214.366 353.07 225.097 357.363 225.097 357.363C225.097 357.363 224.244 345.839 222.27 343.112C221.82 342.404 221.229 341.796 220.535 341.325C219.841 340.855 219.058 340.532 218.234 340.376C217.409 340.221 216.562 340.237 215.745 340.422C214.927 340.608 214.156 340.959 213.48 341.455C212.803 341.951 212.236 342.581 211.812 343.305C211.389 344.03 211.118 344.833 211.017 345.667C210.917 346.5 210.988 347.345 211.227 348.149C211.466 348.954 211.867 349.701 212.406 350.344H212.373Z" fill="#FFE01B"/>
</g>
<path d="M191.057 36.5433C192 39.449 189.446 49.5625 189.446 49.5625C189.446 49.5625 181.491 42.8312 180.558 39.9113C180.298 39.2115 180.183 38.4664 180.219 37.7209C180.256 36.9754 180.443 36.245 180.769 35.5738C181.095 34.9026 181.554 34.3045 182.117 33.8157C182.681 33.3268 183.337 32.9574 184.047 32.7296C184.757 32.5018 185.506 32.4204 186.249 32.4904C186.991 32.5603 187.712 32.7802 188.367 33.1366C189.022 33.493 189.598 33.9787 190.061 34.5642C190.523 35.1497 190.862 35.823 191.057 36.5433Z" fill="#FFE01B"/>
<path d="M151.942 101.234C152.885 104.139 150.33 114.253 150.33 114.253C150.33 114.253 142.366 107.521 141.433 104.616C141.211 103.925 141.127 103.197 141.186 102.474C141.245 101.751 141.446 101.047 141.777 100.401C142.108 99.7559 142.563 99.1821 143.116 98.7126C143.668 98.2431 144.308 97.8872 144.998 97.6651C145.688 97.443 146.415 97.3591 147.137 97.4183C147.86 97.4774 148.564 97.6784 149.208 98.0098C149.853 98.3412 150.426 98.7964 150.896 99.3495C151.365 99.9027 151.72 100.543 151.942 101.234Z" fill="#FFE01B"/>
<path d="M234.348 72.7188C235.291 75.6245 232.732 85.738 232.732 85.738C232.732 85.738 224.772 79.0114 223.839 76.1056C223.39 74.7107 223.514 73.1945 224.182 71.8906C224.85 70.5866 226.008 69.6018 227.402 69.1526C228.795 68.7035 230.31 68.8269 231.613 69.4957C232.916 70.1644 233.9 71.3238 234.348 72.7188Z" fill="#FFE01B"/>
<path d="M276.979 121.602C277.922 124.503 275.368 134.617 275.368 134.617C275.368 134.617 267.403 127.89 266.461 124.984C266.221 124.289 266.122 123.553 266.171 122.82C266.219 122.086 266.413 121.37 266.741 120.712C267.07 120.055 267.526 119.469 268.084 118.991C268.641 118.512 269.288 118.149 269.987 117.924C270.687 117.699 271.424 117.616 272.155 117.679C272.887 117.743 273.599 117.952 274.249 118.295C274.899 118.638 275.474 119.107 275.94 119.674C276.407 120.242 276.755 120.898 276.965 121.602H276.979Z" fill="#FFE01B"/>
<path d="M248.213 41.3264C246.663 43.9538 237.416 48.7605 237.416 48.7605C237.416 48.7605 237.157 38.3357 238.708 35.7083C239.452 34.4466 240.666 33.5325 242.084 33.1672C243.502 32.8018 245.006 33.0151 246.267 33.7601C247.527 34.5051 248.44 35.7208 248.805 37.1398C249.17 38.5587 248.957 40.0647 248.213 41.3264Z" fill="#FFE01B"/>
<path d="M352.482 33.4537C350.931 36.0812 341.685 40.8879 341.685 40.8879C341.685 40.8879 341.43 30.4584 342.981 27.8357C343.341 27.1957 343.826 26.6341 344.406 26.1838C344.986 25.7336 345.65 25.4037 346.359 25.2135C347.068 25.0232 347.808 24.9765 348.535 25.0761C349.262 25.1756 349.963 25.4193 350.595 25.7931C351.227 26.1668 351.778 26.663 352.216 27.2526C352.654 27.8421 352.97 28.5133 353.146 29.2267C353.322 29.9401 353.353 30.6814 353.239 31.4072C353.125 32.133 352.868 32.8288 352.482 33.4537Z" fill="#FFE01B"/>
<path d="M142.517 53.6995C139.567 54.4684 129.623 51.341 129.623 51.341C129.623 51.341 136.791 43.7701 139.741 43.0012C140.443 42.8187 141.174 42.7765 141.892 42.8767C142.61 42.977 143.301 43.2179 143.926 43.5856C144.551 43.9533 145.098 44.4407 145.535 45.0199C145.972 45.5991 146.291 46.2587 146.473 46.9612C146.655 47.6636 146.697 48.3952 146.597 49.114C146.497 49.8328 146.256 50.5248 145.889 51.1505C145.522 51.7762 145.035 52.3234 144.456 52.7607C143.878 53.1981 143.218 53.5171 142.517 53.6995Z" fill="#FFE01B"/>
<path d="M238.052 173.075C236.502 175.703 227.256 180.509 227.256 180.509C227.256 180.509 226.996 170.084 228.547 167.457C228.915 166.832 229.403 166.286 229.983 165.85C230.562 165.414 231.222 165.097 231.923 164.916C232.625 164.735 233.356 164.694 234.074 164.796C234.791 164.898 235.482 165.14 236.106 165.509C236.73 165.878 237.276 166.366 237.711 166.946C238.147 167.526 238.464 168.186 238.645 168.889C238.826 169.591 238.866 170.322 238.765 171.041C238.663 171.759 238.421 172.45 238.052 173.075Z" fill="#FFE01B"/>
<defs>
<linearGradient id="paint0_linear" x1="101.101" y1="373.74" x2="101.101" y2="77.0349" gradientUnits="userSpaceOnUse">
<stop stop-color="#808080" stop-opacity="0.25"/>
<stop offset="0.54" stop-color="#808080" stop-opacity="0.12"/>
<stop offset="1" stop-color="#808080" stop-opacity="0.1"/>
</linearGradient>
</defs>
</svg>
