<svg width="820" height="1012" viewBox="0 0 820 1012" fill="none" xmlns="http://www.w3.org/2000/svg">
<path d="M539.955 331.171L472.406 341.744L437.794 345.036L428.564 345.923C428.564 345.923 412.082 348.531 410.472 345.923C408.862 343.314 377.103 345.923 377.103 345.923C377.103 345.923 357.807 322.953 311.962 335.084C307.333 337.821 302.118 339.419 296.748 339.743C296.742 339.651 296.742 339.557 296.748 339.465C296.913 334.185 296.253 315.976 280.165 306.011C275.589 306.483 271.149 307.842 267.093 310.012L266.726 310.215L265.635 310.848L265.496 311C265.97 308.915 266.292 306.799 266.46 304.669C266.46 303.871 266.46 303.073 266.548 302.275C268.394 301.764 270.009 300.638 271.125 299.084C271.584 298.163 271.781 297.134 271.696 296.109C271.696 295.742 271.696 295.362 271.696 294.995C271.689 294.914 271.689 294.834 271.696 294.754C271.696 294.754 271.696 294.754 271.696 294.83C271.43 291.079 270.879 287.354 270.047 283.687L275.017 286.979C276.209 287.764 277.705 288.6 279.125 288.157C279.581 287.995 279.993 287.728 280.328 287.378C280.662 287.029 280.91 286.606 281.052 286.144C281.94 283.738 281.293 280.863 283.169 278.875C283.613 278.407 284.171 278.027 284.551 277.533C285.069 276.857 285.317 276.014 285.249 275.165C285.253 274.673 285.215 274.182 285.135 273.697V273.798C284.806 272.558 284.754 271.261 284.982 269.999C285.645 270.257 286.374 270.294 287.059 270.105C287.745 269.915 288.35 269.51 288.786 268.948C289.468 267.881 289.804 266.63 289.75 265.365C289.864 263.225 289.952 261.034 289.902 258.856C289.908 258.814 289.908 258.772 289.902 258.73C289.775 253.576 288.799 248.498 285.249 244.383C286.174 238.483 279.746 232.05 272.57 231.24C270.808 231.05 268.64 230.948 267.854 229.619C267.588 228.987 267.471 228.302 267.512 227.618C267.334 225.377 265.788 223.389 264.304 221.502C263.701 220.678 262.974 219.952 262.149 219.35C259.791 217.83 256.444 218.235 253.528 218.755C248.186 219.692 242.878 220.738 237.604 221.895C236.97 219.345 237.01 216.675 237.718 214.145C238.208 212.88 238.507 211.548 238.605 210.195C238.629 209.768 238.582 209.34 238.466 208.929V209.093C238.392 208.882 238.308 208.675 238.212 208.473C237.96 208.01 237.595 207.617 237.153 207.33C236.71 207.042 236.203 206.869 235.677 206.827C234.989 206.804 234.309 206.981 233.719 207.336C233.13 207.691 232.656 208.209 232.355 208.827C229.338 213.215 227.246 218.169 226.206 223.389C224.194 221.987 221.864 221.11 219.426 220.835C216.988 220.561 214.521 220.899 212.247 221.819C211.102 222.435 209.865 222.863 208.583 223.085C207.517 223.088 206.468 222.813 205.54 222.286C204.613 221.76 203.84 221.001 203.296 220.084C201.838 217.919 201.192 215.336 198.377 213.905C197.749 213.584 197.054 213.416 196.349 213.416C195.643 213.416 194.948 213.584 194.32 213.905C193.991 214.077 193.7 214.314 193.465 214.601C193.23 214.889 193.055 215.22 192.951 215.576C192.957 215.513 192.957 215.45 192.951 215.386C192.931 215.572 192.931 215.758 192.951 215.944C192.951 216.02 192.951 216.095 192.951 216.171C192.951 216.247 192.951 216.361 192.951 216.45C192.849 218.894 194.561 222.059 192.621 223.984C191.842 224.634 190.935 225.113 189.959 225.39L183.062 227.859C179.379 229.386 175.484 230.343 171.512 230.695C167.899 230.822 164.247 230.024 160.685 230.113C160.517 230.028 160.356 229.93 160.203 229.821C159.407 229.864 158.615 229.957 157.832 230.1C157.91 230.199 157.994 230.292 158.086 230.379H157.832C159.648 232.395 162.044 233.801 164.691 234.405C166.326 234.81 168.051 234.937 169.635 235.444C171.22 235.95 172.729 236.963 173.008 238.356C173.037 239.522 172.757 240.675 172.196 241.699L172.133 241.597C171.967 242.047 171.886 242.524 171.892 243.003C171.861 243.23 171.861 243.46 171.892 243.687C172.17 244.484 172.728 245.153 173.462 245.57C174.197 245.987 175.058 246.123 175.886 245.953L167.734 251.082C167.126 251.446 166.557 251.87 166.035 252.348L165.807 252.284C165.575 252.512 165.392 252.784 165.27 253.085C165.148 253.385 165.089 253.708 165.097 254.032C165.07 254.28 165.101 254.531 165.185 254.766L167.81 255.513L160.647 265.415C160.21 265.991 159.828 266.605 159.505 267.251L159.429 267.125C159.267 267.527 159.181 267.957 159.176 268.391C159.151 268.606 159.151 268.822 159.176 269.037C159.237 269.393 159.374 269.732 159.577 270.03C159.78 270.329 160.045 270.581 160.353 270.77C160.662 270.958 161.007 271.078 161.366 271.122C161.725 271.166 162.089 271.133 162.434 271.025C160.864 272.598 159.601 274.448 158.707 276.482L158.593 276.406L158.479 276.672C158.3 277.07 158.209 277.502 158.212 277.938C158.159 278.272 158.227 278.613 158.402 278.901C158.724 279.238 159.123 279.494 159.564 279.646C160.005 279.798 160.476 279.842 160.938 279.774C164.742 279.774 168.279 277.179 168.875 274.076C170.041 275.343 168.786 276.849 167.683 278.154C163.195 283.396 158.631 288.727 156.273 294.843C155.444 296.941 154.939 299.152 154.776 301.402C154.776 301.402 154.776 301.3 154.776 301.25C154.776 301.414 154.776 301.579 154.776 301.744C154.459 305.943 155.786 310.101 158.479 313.342C159.476 314.351 160.368 315.459 161.141 316.647C162.561 319.281 161.75 322.662 163.956 324.89C165.736 320.152 167.889 315.562 170.396 311.164C170.357 312.354 170.178 313.536 169.864 314.685V314.583C169.864 314.887 169.762 315.178 169.737 315.47C169.724 315.685 169.724 315.9 169.737 316.115C169.678 316.879 169.864 317.641 170.267 318.292C170.67 318.943 171.271 319.449 171.981 319.737C174.225 320.535 176.545 318.914 178.066 317.293C178.282 317.85 178.498 318.395 178.738 318.939C183.458 329.423 191.985 337.728 202.599 342.174L202.802 342.592C194.244 347.657 174.352 359.978 173.059 364.701C171.398 370.728 171.994 386.581 183.911 389.798C186.49 390.5 189.166 390.782 191.835 390.633C191.328 391.431 190.834 392.241 190.352 393.026C187.055 398.37 184.292 403.321 183.455 405.98C181.046 413.742 158.529 423.137 158.529 423.137C158.529 423.137 138.016 439.599 133.604 471.254C133.604 471.254 111.886 499.441 99.8288 505.316C87.7718 511.191 66.8653 547.203 66.8653 547.203C66.8653 547.203 46.1616 561.714 41.7623 575.858C37.3629 590.002 26.5483 593.484 26.5483 593.484C26.5483 593.484 27.5372 593.965 29.084 594.928C28.5895 595.193 28.0697 595.497 27.4865 595.852C17.6482 601.702 -4.06974 617.72 0.735334 642.703C5.40094 666.761 32.6339 643.348 45.87 630.255L47.0618 629.065C46.8593 630.414 46.5799 631.75 46.225 633.066C49.0883 628.604 52.6398 624.621 56.748 621.265C61.1689 617.698 64.7997 613.252 67.4104 608.21C69.4136 604.412 72.6212 600.613 77.5531 599.347C88.4057 596.612 143.48 554.332 155.563 532.401C167.645 510.47 192.951 502.011 192.951 502.011L204.564 538.289C206.336 543.836 206.646 549.745 205.464 555.446C202.929 567.805 199.746 591.686 207.429 610.262C207.429 610.262 207.784 609.932 208.431 609.388C209.483 614.098 210.827 620.29 212.044 626.381C212.336 627.875 212.615 629.369 212.881 630.838C213.654 634.979 214.301 638.866 214.669 641.968C216.279 655.289 220.704 685.831 224.317 688.958C227.93 692.086 248.406 755.511 248.406 755.511C248.406 755.511 266.498 797.019 263.696 815.417C263.44 817.67 263.479 819.948 263.81 822.191C264.433 826.767 265.357 831.297 266.574 835.753C266.929 837.095 267.284 838.462 267.689 839.855C268.019 841.058 268.374 842.286 268.729 843.515C277.49 873.208 294.25 912.904 294.25 912.904C294.25 912.904 295.645 916.513 297.458 921.337C298.054 922.958 298.726 924.718 299.372 926.529C302.352 934.633 305.496 943.724 305.496 945.788C305.496 946.257 306.13 946.776 307.233 947.308C304.361 952.076 301.82 957.034 299.626 962.148C296.101 970.455 285.959 978.685 285.959 978.685C285.959 978.685 273.889 982.104 273.889 992.614V1000.64C273.889 1000.64 299.524 1000.15 307.968 1002.5C316.412 1004.86 327.67 1000.83 327.67 1000.83L330.079 997.717C330.079 997.717 359.328 998.983 361.141 991.727C361.673 989.6 361.648 985.067 361.217 979.66C360.664 973.067 359.69 966.516 358.301 960.046C360.228 959.97 361.547 959.844 361.547 959.844C361.547 959.844 374.922 968.454 376.317 976.976C376.744 979.481 377.712 981.863 379.152 983.957C380.593 986.052 382.472 987.809 384.659 989.106C384.659 989.106 398.542 995.438 425.166 992.538C439.112 991.056 441.737 983.965 440.456 977.66C439.29 971.886 434.827 966.77 432.71 967.188C428.298 968.074 410.497 942.522 410.497 942.522L401.458 923.528C402.269 913.398 399.886 908.599 396.539 906.561C398.833 885.199 399.138 856.57 399.138 856.57C399.138 856.57 401.154 822.115 399.138 791.181C397.122 760.247 397.122 699.569 390.263 679.208C387.093 669.737 382.504 643.209 378.523 617.555C378.219 615.63 377.914 613.756 377.635 611.819C376.672 605.577 375.772 599.473 374.935 593.75C375.328 593.56 375.734 593.37 376.089 593.168L373.933 574.377L373.629 571.781C373.705 571.857 373.807 571.907 373.883 571.971C381.122 578.618 371.474 541.822 371.474 541.822C371.474 541.822 367.125 499.504 367.417 475.167C367.444 466.508 366.983 457.854 366.035 449.247C365.299 442.004 367.011 432.596 377.965 425.974C380.843 424.16 383.543 422.078 386.028 419.757C389.084 416.984 395.753 413.425 410.117 413.008C434.206 412.235 458.295 399.699 458.295 399.699C458.295 399.699 486.047 401.27 498.865 384.821C511.683 368.373 543.898 364.473 543.898 364.473L539.955 331.171ZM43.2203 608.97L39.6577 603.981C40.9811 605.543 42.1728 607.212 43.2203 608.97ZM346.447 812.644C346.244 815.176 346.092 818.152 346.066 821.508C345.965 831.992 347.005 845.971 351.734 859.33L349.718 911.942H349.553C347.854 911.765 346.269 917.134 345.039 924.212C344.034 921.29 342.787 918.457 341.312 915.741C338.903 912.221 340.919 892.657 340.919 892.657C340.919 892.657 330.852 876.601 330.066 873.069C329.28 869.536 317.185 812.378 317.185 812.378C317.185 812.378 316.387 767.756 311.962 756.41C307.537 745.065 306.333 695.72 306.333 695.72C306.333 695.72 328.444 731.339 330.066 749.357L347.347 804.565C347.347 804.565 346.814 807.579 346.447 812.644Z" fill="url(#paint0_linear)"/>
<path d="M394.815 854.936C394.815 854.936 394.155 917.577 387.55 926.099C380.944 934.621 346.396 926.491 346.396 926.491L348.932 857.646C344.355 844.427 343.341 830.574 343.455 820.191C343.455 816.873 343.62 813.86 343.81 811.416C344.177 806.351 344.685 803.363 344.685 803.363L327.987 748.687C326.428 730.833 305.078 695.505 305.078 695.505C305.078 695.505 306.244 744.369 310.517 755.613C314.789 766.857 315.588 811.061 315.588 811.061C315.588 811.061 327.239 867.687 328.013 871.182C328.786 874.677 338.498 890.568 338.498 890.568C338.498 890.568 336.558 909.954 338.891 913.449C341.223 916.944 350.922 944.092 348.589 949.132C346.257 954.171 304.33 947.182 304.33 943.307C304.33 941.268 301.287 932.253 298.409 924.225L296.558 919.084C294.808 914.31 293.452 910.739 293.452 910.739C293.452 910.739 277.274 871.41 268.818 841.995C268.463 840.729 268.133 839.564 267.803 838.387C267.423 836.994 267.068 835.639 266.738 834.309C265.566 829.896 264.672 825.413 264.063 820.887C263.745 818.664 263.707 816.409 263.949 814.176C266.662 795.942 249.192 754.841 249.192 754.841C249.192 754.841 229.388 692.01 225.889 688.908C222.39 685.805 218.117 655.568 216.571 642.374C216.216 639.284 215.594 635.435 214.846 631.345C214.593 629.888 214.314 628.407 214.035 626.913C211.664 614.694 208.748 602.044 208.748 602.044L252.298 573.338L366.846 560.929C366.846 560.929 370.041 585.444 374.06 612.465C374.339 614.339 374.631 616.264 374.922 618.15C378.726 643.551 383.201 669.838 386.257 679.208C392.849 699.379 392.849 759.488 394.802 790.118C396.754 820.748 394.815 854.936 394.815 854.936Z" fill="#63667E"/>
<path opacity="0.1" d="M282.143 596.751L296.558 670.256H303.404L289.712 594.193L282.143 596.751Z" fill="black"/>
<path opacity="0.1" d="M214.897 631.357C214.643 629.901 214.364 628.42 214.086 626.925C220.792 625.558 235.968 619.974 233.61 597.587H238.263C238.263 597.587 242.675 627.077 214.897 631.357Z" fill="black"/>
<path opacity="0.1" d="M374.973 618.201C366.276 619.796 339.093 624.469 333.401 621.379C326.618 617.694 319.911 597.726 319.911 597.726L326.124 596.751C326.124 596.751 320.647 626.039 374.111 612.516C374.39 614.39 374.681 616.289 374.973 618.201Z" fill="black"/>
<path d="M372.628 594.041C364.792 598.587 346.396 600.778 324.983 601.639C323.03 601.715 321.065 601.791 319.062 601.841C284.349 602.93 243.816 600.968 227.664 600.043C223.113 599.79 220.501 599.613 220.501 599.613L234.675 589.825L257.978 581.29L306.992 571.692L369.8 569.945L370.434 575.327L372.628 594.041Z" fill="#33363D"/>
<path d="M324.983 601.69C323.03 601.766 321.065 601.841 319.062 601.892C316.602 591.484 308.843 574.845 308.843 574.845L315.436 573.972L324.983 601.69Z" fill="#63667E"/>
<path d="M60.5261 623.279C60.5261 623.279 57.7876 626.444 53.5784 630.724C40.7987 643.703 14.4913 666.888 10.0032 643.057C5.35024 618.353 26.3328 602.538 35.8288 596.688C38.5166 595.029 40.2789 594.155 40.2789 594.155L60.5261 623.279Z" fill="#FFA2A2"/>
<path d="M295.835 344.2C295.835 344.2 280.989 334.894 278.225 335.767C275.461 336.641 278.225 349.126 278.225 349.126C274.645 355.949 268.983 361.457 262.06 364.853C254.124 368.996 246.441 373.605 239.049 378.655C233.327 378.097 227.551 378.741 222.093 380.544C216.634 382.348 211.614 385.271 207.353 389.126C204.375 391.127 201.005 392.473 197.466 393.075C193.928 393.678 190.301 393.523 186.827 392.621C175.315 389.43 174.745 373.729 176.342 367.765C177.61 363.08 196.805 350.924 205.071 345.859C207.353 344.466 208.799 343.618 208.799 343.618C208.799 343.618 246.098 342.352 254.517 326.46C257.107 321.549 260.968 317.421 265.699 314.507L265.914 314.393L266.979 313.76L267.322 313.57C271.24 311.413 275.551 310.062 280 309.594C298.219 321.218 295.835 344.2 295.835 344.2Z" fill="#CED7E7"/>
<path opacity="0.1" d="M295.835 344.2C295.835 344.2 280.989 334.894 278.225 335.767C275.461 336.641 278.225 349.126 278.225 349.126C274.645 355.949 268.983 361.457 262.06 364.853C254.124 368.996 246.441 373.605 239.049 378.655C233.327 378.097 227.551 378.741 222.093 380.544C216.634 382.348 211.614 385.271 207.353 389.126C204.375 391.127 201.005 392.473 197.466 393.075C193.928 393.678 190.301 393.523 186.827 392.621C175.315 389.43 174.745 373.729 176.342 367.765C177.61 363.08 196.805 350.924 205.071 345.859C207.353 344.466 208.799 343.618 208.799 343.618C208.799 343.618 246.098 342.352 254.517 326.46C257.107 321.549 260.968 317.421 265.699 314.507L265.914 314.393L266.979 313.76L267.322 313.57C271.24 311.413 275.551 310.062 280 309.594C298.219 321.218 295.835 344.2 295.835 344.2Z" fill="black"/>
<path opacity="0.1" d="M370.434 575.377C363.448 568.78 319.962 580.797 319.962 580.797C319.962 580.797 290.016 589.382 267.17 590.775C264.059 590.981 260.94 591.019 257.826 590.888C248.228 590.395 238.225 594.269 229.832 598.916L227.715 600.183C223.163 599.929 220.551 599.752 220.551 599.752L234.726 589.964L258.028 581.43L307.043 571.832L369.851 570.084L370.434 575.377Z" fill="black"/>
<path opacity="0.1" d="M53.5785 630.724C56.4818 611.401 41.4707 600.17 35.8289 596.688C38.5167 595.029 40.2789 594.155 40.2789 594.155L60.5642 623.279C60.5642 623.279 57.7877 626.444 53.5785 630.724Z" fill="black"/>
<path d="M534.643 367.474C534.643 367.474 503.569 371.273 491.157 387.632C478.745 403.992 451.93 402.371 451.93 402.371C451.93 402.371 428.627 414.781 405.337 415.553C391.505 416.009 385.052 419.478 382.111 422.226C379.719 424.525 377.112 426.59 374.326 428.393C363.753 434.952 362.092 444.258 362.814 451.438C363.72 459.968 364.165 468.54 364.146 477.117C363.867 501.176 368.063 543.139 368.063 543.139C368.063 543.139 377.382 579.594 370.383 573.009C363.385 566.425 319.911 578.429 319.911 578.429C319.911 578.429 289.965 587.014 267.119 588.419C264.008 588.622 260.889 588.656 257.775 588.521C248.177 588.027 238.174 591.901 229.781 596.561C222.559 600.63 215.804 605.475 209.635 611.009C202.206 592.611 205.299 568.945 207.734 556.713C208.871 551.065 208.575 545.224 206.872 539.72L195.651 503.784C195.651 503.784 171.195 512.116 159.544 533.832C147.892 555.548 94.6941 597.435 84.1965 600.157C79.3914 601.424 76.2979 605.159 74.3581 608.882C71.8641 613.859 68.3629 618.266 64.0761 621.823C60.1027 625.163 56.68 629.107 53.9334 633.51C60.9318 607.134 34.916 594.333 34.916 594.333C34.916 594.333 45.3883 590.838 49.6608 576.909C53.9334 562.981 73.7496 548.609 73.7496 548.609C73.7496 548.609 93.9461 512.926 105.597 507.102C117.249 501.277 138.219 473.369 138.219 473.369C142.479 441.954 162.307 425.67 162.307 425.67C162.307 425.67 184.063 416.363 186.396 408.677C187.208 406.044 189.87 401.143 193.052 395.85C196.019 390.861 199.391 385.556 202.117 381.415C204.843 377.275 206.986 374.084 206.986 374.084L241.851 373.755L248.19 373.691L266.764 338.768C266.764 338.768 273.369 332.184 284.818 339.933C288.109 342.128 292.022 343.203 295.975 342.998C301.164 342.662 306.196 341.081 310.643 338.389C354.916 326.359 373.553 349.126 373.553 349.126C373.553 349.126 404.222 346.53 405.769 349.126C407.315 351.722 423.239 349.126 423.239 349.126L465.572 344.973L530.814 334.514L534.643 367.474Z" fill="#CED7E7"/>
<path d="M279.911 355.837L260.108 388.405C260.108 388.405 206.136 427.582 213.908 396.939C215.167 391.785 215.617 386.467 215.239 381.174C215.125 379.111 214.884 377.047 214.58 375.008C213.173 366.558 210.684 358.323 207.176 350.506C206.783 349.569 206.377 348.67 205.908 347.784C205.299 346.518 204.704 345.251 204.108 344.061C201.608 339.007 198.766 334.129 195.601 329.461C195.601 329.461 254.238 281.762 256.177 311.62C256.602 318.365 258.145 324.993 260.742 331.234L261.198 332.285C264.461 339.646 269.154 346.286 275.005 351.823C276.535 353.285 278.175 354.627 279.911 355.837Z" fill="#FFA2A2"/>
<path d="M201.483 386.088L210.612 413.223L247.746 419.238L269.046 395.838C269.046 395.838 281.28 378.389 282.054 377.996C282.827 377.604 284.767 360.94 284.767 360.94L287.049 351.519L272.685 346.695L252.488 368.601L244.235 373.666L235.068 375.894L204.64 384.758L201.483 386.088Z" fill="#CED7E7"/>
<path opacity="0.1" d="M295.835 346.53C295.835 346.53 285.693 346.429 282.992 347.303C280.292 348.176 278.225 351.443 278.225 351.443C274.647 358.271 268.986 363.784 262.06 367.183C254.124 371.326 246.441 375.935 239.049 380.984C233.327 380.424 227.55 381.066 222.091 382.87C216.633 384.673 211.612 387.598 207.353 391.456C203.105 394.304 198.106 395.829 192.989 395.837C195.956 390.848 199.328 385.543 202.054 381.402C214.58 380.035 241.09 375.185 241.09 375.185L241.788 373.742C244.247 368.677 252.577 351.57 255.645 346.404C259.22 340.376 270.428 321.547 270.783 320.952L259.778 331.006L265.661 316.85L265.876 316.736L266.941 316.103L267.284 315.913C271.202 313.756 275.513 312.404 279.962 311.937C293.845 320.8 295.823 336.122 295.975 343.023C295.995 344.194 295.948 345.365 295.835 346.53Z" fill="black"/>
<path opacity="0.1" d="M205.033 343.542L207.911 349.873C207.911 349.873 207.67 350.076 207.163 350.456C206.77 349.519 206.364 348.62 205.895 347.733C205.287 346.467 204.691 345.201 204.095 344.01C204.399 343.833 204.678 343.643 204.957 343.491L205.033 343.542Z" fill="black"/>
<path opacity="0.1" d="M275.055 351.823C271.562 356.299 267.126 359.952 262.06 362.523C254.123 366.668 246.439 371.281 239.049 376.337C230.806 375.523 222.509 377.209 215.239 381.175C215.125 379.111 214.884 377.047 214.58 375.008C227.055 373.083 241.09 370.513 241.09 370.513C241.09 370.513 252.019 347.835 255.645 341.731C256.913 339.68 258.992 336.097 261.249 332.285C264.512 339.646 269.205 346.286 275.055 351.823Z" fill="black"/>
<path d="M295.835 344.201C295.835 344.201 285.693 344.099 282.979 344.973C280.266 345.847 278.225 349.126 278.225 349.126C274.645 355.949 268.983 361.457 262.06 364.853C254.124 368.997 246.44 373.605 239.049 378.655C233.327 378.097 227.551 378.741 222.093 380.544C216.634 382.348 211.614 385.271 207.353 389.127C204.375 391.127 201.005 392.473 197.466 393.075C193.928 393.678 190.301 393.523 186.827 392.621C175.315 389.43 174.745 373.729 176.342 367.765C177.61 363.08 196.805 350.924 205.071 345.859L207.949 352.254C201.953 356.844 195.674 361.052 189.147 364.853C176.761 372.26 183.024 380.263 183.024 380.263C187.481 379.492 192.007 379.195 196.526 379.377C202.941 379.807 241.09 372.83 241.09 372.83C241.09 372.83 252.019 350.139 255.645 344.049C259.271 337.958 270.428 319.192 270.783 318.597L259.778 328.727L265.661 314.571L265.876 314.457L266.941 313.824L267.284 313.634C271.202 311.477 275.513 310.125 279.962 309.658C298.219 321.218 295.835 344.201 295.835 344.201Z" fill="#CED7E7"/>
<path opacity="0.1" d="M260.792 331.259C255.089 340.063 246.439 346.557 236.387 349.583C226.335 352.61 215.533 351.972 205.908 347.784C202.979 341.406 199.531 335.278 195.601 329.461C195.601 329.461 254.238 281.762 256.177 311.62C256.616 318.377 258.175 325.014 260.792 331.259Z" fill="black"/>
<path d="M266.764 304.909C266.764 306.015 266.726 307.104 266.65 308.176C265.816 319.759 260.464 330.552 251.745 338.234C243.026 345.916 231.636 349.873 220.025 349.254C208.415 348.635 197.511 343.49 189.66 334.925C181.809 326.36 177.638 315.059 178.043 303.454C178.448 291.848 183.398 280.866 191.828 272.868C200.257 264.87 211.493 260.496 223.119 260.686C234.744 260.877 245.83 265.617 253.992 273.888C262.154 282.158 266.74 293.297 266.764 304.909Z" fill="#FFA2A2"/>
<path opacity="0.1" d="M151.784 447.361C151.784 447.361 161.534 465.582 173.528 475.61C185.521 485.639 192.545 501.214 192.545 501.214C192.545 501.214 189.059 471.014 151.784 447.361Z" fill="black"/>
<path opacity="0.1" d="M136.634 493.122C136.634 493.122 170.865 484.588 188.095 493.122H136.634Z" fill="black"/>
<path opacity="0.1" d="M124.209 543.987L161.04 531.325C161.04 531.325 137.445 548.191 124.209 543.987Z" fill="black"/>
<path opacity="0.1" d="M60.5261 593.56C60.5261 593.56 76.4501 592.788 81.496 597.827C81.496 597.827 65.9651 598.992 60.5261 593.56Z" fill="black"/>
<path opacity="0.1" d="M432.101 348.24C432.101 348.24 396.399 369.411 394.814 403.536L432.101 348.24Z" fill="black"/>
<path opacity="0.1" d="M475.233 380.263C475.233 380.263 430.96 389.19 423.582 393.837C416.203 398.484 400.292 400.814 400.292 400.814C400.292 400.814 464.355 392.292 475.233 380.263Z" fill="black"/>
<path opacity="0.1" d="M345.369 567.425C342.149 570.768 302.402 580.189 266.878 588.065C263.654 588.277 260.42 588.316 257.192 588.179C247.239 587.672 236.906 591.661 228.158 596.447C217.433 598.726 210.498 600.157 210.498 600.157C210.498 600.157 198.821 590.964 214.922 570.211C231.024 549.457 233.851 516.712 233.851 516.712L305.534 498.402C305.534 498.402 324.868 524.993 334.124 529.261C343.379 533.528 351.328 561.271 345.369 567.425Z" fill="black"/>
<path d="M342.834 568.349C339.715 571.616 301.388 580.759 267.132 588.419C264.021 588.622 260.902 588.656 257.788 588.52C248.19 588.027 238.187 591.901 229.794 596.561C219.448 598.764 212.754 600.157 212.754 600.157C212.754 600.157 201.496 591.23 217.027 571.034C232.558 550.837 235.271 519.055 235.271 519.055L304.393 501.226C304.393 501.226 323.03 527.057 331.956 531.211C340.881 535.364 348.539 562.385 342.834 568.349Z" fill="#CED7E7"/>
<path opacity="0.1" d="M286.719 822.559L266.764 834.36C265.591 829.946 264.698 825.463 264.089 820.938C266.992 823.356 286.719 822.559 286.719 822.559Z" fill="black"/>
<path opacity="0.1" d="M267.854 838.437C274.903 837.095 291.639 833.752 300.818 830.612C292.501 834.664 277.452 841.438 268.906 842.008C268.513 840.83 268.184 839.615 267.854 838.437Z" fill="black"/>
<path opacity="0.1" d="M306.7 827.624C305.965 828.523 303.81 829.536 300.83 830.561C304.393 828.89 306.7 827.624 306.7 827.624Z" fill="black"/>
<path opacity="0.1" d="M318.745 925.124C313.09 925.592 303.899 924.833 298.46 924.275L296.609 919.135C302.428 919.755 313.978 920.73 318.745 919.312C325.249 917.387 327.201 924.453 318.745 925.124Z" fill="black"/>
<path opacity="0.1" d="M369.268 822.065C368.33 821.938 353.242 820.241 343.531 820.191C343.531 816.873 343.696 813.86 343.886 811.416C350.58 814.24 368.266 821.723 369.268 822.065Z" fill="black"/>
<path d="M358.162 988.828C356.412 996.033 328.165 994.767 328.165 994.767L325.832 997.856C325.832 997.856 314.967 1001.83 306.815 999.502C298.662 997.172 273.851 997.666 273.851 997.666V989.702C273.851 979.331 285.502 975.938 285.502 975.938C285.502 975.938 295.303 967.796 298.7 959.553C300.819 954.45 303.28 949.496 306.067 944.725C306.067 944.725 296.951 933.671 321.407 930.796C345.496 928.011 336.051 949.853 335.784 950.461C336.177 950.107 345.217 941.99 350.238 944.548C353.864 946.409 357.147 964.035 358.174 976.799C358.643 982.218 358.669 986.713 358.162 988.828Z" fill="#CED7E7"/>
<path opacity="0.1" d="M358.162 988.828C356.412 996.033 328.165 994.767 328.165 994.767L325.832 997.856C325.832 997.856 314.967 1001.83 306.815 999.502C298.662 997.173 273.851 997.666 273.851 997.666V990.069C288.786 990.803 318.681 991.791 325.401 988.334C325.401 988.334 333.452 986.296 335.303 984.941C336.862 983.788 353.268 978.432 358.124 976.849C358.643 982.218 358.669 986.713 358.162 988.828Z" fill="black"/>
<path d="M419.994 989.626C394.269 992.437 380.868 986.219 380.868 986.219C378.738 984.915 376.915 983.166 375.526 981.092C374.136 979.017 373.212 976.667 372.818 974.203C371.461 965.77 358.542 957.248 358.542 957.248C358.542 957.248 342.631 958.793 340.678 954.133C340.209 952.156 340.03 950.122 340.146 948.093C340.146 935.596 343.277 909.347 346.891 909.727C351.151 910.195 364.323 927.618 365.642 929.366C364.488 927.492 353.027 907.979 378.447 905.662C378.447 905.662 399.214 893.937 397.084 921.275L405.819 940.078C405.819 940.078 423.011 965.403 427.271 964.516C429.312 964.098 433.61 969.163 434.751 974.887C435.981 981.129 433.433 988.157 419.994 989.626Z" fill="#CED7E7"/>
<path opacity="0.1" d="M266.764 304.909C266.764 306.015 266.726 307.104 266.65 308.176L265.572 308.582L261.401 310.101C260.698 310.402 259.946 310.574 259.182 310.608C258.586 310.583 258.003 310.423 257.478 310.14C256.953 309.857 256.5 309.458 256.152 308.974C255.552 308.058 255.122 307.042 254.884 305.973L251.727 293.855C251.093 291.449 250.117 288.676 247.417 287.777C246.628 287.605 245.853 287.376 245.097 287.094C243.41 286.296 243.055 284.422 242.485 282.852C241.217 279.192 237.832 276.267 234.168 273.988C231.691 272.256 228.748 271.312 225.724 271.278C224.105 271.303 222.54 271.865 221.274 272.874C218.624 275.115 218.992 278.141 219.309 281.332C219.626 284.523 220.475 287.929 219.537 291.12C218.903 293.197 217.547 295.134 217.306 297.287C217.103 299.021 217.673 300.782 217.572 302.516C217.552 303.453 217.216 304.356 216.617 305.078C216.019 305.8 215.194 306.298 214.276 306.492C214.111 305.441 212.577 305.099 211.55 304.53C209.23 303.263 209.103 300.503 209.204 298.198C209.382 294.754 209.547 291.297 209.712 287.853C208.687 295.557 207.098 303.174 204.957 310.646C204.694 311.944 204.09 313.15 203.208 314.14C202.688 314.657 202.025 315.007 201.304 315.145C200.583 315.283 199.838 315.202 199.163 314.913C198.379 314.418 197.798 313.659 197.528 312.773C195.908 308.761 195.349 304.4 195.905 300.11C194.498 305.72 193.09 311.393 190.377 316.66C189.3 318.749 187.664 321.016 185.014 321.434C184.206 321.459 183.404 321.591 182.631 321.826C182.322 321.973 182.043 322.175 181.807 322.421C179.223 316.397 178.013 309.875 178.264 303.326C178.515 296.777 180.221 290.366 183.258 284.557C186.295 278.748 190.587 273.686 195.824 269.737C201.061 265.788 207.112 263.052 213.538 261.726C219.964 260.401 226.605 260.519 232.98 262.072C239.354 263.625 245.304 266.574 250.397 270.706C255.49 274.838 259.6 280.049 262.428 285.962C265.257 291.876 266.733 298.343 266.751 304.897L266.764 304.909Z" fill="black"/>
<path d="M221.274 270.607C222.537 269.591 224.103 269.025 225.724 268.999C228.747 269.036 231.689 269.98 234.168 271.709C237.832 273.937 241.166 276.85 242.485 280.572C243.055 282.142 243.398 284.029 245.021 284.827C245.78 285.096 246.555 285.32 247.341 285.498C250.054 286.397 251.03 289.17 251.651 291.576L254.834 303.694C255.04 304.761 255.449 305.78 256.038 306.695C256.384 307.181 256.838 307.582 257.363 307.868C257.888 308.153 258.471 308.315 259.068 308.341C259.838 308.307 260.594 308.131 261.299 307.822L265.471 306.302C267.664 305.504 270.047 304.555 271.049 302.706C271.574 301.513 271.75 300.196 271.556 298.907C271.313 295.039 270.77 291.195 269.933 287.41L274.726 290.664C275.879 291.437 277.325 292.26 278.694 291.829C279.139 291.663 279.539 291.396 279.863 291.049C280.186 290.701 280.424 290.284 280.558 289.828C281.42 287.448 280.799 284.599 282.599 282.636C283.03 282.18 283.563 281.788 283.943 281.307C285.578 279.205 283.639 276.356 284.311 273.899C284.958 274.154 285.671 274.189 286.34 273.999C287.009 273.809 287.596 273.405 288.013 272.848C288.671 271.786 288.994 270.551 288.938 269.303C289.318 262.149 289.496 254.399 284.589 248.575C285.49 242.725 279.277 236.355 272.406 235.558C270.694 235.355 268.602 235.254 267.854 233.95C267.589 233.322 267.471 232.642 267.512 231.962C267.334 229.746 265.851 227.77 264.418 225.909C263.846 225.088 263.144 224.365 262.339 223.769C260.07 222.275 256.837 222.68 254.022 223.187C248.858 224.107 243.727 225.141 238.631 226.289C238.033 223.787 238.072 221.175 238.745 218.691C239.265 216.817 240.152 214.893 239.189 213.019C238.944 212.55 238.581 212.154 238.137 211.868C237.692 211.581 237.181 211.415 236.653 211.385C235.982 211.368 235.321 211.547 234.751 211.9C234.181 212.253 233.727 212.765 233.445 213.373C230.526 217.734 228.508 222.633 227.512 227.783C225.596 226.429 223.37 225.581 221.038 225.315C218.707 225.049 216.346 225.376 214.174 226.263C213.078 226.879 211.887 227.307 210.65 227.53C209.619 227.515 208.609 227.234 207.72 226.712C206.831 226.19 206.093 225.447 205.578 224.554C204.184 222.401 203.55 219.844 200.837 218.438C200.233 218.12 199.561 217.954 198.878 217.954C198.195 217.954 197.523 218.12 196.919 218.438C193.331 220.527 197.807 225.706 195.144 228.429C194.405 229.064 193.542 229.538 192.609 229.822L185.952 232.265C182.404 233.779 178.639 234.724 174.796 235.064C170.384 235.241 165.921 233.886 161.585 234.798C163.328 236.781 165.645 238.174 168.216 238.787C169.788 239.179 171.448 239.306 172.983 239.812C173.726 239.978 174.416 240.329 174.986 240.834C175.556 241.34 175.988 241.981 176.241 242.699C176.583 244.485 174.859 246.207 175.201 247.992C175.462 248.758 175.989 249.406 176.687 249.817C177.385 250.229 178.207 250.376 179.005 250.233L171.132 255.298C169.712 256.21 168.127 257.539 168.659 258.983L171.195 259.717L164.361 269.505C163.474 270.498 162.966 271.771 162.929 273.102C162.995 273.442 163.131 273.766 163.328 274.052C163.525 274.338 163.779 274.581 164.074 274.765C164.369 274.949 164.698 275.071 165.042 275.122C165.386 275.174 165.737 275.154 166.073 275.064C164.435 276.767 163.144 278.771 162.269 280.965C162.11 281.252 162.022 281.573 162.011 281.901C162 282.228 162.067 282.554 162.206 282.851C162.507 283.177 162.881 283.426 163.298 283.578C163.715 283.73 164.162 283.78 164.602 283.725C168.279 283.725 171.689 281.193 172.209 278.065C173.338 279.331 172.133 280.826 171.055 282.104C166.732 287.296 162.32 292.589 160.025 298.641C157.731 304.694 157.832 311.76 162.13 316.964C163.081 317.971 163.931 319.069 164.666 320.243C166.035 322.852 165.249 326.195 167.379 328.411C169.091 323.723 171.168 319.176 173.591 314.811C173.454 316.346 173.23 317.873 172.919 319.382C172.817 320.182 172.972 320.993 173.362 321.698C173.751 322.404 174.356 322.968 175.087 323.308C177.319 324.118 179.639 322.383 181.097 320.775C181.459 320.297 181.922 319.904 182.453 319.623C183.224 319.393 184.02 319.261 184.824 319.23C187.474 318.813 189.097 316.559 190.187 314.457C192.9 309.202 194.32 303.529 195.715 297.894C195.155 302.185 195.718 306.548 197.35 310.557C197.612 311.444 198.189 312.204 198.973 312.697C199.649 312.981 200.395 313.058 201.115 312.918C201.835 312.778 202.497 312.428 203.017 311.912C203.902 310.923 204.506 309.717 204.767 308.417C206.903 300.945 208.492 293.327 209.521 285.625L209.014 295.97C208.9 298.3 209.014 301.035 211.347 302.301C212.399 302.871 213.883 303.213 214.086 304.251C215.004 304.065 215.832 303.571 216.429 302.849C217.027 302.128 217.359 301.224 217.369 300.288C217.483 298.54 216.913 296.793 217.116 295.045C217.357 292.905 218.726 290.968 219.347 288.879C220.285 285.701 219.461 282.37 219.119 279.103C218.777 275.837 218.586 272.836 221.274 270.607Z" fill="#896363"/>
<path opacity="0.1" d="M419.994 989.626C394.269 992.437 380.868 986.219 380.868 986.219C378.738 984.915 376.915 983.166 375.526 981.092C374.136 979.017 373.212 976.667 372.818 974.203C371.461 965.77 358.542 957.248 358.542 957.248C358.542 957.248 342.631 958.793 340.678 954.133C340.209 952.156 340.03 950.122 340.146 948.093C346.028 949.499 359.582 952.728 363.778 953.931C369.23 955.475 385.154 981.269 385.154 981.269C400.482 989.322 425.851 978.989 434.751 974.937C435.981 981.129 433.433 988.157 419.994 989.626Z" fill="black"/>
<path opacity="0.1" d="M306.067 944.725C306.067 944.725 298.231 956.729 335.784 950.524L306.067 944.725Z" fill="black"/>
<path opacity="0.1" d="M365.654 929.366C365.654 929.366 405.261 937.963 397.097 921.274L365.654 929.366Z" fill="black"/>
<g opacity="0.1">
<path opacity="0.1" d="M175.48 245.839C175.263 246.399 175.193 247.005 175.277 247.599C175.443 248.283 175.871 248.874 176.469 249.246L179.144 247.523C178.434 247.649 177.703 247.555 177.048 247.254C176.393 246.953 175.846 246.459 175.48 245.839Z" fill="black"/>
<path opacity="0.1" d="M168.228 238.406C169.813 238.799 171.474 238.926 173.008 239.432C174.289 239.772 175.386 240.599 176.063 241.737C176.281 241.182 176.351 240.579 176.266 239.989C176.013 239.271 175.581 238.63 175.011 238.125C174.441 237.619 173.752 237.268 173.008 237.102C171.474 236.596 169.813 236.469 168.228 236.077C166.684 235.691 165.22 235.035 163.905 234.139C163.134 234.169 162.366 234.262 161.61 234.418C163.351 236.398 165.663 237.791 168.228 238.406Z" fill="black"/>
<path opacity="0.1" d="M173.781 312.101C171.355 316.466 169.273 321.013 167.556 325.701C165.439 323.485 166.212 320.142 164.843 317.534C164.113 316.356 163.263 315.257 162.307 314.254C160.147 311.606 158.898 308.334 158.745 304.922C158.394 309.121 159.669 313.295 162.307 316.584C163.263 317.587 164.113 318.686 164.843 319.863C166.212 322.472 165.439 325.802 167.556 328.031C169.168 323.647 171.096 319.385 173.325 315.28C173.602 314.242 173.756 313.175 173.781 312.101Z" fill="black"/>
<path opacity="0.1" d="M163.296 271.126C163.071 271.626 162.98 272.176 163.03 272.722C163.103 273.11 163.266 273.476 163.506 273.791C163.746 274.105 164.056 274.359 164.412 274.532C164.942 273.761 165.531 273.033 166.174 272.354C165.627 272.52 165.038 272.488 164.511 272.263C163.985 272.039 163.555 271.636 163.296 271.126Z" fill="black"/>
<path opacity="0.1" d="M238.339 221.249C238.394 220.256 238.551 219.272 238.808 218.311C239.265 216.691 239.975 215.045 239.531 213.398C239.353 214.259 239.049 215.133 238.808 215.931C238.337 217.662 238.178 219.463 238.339 221.249Z" fill="black"/>
<path opacity="0.1" d="M195.639 219.831C195.497 221.304 195.612 222.791 195.981 224.225C196.127 222.751 196.011 221.264 195.639 219.831Z" fill="black"/>
<path opacity="0.1" d="M172.349 275.355C171.778 278.432 168.355 280.952 164.742 281.015C163.942 281.079 163.148 280.834 162.523 280.332L162.409 280.585C162.251 280.872 162.161 281.192 162.148 281.519C162.135 281.847 162.198 282.173 162.333 282.472C162.638 282.795 163.015 283.042 163.434 283.191C163.852 283.341 164.301 283.389 164.742 283.333C166.238 283.307 167.702 282.893 168.989 282.13C169.737 281.205 170.498 280.294 171.246 279.395C171.642 278.939 172.006 278.457 172.336 277.951C172.363 277.864 172.384 277.775 172.399 277.685V277.749C172.667 277.404 172.808 276.979 172.799 276.543C172.79 276.107 172.631 275.688 172.349 275.355Z" fill="black"/>
<path opacity="0.1" d="M169.357 256.45C169.063 256.716 168.849 257.058 168.742 257.439C168.634 257.82 168.636 258.223 168.748 258.603L169.94 258.945L171.284 257.008L169.357 256.45Z" fill="black"/>
<path opacity="0.1" d="M284.006 278.673C283.626 279.154 283.094 279.547 282.662 279.939C280.849 281.902 281.483 284.751 280.621 287.131C280.486 287.586 280.247 288.003 279.924 288.35C279.601 288.697 279.201 288.964 278.758 289.132C277.388 289.563 275.943 288.739 274.789 287.967L269.997 284.713C270.187 285.599 270.364 286.498 270.529 287.397L274.789 290.284C275.943 291.069 277.388 291.892 278.758 291.462C279.2 291.293 279.599 291.024 279.922 290.678C280.245 290.331 280.484 289.915 280.621 289.461C281.483 287.081 280.849 284.232 282.662 282.269C283.094 281.801 283.626 281.421 284.006 280.94C284.339 280.428 284.56 279.853 284.654 279.25C284.748 278.648 284.713 278.033 284.551 277.445C284.466 277.89 284.28 278.311 284.006 278.673Z" fill="black"/>
<path opacity="0.1" d="M271.594 298.337C271.541 298.916 271.378 299.479 271.113 299.996C270.111 301.845 267.727 302.795 265.521 303.592L261.363 305.112C260.656 305.415 259.9 305.591 259.132 305.631C258.534 305.605 257.951 305.443 257.426 305.158C256.901 304.872 256.448 304.471 256.101 303.985C255.497 303.071 255.067 302.054 254.834 300.984L251.664 288.866C251.03 286.46 250.067 283.687 247.353 282.788C246.567 282.611 245.793 282.387 245.033 282.117C243.347 281.307 242.992 279.433 242.498 277.862C241.23 274.19 237.845 271.278 234.181 268.999C231.701 267.272 228.76 266.329 225.737 266.289C224.115 266.313 222.548 266.879 221.287 267.897C219.17 269.683 218.979 271.974 219.144 274.456C219.193 273.641 219.408 272.844 219.776 272.114C220.145 271.385 220.659 270.738 221.287 270.214C222.554 269.207 224.117 268.642 225.737 268.606C228.758 268.657 231.696 269.6 234.181 271.316C237.845 273.557 241.179 276.47 242.498 280.18C243.055 281.75 243.41 283.624 245.033 284.434C245.793 284.704 246.567 284.928 247.353 285.105C250.067 286.004 251.03 288.777 251.664 291.183L254.834 303.288C255.064 304.36 255.494 305.378 256.101 306.289C256.445 306.78 256.897 307.184 257.423 307.472C257.948 307.759 258.533 307.922 259.132 307.948C259.899 307.902 260.654 307.727 261.363 307.429L265.496 305.935C267.702 305.137 270.086 304.188 271.087 302.339C271.613 301.146 271.788 299.829 271.594 298.54C271.607 298.515 271.607 298.439 271.594 298.337Z" fill="black"/>
<path opacity="0.1" d="M289.002 266.682C289.057 267.93 288.735 269.165 288.076 270.227C287.66 270.784 287.072 271.188 286.403 271.378C285.734 271.568 285.021 271.533 284.374 271.278C284.192 272.113 284.192 272.976 284.374 273.811V273.633C285.021 273.888 285.734 273.923 286.403 273.733C287.072 273.543 287.66 273.139 288.076 272.582C288.733 271.52 289.056 270.285 289.002 269.037C289.116 266.973 289.204 264.858 289.154 262.769C289.128 264.048 289.065 265.415 289.002 266.682Z" fill="black"/>
<path opacity="0.1" d="M195.905 295.147C194.717 300.864 192.862 306.423 190.377 311.709C189.287 313.811 187.664 316.065 185.002 316.483C184.198 316.515 183.402 316.647 182.631 316.875C182.106 317.159 181.648 317.552 181.287 318.027C179.829 319.674 177.483 321.408 175.277 320.56C174.754 320.357 174.292 320.023 173.935 319.591C173.577 319.159 173.337 318.642 173.236 318.091C173.236 318.395 173.135 318.686 173.109 318.977C172.996 319.776 173.146 320.59 173.537 321.296C173.928 322.002 174.539 322.562 175.277 322.89C177.509 323.713 179.829 321.965 181.287 320.357C181.652 319.889 182.109 319.501 182.631 319.218C183.399 318.978 184.197 318.845 185.002 318.825C187.664 318.407 189.287 316.153 190.377 314.051C192.751 309.037 194.534 303.763 195.689 298.337C195.691 297.27 195.763 296.204 195.905 295.147Z" fill="black"/>
<path opacity="0.1" d="M209.712 282.915C208.682 290.617 207.093 298.235 204.957 305.707C204.697 307.01 204.088 308.217 203.195 309.202C202.675 309.72 202.013 310.071 201.293 310.211C200.572 310.35 199.826 310.273 199.151 309.987C198.376 309.488 197.805 308.729 197.54 307.847C196.492 305.218 195.892 302.431 195.765 299.604C195.601 303.217 196.219 306.824 197.578 310.177C197.842 311.063 198.413 311.826 199.189 312.329C199.865 312.612 200.61 312.688 201.33 312.548C202.049 312.408 202.712 312.059 203.233 311.544C204.124 310.559 204.733 309.351 204.995 308.049C207.025 300.943 208.559 293.703 209.585 286.384L209.712 282.915Z" fill="black"/>
<path opacity="0.1" d="M219.525 286.207C218.903 288.296 217.547 290.221 217.306 292.373C217.223 293.067 217.223 293.769 217.306 294.463C217.61 292.411 218.891 290.55 219.487 288.537C219.889 287.066 220.022 285.535 219.88 284.016C219.836 284.757 219.717 285.491 219.525 286.207Z" fill="black"/>
<path opacity="0.1" d="M214.276 301.579C214.098 300.541 212.577 300.199 211.537 299.629C210.814 299.163 210.222 298.521 209.816 297.763C209.411 297.006 209.204 296.157 209.217 295.298V295.59C209.103 297.919 209.217 300.655 211.55 301.921C212.59 302.491 214.086 302.82 214.288 303.871C215.206 303.678 216.031 303.18 216.628 302.457C217.225 301.735 217.558 300.831 217.572 299.895C217.602 299.295 217.58 298.693 217.509 298.097C217.415 298.947 217.05 299.744 216.468 300.371C215.886 300.998 215.117 301.421 214.276 301.579Z" fill="black"/>
</g>
<path d="M609.458 1012H461.769C460.025 1012 458.3 1011.64 456.709 1010.93C455.117 1010.21 453.694 1009.17 452.534 1007.87C451.375 1006.57 450.504 1005.04 449.981 1003.38C449.457 1001.72 449.292 999.966 449.496 998.236L485.452 693.073L486.2 686.628C486.554 683.629 487.997 680.863 490.257 678.856C492.517 676.849 495.435 675.74 498.46 675.739H576C579.046 675.74 581.984 676.866 584.249 678.899C586.514 680.932 587.947 683.73 588.273 686.755L588.919 692.871L621.756 998.35C621.941 1000.07 621.761 1001.81 621.227 1003.46C620.693 1005.11 619.818 1006.63 618.657 1007.92C617.497 1009.2 616.078 1010.23 614.493 1010.94C612.908 1011.64 611.193 1012 609.458 1012Z" fill="#4E5A86"/>
<path opacity="0.1" d="M495.645 712.232C495.645 712.232 501.071 850.669 480.114 903.433C480.114 903.433 482.295 914.677 488.19 903.433C494.085 892.189 514.282 775.062 504.57 714.182C504.57 714.169 502.58 707.572 495.645 712.232Z" fill="black"/>
<path opacity="0.1" d="M521.661 712.232C521.661 712.232 527.087 850.669 506.13 903.433C506.13 903.433 508.311 914.677 514.206 903.433C520.101 892.189 540.298 775.062 530.586 714.182C530.586 714.169 528.647 707.572 521.661 712.232Z" fill="black"/>
<path opacity="0.1" d="M584.989 712.232C584.989 712.232 579.55 850.669 600.52 903.433C600.52 903.433 598.326 914.677 592.431 903.433C586.536 892.189 566.314 775.05 576.013 714.169C576.013 714.169 577.965 707.572 584.989 712.232Z" fill="black"/>
<path opacity="0.1" d="M558.935 712.232C558.935 712.232 553.496 850.669 574.466 903.433C574.466 903.433 572.273 914.677 566.377 903.433C560.482 892.189 540.298 775.05 549.997 714.169C549.997 714.169 551.949 707.572 558.935 712.232Z" fill="black"/>
<path d="M571.791 24.5902H501.604V636.219H571.791V24.5902Z" fill="#4E5A86"/>
<path opacity="0.1" d="M588.919 692.909C588.129 693.119 587.315 693.225 586.497 693.226H486.91C486.421 693.226 485.934 693.188 485.452 693.112L486.2 686.666C486.554 683.667 487.997 680.901 490.257 678.894C492.517 676.887 495.435 675.778 498.459 675.777H576C579.046 675.778 581.984 676.904 584.249 678.937C586.514 680.971 587.947 683.768 588.272 686.793L588.919 692.909Z" fill="black"/>
<path opacity="0.1" d="M572.513 624H501.604V636.22H572.513V624Z" fill="black"/>
<path d="M585.674 626.33H487.721C482.119 626.33 477.578 630.866 477.578 636.46V680.766C477.578 686.36 482.119 690.896 487.721 690.896H585.674C591.275 690.896 595.816 686.36 595.816 680.766V636.46C595.816 630.866 591.275 626.33 585.674 626.33Z" fill="#4E5A86"/>
<path opacity="0.1" d="M516.412 24.5902H506.32V607.134H516.412V24.5902Z" fill="black"/>
<path opacity="0.1" d="M533.299 24.5902H523.208V607.134H533.299V24.5902Z" fill="black"/>
<path opacity="0.1" d="M550.187 24.5902H540.095V607.134H550.187V24.5902Z" fill="black"/>
<path opacity="0.1" d="M567.087 24.5902H556.995V607.134H567.087V24.5902Z" fill="black"/>
<path d="M576.177 316.622C576.177 316.622 553.078 309.442 556.577 334.843C560.076 360.244 569.002 361.801 569.002 361.801C569.002 361.801 576.761 360.054 577.737 349.975C578.713 339.895 576.177 316.622 576.177 316.622Z" fill="#FFA2A2"/>
<g opacity="0.1">
<path opacity="0.1" d="M566.035 771.91C566.035 771.91 644.108 573.111 793.369 497.909C856.025 466.354 907.55 416.363 938.726 353.558C953.466 323.75 965.442 292.657 974.504 260.667" stroke="#535461" stroke-width="2" stroke-miterlimit="10"/>
<path opacity="0.1" d="M893.794 554.383C869.109 549.571 806.314 490.97 806.314 490.97C806.314 490.97 886.605 460.327 911.277 465.151C917.144 466.297 922.727 468.585 927.708 471.886C932.688 475.187 936.97 479.435 940.307 484.388C943.644 489.341 945.971 494.902 947.156 500.754C948.341 506.605 948.361 512.632 947.214 518.491C946.067 524.35 943.775 529.926 940.471 534.901C937.166 539.876 932.912 544.151 927.953 547.484C922.994 550.817 917.426 553.142 911.567 554.325C905.708 555.509 899.673 555.529 893.807 554.383H893.794Z" fill="#FFE01B"/>
<path opacity="0.1" d="M749.718 669.636C724.589 669.053 652.767 621.899 652.767 621.899C652.767 621.899 726.707 578.15 751.848 578.733C757.824 578.872 763.714 580.186 769.182 582.599C774.65 585.013 779.588 588.478 783.715 592.797C787.842 597.116 791.077 602.205 793.235 607.773C795.393 613.341 796.431 619.279 796.291 625.248C796.152 631.216 794.836 637.099 792.42 642.56C790.004 648.021 786.534 652.953 782.209 657.075C777.884 661.197 772.789 664.428 767.214 666.583C761.639 668.738 755.694 669.775 749.718 669.636Z" fill="#FFE01B"/>
<path opacity="0.1" d="M689.496 440.244C700.285 462.948 772.627 509.178 772.627 509.178C772.627 509.178 782.466 423.897 771.664 401.219C769.098 395.827 765.494 390.993 761.058 386.992C756.622 382.992 751.44 379.903 745.808 377.902C740.177 375.901 734.206 375.028 728.236 375.332C722.267 375.636 716.416 377.112 711.017 379.674C705.619 382.237 700.778 385.836 696.773 390.267C692.767 394.697 689.674 399.873 687.671 405.497C685.668 411.122 684.793 417.085 685.098 423.047C685.402 429.009 686.88 434.853 689.445 440.244H689.496Z" fill="#FFE01B"/>
<path opacity="0.1" d="M545.686 595.535C552.482 619.708 616.025 677.524 616.025 677.524C616.025 677.524 640.114 595.13 633.344 570.958C629.948 559.501 622.174 549.839 611.701 544.062C601.229 538.284 588.901 536.856 577.383 540.086C565.865 543.315 556.082 550.943 550.15 561.319C544.219 571.696 542.615 583.987 545.686 595.535Z" fill="#FFE01B"/>
</g>
<g opacity="0.1">
<path opacity="0.1" d="M553.116 413.843C553.116 413.843 581.325 342.01 635.246 314.862C657.937 303.612 676.363 285.315 687.759 262.718C693.087 251.951 697.416 240.719 700.691 229.163" stroke="#535461" stroke-width="2" stroke-miterlimit="10"/>
<path opacity="0.1" d="M734.593 211.854C729.014 219.02 699.879 229.72 699.879 229.72C699.879 229.72 703.036 198.875 708.615 191.733C709.868 189.847 711.498 188.239 713.401 187.01C715.305 185.781 717.442 184.958 719.679 184.591C721.916 184.225 724.204 184.323 726.401 184.88C728.598 185.437 730.657 186.44 732.448 187.827C734.239 189.215 735.725 190.956 736.811 192.943C737.898 194.929 738.563 197.119 738.764 199.374C738.966 201.628 738.699 203.901 737.981 206.048C737.263 208.195 736.11 210.172 734.593 211.854Z" fill="#FFE01B"/>
<path opacity="0.1" d="M725.185 268.188C716.615 271.177 686.326 264.39 686.326 264.39C686.326 264.39 705.762 240.204 714.333 237.216C716.409 236.333 718.644 235.886 720.9 235.901C723.157 235.916 725.386 236.394 727.45 237.304C729.514 238.215 731.369 239.539 732.899 241.195C734.43 242.851 735.604 244.803 736.348 246.93C737.093 249.057 737.392 251.315 737.227 253.562C737.063 255.81 736.438 258 735.391 259.996C734.345 261.993 732.899 263.753 731.143 265.169C729.388 266.585 727.36 267.625 725.185 268.226V268.188Z" fill="#FFE01B"/>
<path opacity="0.1" d="M671.518 335.286C662.643 333.539 639.924 312.367 639.924 312.367C639.924 312.367 668.919 301.3 677.832 303.048C680.067 303.339 682.218 304.084 684.153 305.238C686.087 306.393 687.765 307.931 689.081 309.758C690.397 311.585 691.323 313.662 691.804 315.861C692.284 318.06 692.308 320.334 691.874 322.543C691.44 324.751 690.557 326.847 689.279 328.702C688.002 330.556 686.357 332.129 684.447 333.323C682.537 334.517 680.402 335.308 678.174 335.645C675.945 335.983 673.672 335.861 671.493 335.286H671.518Z" fill="#FFE01B"/>
<path opacity="0.1" d="M619.474 376.92C610.396 376.705 584.456 359.674 584.456 359.674C584.456 359.674 611.17 343.858 620.247 344.074C624.421 344.438 628.299 346.377 631.092 349.495C633.886 352.613 635.386 356.676 635.288 360.859C635.189 365.042 633.5 369.031 630.562 372.014C627.625 374.997 623.66 376.752 619.474 376.92Z" fill="#FFE01B"/>
<path opacity="0.1" d="M657.965 244.586C659.233 253.563 679.188 277.33 679.188 277.33C679.188 277.33 691.867 248.992 690.599 240.015C690.434 237.767 689.809 235.576 688.762 233.58C687.715 231.583 686.269 229.822 684.513 228.406C682.757 226.991 680.728 225.95 678.553 225.35C676.378 224.749 674.102 224.601 671.868 224.915C669.633 225.228 667.486 225.997 665.561 227.173C663.636 228.349 661.973 229.908 660.676 231.752C659.378 233.596 658.474 235.687 658.018 237.894C657.563 240.102 657.566 242.379 658.028 244.586H657.965Z" fill="#FFE01B"/>
<path opacity="0.1" d="M597.667 294.045C601.572 302.237 627.727 318.952 627.727 318.952C627.727 318.952 631.277 288.144 627.372 279.952C625.327 276.315 621.975 273.59 617.995 272.327C614.015 271.063 609.703 271.356 605.931 273.146C602.159 274.936 599.208 278.089 597.674 281.968C596.14 285.847 596.137 290.164 597.667 294.045Z" fill="#FFE01B"/>
<path opacity="0.1" d="M545.762 350.152C548.222 358.876 571.119 379.769 571.119 379.769C571.119 379.769 579.917 350 577.382 341.263C576.896 339.079 575.97 337.017 574.659 335.203C573.349 333.388 571.682 331.86 569.76 330.71C567.839 329.561 565.703 328.815 563.483 328.517C561.263 328.22 559.005 328.378 556.848 328.981C554.691 329.584 552.68 330.62 550.937 332.026C549.195 333.431 547.757 335.177 546.713 337.156C545.668 339.135 545.038 341.305 544.862 343.535C544.685 345.766 544.966 348.008 545.686 350.127L545.762 350.152Z" fill="#FFE01B"/>
</g>
<g opacity="0.1">
<path opacity="0.1" d="M790.694 1009.66C790.694 1009.66 791.886 932.518 832.849 888.2C850.16 869.728 860.998 846.141 863.734 820.988C864.938 809.036 865.044 796.999 864.051 785.027" stroke="#535461" stroke-width="2" stroke-miterlimit="10"/>
<path opacity="0.1" d="M839.822 951.841C831.239 954.817 800.963 947.954 800.963 947.954C800.963 947.954 820.488 923.857 829.059 920.818C831.14 919.921 833.384 919.463 835.651 919.471C837.917 919.48 840.158 919.956 842.232 920.868C844.307 921.781 846.17 923.111 847.707 924.776C849.243 926.44 850.419 928.404 851.161 930.543C851.903 932.682 852.196 934.951 852.02 937.208C851.845 939.465 851.205 941.662 850.141 943.66C849.076 945.659 847.611 947.418 845.835 948.825C844.06 950.233 842.013 951.259 839.822 951.841Z" fill="#FFE01B"/>
<path opacity="0.1" d="M790.377 881.856C796.906 888.188 827.271 894.645 827.271 894.645C827.271 894.645 819.778 864.56 813.249 858.241C810.048 855.608 805.97 854.277 801.83 854.513C797.69 854.749 793.791 856.536 790.911 859.516C788.031 862.496 786.382 866.451 786.292 870.592C786.203 874.732 787.679 878.755 790.428 881.856H790.377Z" fill="#FFE01B"/>
<path opacity="0.1" d="M761.445 952.588C766.808 959.907 795.677 971.43 795.677 971.43C795.677 971.43 793.382 940.496 788.07 933.177C785.381 929.976 781.574 927.915 777.421 927.414C773.267 926.913 769.079 928.007 765.704 930.476C762.329 932.945 760.02 936.603 759.246 940.71C758.471 944.816 759.289 949.062 761.534 952.588H761.445Z" fill="#FFE01B"/>
</g>
<g opacity="0.1">
<path opacity="0.1" d="M600.583 997.527C600.583 997.527 601.775 920.375 642.738 876.057C660.049 857.584 670.887 833.998 673.623 808.845C674.827 796.897 674.933 784.864 673.94 772.897" stroke="#535461" stroke-width="2" stroke-miterlimit="10"/>
<path opacity="0.1" d="M699.588 744.812C696.887 753.473 673.357 773.707 673.357 773.707C673.357 773.707 665.496 743.71 668.196 735.049C668.712 732.847 669.677 730.775 671.03 728.962C672.384 727.148 674.096 725.633 676.062 724.511C678.027 723.388 680.204 722.682 682.455 722.436C684.705 722.19 686.983 722.411 689.145 723.083C691.307 723.755 693.307 724.865 695.02 726.344C696.734 727.822 698.123 729.638 699.103 731.676C700.083 733.715 700.632 735.934 700.715 738.194C700.799 740.454 700.415 742.706 699.588 744.812Z" fill="#FFE01B"/>
<path opacity="0.1" d="M710.593 800.855C703.607 806.667 672.849 810.871 672.849 810.871C672.849 810.871 682.561 781.419 689.547 775.619C692.931 773.179 697.116 772.113 701.257 772.635C705.398 773.156 709.187 775.228 711.858 778.431C714.529 781.634 715.884 785.73 715.649 789.892C715.414 794.054 713.607 797.972 710.593 800.855Z" fill="#FFE01B"/>
<path opacity="0.1" d="M683.879 882.489C674.916 883.971 646.238 872.094 646.238 872.094C646.238 872.094 669.515 851.568 678.466 850.087C680.662 849.571 682.94 849.51 685.16 849.909C687.38 850.308 689.494 851.158 691.372 852.406C693.25 853.654 694.851 855.274 696.077 857.165C697.303 859.056 698.127 861.179 698.498 863.401C698.869 865.623 698.78 867.897 698.235 870.084C697.691 872.27 696.703 874.321 695.332 876.11C693.962 877.9 692.239 879.389 690.269 880.487C688.299 881.584 686.124 882.266 683.879 882.489Z" fill="#FFE01B"/>
<path opacity="0.1" d="M649.762 939.698C641.179 942.686 610.903 935.811 610.903 935.811C610.903 935.811 630.377 911.663 638.948 908.663C641.025 907.782 643.261 907.336 645.518 907.353C647.774 907.371 650.003 907.851 652.067 908.764C654.13 909.677 655.984 911.004 657.512 912.661C659.041 914.319 660.213 916.273 660.955 918.401C661.697 920.53 661.994 922.788 661.826 925.036C661.659 927.283 661.031 929.473 659.981 931.468C658.932 933.464 657.484 935.223 655.726 936.636C653.968 938.049 651.938 939.087 649.762 939.685V939.698Z" fill="#FFE01B"/>
<path opacity="0.1" d="M639.353 802.299C643.689 810.276 670.72 825.534 670.72 825.534C670.72 825.534 672.583 794.588 668.184 786.61C667.273 784.514 665.934 782.63 664.254 781.078C662.574 779.527 660.588 778.342 658.424 777.598C656.26 776.855 653.965 776.57 651.685 776.762C649.404 776.953 647.189 777.617 645.179 778.71C643.17 779.804 641.41 781.303 640.013 783.113C638.616 784.923 637.611 787.004 637.063 789.223C636.515 791.442 636.435 793.75 636.83 796.002C637.224 798.253 638.084 800.398 639.353 802.299Z" fill="#FFE01B"/>
<path opacity="0.1" d="M600.292 869.713C606.821 876.044 637.185 882.515 637.185 882.515C637.185 882.515 629.692 852.416 623.163 846.11C621.66 844.401 619.817 843.021 617.753 842.058C615.689 841.096 613.447 840.571 611.169 840.517C608.891 840.463 606.627 840.882 604.519 841.746C602.412 842.611 600.507 843.902 598.924 845.539C597.341 847.176 596.116 849.123 595.324 851.257C594.533 853.39 594.193 855.665 594.326 857.937C594.46 860.208 595.063 862.428 596.099 864.455C597.134 866.481 598.579 868.272 600.342 869.713H600.292Z" fill="#FFE01B"/>
<path opacity="0.1" d="M571.334 940.445C576.697 947.764 605.566 959.286 605.566 959.286C605.566 959.286 603.271 928.352 597.959 921.033C596.748 919.132 595.16 917.499 593.293 916.236C591.425 914.973 589.317 914.106 587.1 913.689C584.884 913.272 582.605 913.314 580.405 913.812C578.205 914.31 576.131 915.254 574.311 916.585C572.491 917.917 570.964 919.607 569.825 921.551C568.686 923.496 567.958 925.653 567.688 927.89C567.417 930.126 567.609 932.395 568.251 934.554C568.894 936.714 569.973 938.719 571.423 940.445H571.334Z" fill="#FFE01B"/>
</g>
<path d="M513.991 98.0951C516.526 105.895 509.654 133.043 509.654 133.043C509.654 133.043 488.253 114.974 485.743 107.136C485.045 105.258 484.736 103.257 484.834 101.256C484.931 99.2551 485.434 97.2944 486.311 95.4927C487.189 93.6909 488.423 92.0854 489.939 90.7732C491.455 89.461 493.221 88.4692 495.131 87.8577C497.042 87.2463 499.056 87.0279 501.054 87.2157C503.051 87.4035 504.989 87.9936 506.752 88.9503C508.515 89.9071 510.065 91.2108 511.309 92.7825C512.553 94.3542 513.465 96.1615 513.991 98.0951Z" fill="#FFE01B"/>
<path d="M408.761 271.747C411.296 279.547 404.425 306.695 404.425 306.695C404.425 306.695 382.998 288.626 380.488 280.826C379.891 278.972 379.666 277.018 379.825 275.077C379.984 273.136 380.524 271.245 381.415 269.513C382.305 267.78 383.529 266.24 385.015 264.98C386.502 263.719 388.223 262.764 390.079 262.168C391.936 261.571 393.891 261.346 395.835 261.505C397.778 261.664 399.672 262.203 401.406 263.093C403.141 263.982 404.683 265.205 405.945 266.689C407.207 268.174 408.164 269.893 408.761 271.747Z" fill="#FFE01B"/>
<path d="M630.453 195.203C632.989 203.003 626.104 230.151 626.104 230.151C626.104 230.151 604.691 212.094 602.181 204.294C600.973 200.55 601.305 196.48 603.103 192.979C604.9 189.479 608.016 186.836 611.765 185.63C615.515 184.424 619.59 184.756 623.094 186.551C626.599 188.346 629.246 191.458 630.453 195.203Z" fill="#FFE01B"/>
<path d="M745.141 326.423C747.677 334.21 740.805 361.358 740.805 361.358C740.805 361.358 719.379 343.301 716.843 335.501C716.198 333.636 715.933 331.661 716.063 329.691C716.193 327.722 716.715 325.799 717.598 324.034C718.482 322.268 719.71 320.697 721.209 319.412C722.709 318.127 724.45 317.154 726.331 316.549C728.212 315.945 730.195 315.722 732.163 315.893C734.132 316.064 736.047 316.626 737.795 317.545C739.543 318.465 741.09 319.724 742.345 321.248C743.6 322.772 744.538 324.532 745.103 326.423H745.141Z" fill="#FFE01B"/>
<path d="M667.753 110.935C663.582 117.988 638.707 130.891 638.707 130.891C638.707 130.891 638.009 102.907 642.181 95.8539C644.183 92.4671 647.45 90.0134 651.264 89.0327C655.078 88.0519 659.125 88.6245 662.517 90.6243C665.908 92.6242 668.364 95.8875 669.346 99.6964C670.328 103.505 669.755 107.548 667.753 110.935Z" fill="#FFE01B"/>
<path d="M383.404 144.148C375.467 146.212 348.716 137.817 348.716 137.817C348.716 137.817 368 117.494 375.937 115.43C377.825 114.94 379.791 114.827 381.723 115.096C383.655 115.365 385.515 116.012 387.196 116.999C388.878 117.986 390.349 119.294 391.524 120.849C392.7 122.404 393.557 124.174 394.048 126.06C394.538 127.946 394.651 129.909 394.382 131.839C394.112 133.768 393.465 135.626 392.477 137.306C391.488 138.985 390.178 140.454 388.622 141.628C387.065 142.802 385.292 143.659 383.404 144.148Z" fill="#FFE01B"/>
<path d="M640.418 464.594C636.247 471.647 611.372 484.55 611.372 484.55C611.372 484.55 610.675 456.566 614.846 449.513C615.838 447.836 617.15 446.371 618.709 445.2C620.267 444.03 622.041 443.178 623.93 442.692C625.818 442.206 627.784 442.097 629.714 442.37C631.645 442.643 633.503 443.293 635.182 444.284C636.861 445.274 638.329 446.585 639.501 448.141C640.672 449.698 641.526 451.47 642.012 453.356C642.498 455.242 642.608 457.205 642.334 459.133C642.061 461.061 641.41 462.917 640.418 464.594Z" fill="#FFE01B"/>
<defs>
<linearGradient id="paint0_linear" x1="271.987" y1="1003.25" x2="271.987" y2="206.789" gradientUnits="userSpaceOnUse">
<stop stop-color="#808080" stop-opacity="0.25"/>
<stop offset="0.54" stop-color="#808080" stop-opacity="0.12"/>
<stop offset="1" stop-color="#808080" stop-opacity="0.1"/>
</linearGradient>
</defs>
</svg>
