<svg width="563" height="422" viewBox="0 0 563 422" fill="none" xmlns="http://www.w3.org/2000/svg">
<path opacity="0.86" d="M458.465 69.2643H104.535V299.085H458.465V69.2643Z" fill="#C9C9C9"/>
<path d="M254.757 272.837L241.316 358.179H330.974L310.354 272.837H254.757Z" fill="#C9C9C9"/>
<path opacity="0.08" d="M276.686 70.0098H295.575C295.575 70.0098 291.437 82.9511 286.103 90.941C280.768 98.9309 298.179 110.564 298.179 110.564L363.797 69.3909L384.205 69.2643C384.205 69.2643 406.767 112.069 388.808 129.413C370.848 146.758 329.144 136.911 327.736 149.571C326.329 162.231 352.593 187.087 352.593 187.087L437.732 122.802C437.732 122.802 455.411 134.224 439.928 145.885C424.446 157.547 383.755 229.048 356.252 229.638C328.75 230.229 321.234 219.342 327.328 246.589H285.103L274.786 142.692L260.852 110.564L269.635 73.7093L276.686 70.0098Z" fill="#222222"/>
<path opacity="0.45" d="M283.668 387.931C364.783 387.931 430.54 380.197 430.54 370.657C430.54 361.117 364.783 353.383 283.668 353.383C202.552 353.383 136.795 361.117 136.795 370.657C136.795 380.197 202.552 387.931 283.668 387.931Z" fill="#E6E6E6"/>
<path opacity="0.58" d="M379.743 353.073C379.743 353.073 367.006 349.599 364.261 337.755C364.261 337.755 383.966 333.774 384.557 354.128L379.743 353.073Z" fill="#000032"/>
<path opacity="0.73" d="M381.306 351.793C381.306 351.793 372.41 337.727 380.236 324.588C380.236 324.588 395.226 334.111 388.569 351.821L381.306 351.793Z" fill="#000032"/>
<path d="M383.586 351.793C383.586 351.793 388.287 336.953 402.503 334.14C402.503 334.14 405.163 343.775 393.298 351.836L383.586 351.793Z" fill="#000032"/>
<path d="M374.353 351.47L376.943 369.109L393.199 369.18L395.592 351.554L374.353 351.47Z" fill="black"/>
<path d="M423.165 124.335C423.165 124.335 432.046 114.489 438.436 115.037C444.826 115.586 448.289 127.697 428.373 134.913L423.165 124.335Z" fill="#F4A28C"/>
<path d="M505.025 30.2292H422.208V101.21H505.025V30.2292Z" fill="#C9C9C9"/>
<path d="M325.991 121.747L356.182 172.232L421.56 124.968L433.299 133.816L368.272 203.432C365.999 205.863 363.239 207.789 360.172 209.085C357.106 210.38 353.801 211.017 350.472 210.953C347.143 210.89 343.865 210.127 340.85 208.715C337.835 207.303 335.151 205.273 332.972 202.757L300.6 165.255L325.991 121.747Z" fill="#000032"/>
<path opacity="0.46" d="M325.991 121.747L356.182 172.232L421.56 124.968L433.299 133.816L368.272 203.432C365.999 205.863 363.239 207.789 360.172 209.085C357.106 210.38 353.801 211.017 350.472 210.953C347.143 210.89 343.865 210.127 340.85 208.715C337.835 207.303 335.151 205.273 332.972 202.757L300.6 165.255L325.991 121.747Z" fill="white"/>
<path d="M458.465 246.589H104.535V299.086H458.465V246.589Z" fill="#E6E6E6"/>
<path d="M283.47 283.908C291.322 283.908 297.686 277.547 297.686 269.7C297.686 261.854 291.322 255.493 283.47 255.493C275.619 255.493 269.255 261.854 269.255 269.7C269.255 277.547 275.619 283.908 283.47 283.908Z" fill="#A5A5A5"/>
<path d="M346.949 343.227H220.851V370.657H346.949V343.227Z" fill="#E6E6E6"/>
<path d="M276.489 67.731C276.489 67.731 277.601 77.5777 276.109 84.1046C275.814 85.3879 275.021 86.5015 273.905 87.2006C272.788 87.8996 271.44 88.1268 270.156 87.8323C266.848 87.0305 262.625 85.019 261.387 79.8284L258.22 71.2899C257.763 69.5151 257.87 67.6424 258.526 65.9311C259.182 64.2199 260.354 62.7547 261.879 61.7386C267.341 57.6733 276.109 61.7386 276.489 67.731Z" fill="#F4A28C"/>
<path d="M260.036 73.7094L252.069 105.008L269.635 108.173L268.382 84.1328L260.036 73.7094Z" fill="#F4A28C"/>
<path d="M257.15 78.9563C257.155 79.1646 257.23 79.3654 257.363 79.5261C257.495 79.6869 257.678 79.7983 257.882 79.8424C259.267 80.1975 260.731 80.0884 262.048 79.5319C263.365 78.9754 264.463 78.0022 265.173 76.7619C266.021 75.4014 266.452 73.8223 266.412 72.2198C266.372 70.6172 265.863 69.0616 264.948 67.7451C267.954 68.2582 271.011 68.414 274.054 68.2093C275.079 68.1488 276.087 67.9207 277.038 67.5341L279.389 60.0647C279.389 60.0647 283.259 52.5813 278.868 51.0761C274.477 49.571 272.52 54.5928 268.917 51.0761C265.314 47.5595 264.483 46.2513 260.852 48.2628C257.221 50.2743 261.443 53.1017 255.461 53.1861C249.479 53.2705 249.395 55.7463 249.395 58.4611C249.534 59.3895 249.946 60.2558 250.577 60.9509C254.663 66.0823 256.969 72.4012 257.15 78.9563Z" fill="black"/>
<path d="M266.229 76.4383C266.229 76.4383 266.018 72.6543 263.203 73.0201C260.388 73.3858 260.57 78.8577 264.455 79.2797L266.229 76.4383Z" fill="#F4A28C"/>
<path d="M276.869 73.9484L279.684 77.662C279.847 77.8735 279.954 78.123 279.994 78.3869C280.034 78.6509 280.006 78.9206 279.913 79.171C279.821 79.4213 279.666 79.6439 279.463 79.8179C279.26 79.9919 279.017 80.1117 278.755 80.1659L275.011 80.9818L276.869 73.9484Z" fill="#F4A28C"/>
<path opacity="0.31" d="M268.495 87.3258C268.495 87.3258 266.229 86.946 262.161 83.2606C262.161 83.2606 261.57 89.675 268.917 94.4014L268.495 87.3258Z" fill="#CE8172"/>
<path d="M207.001 133.239C207.822 126.841 210.699 120.882 215.199 116.258C219.699 111.634 225.579 108.594 231.956 107.596C251.52 104.501 282.626 102.321 312.184 111.816C360.39 127.289 303.035 229.624 303.035 229.624H232.378C232.378 229.624 200.484 184.949 207.001 133.239Z" fill="#000032"/>
<path d="M232.378 229.638L238.248 246.589H310.03L303.105 229.638H232.378Z" fill="black"/>
<path d="M293.393 122.675L302.472 145.885L310.058 141.905L302.472 121.747L293.393 122.675Z" fill="#FFD200"/>
<path opacity="0.08" d="M237.417 121.564C237.417 121.564 263.104 139.949 249.733 173.611L305.681 128.429C305.681 128.429 316.941 139.823 300.543 151.315C284.146 162.808 285.694 208.609 260.852 229.709H232.378L225.805 213.18L220.175 163.539L237.417 121.564Z" fill="#222222"/>
<path opacity="0.4" d="M293.393 122.675L302.472 145.885L310.058 141.905L302.472 121.747L293.393 122.675Z" fill="white"/>
<path d="M290.424 132.114C290.424 132.114 299.291 122.267 305.681 122.816C312.071 123.365 315.533 135.476 295.631 142.692L290.424 132.114Z" fill="#F4A28C"/>
<path d="M298.249 102.251L361.221 64.6222L375.296 121.747H302.472L298.249 102.251Z" fill="#FFD200"/>
<path d="M298.249 102.251L282.288 107.737L287.214 124.968L302.472 121.747L298.249 102.251Z" fill="#FFD200"/>
<path opacity="0.08" d="M298.249 102.251L282.288 107.737L287.214 124.968L302.472 121.747L298.249 102.251Z" fill="#222222"/>
<path d="M493.019 213.63H399.42V274.666H493.019V213.63Z" fill="#FFD200"/>
<path d="M158.513 37.9518H77.7925V114.32H158.513V37.9518Z" fill="black"/>
<path d="M431.666 227.739V260.557L465.84 242.059L431.666 227.739Z" fill="white"/>
<path d="M125.633 58.3345C123.456 58.3147 121.339 59.0449 119.638 60.4023C118.194 61.5516 117.005 62.9888 116.147 64.6223C115.284 62.992 114.096 61.5557 112.656 60.4023C110.961 59.053 108.856 58.3234 106.689 58.3345C100.58 58.3345 95.9774 63.3282 95.9774 69.9536C95.9774 77.0994 101.72 81.9946 110.418 89.4078C111.826 90.6738 113.571 92.0945 115.316 93.6278C115.543 93.8334 115.841 93.9441 116.147 93.9372C116.453 93.9413 116.749 93.8309 116.977 93.6278C118.709 92.1086 120.383 90.6878 121.875 89.4078C130.574 81.9946 136.316 77.0994 136.316 69.9536C136.345 63.3 131.742 58.3345 125.633 58.3345Z" fill="white"/>
<path opacity="0.72" d="M422.222 86.932L448.12 46.3778L463.616 83.345L480.591 53.0876L505.025 89.5484V101.21H422.222V86.932Z" fill="white"/>
<path d="M465.263 56.4636C469.189 56.4636 472.371 53.2832 472.371 49.3599C472.371 45.4367 469.189 42.2563 465.263 42.2563C461.338 42.2563 458.155 45.4367 458.155 49.3599C458.155 53.2832 461.338 56.4636 465.263 56.4636Z" fill="white"/>
<path d="M238.515 125.601C238.032 122.584 236.738 119.755 234.772 117.415C232.807 115.076 230.242 113.313 227.353 112.315C224.463 111.317 221.357 111.122 218.365 111.75C215.374 112.378 212.609 113.806 210.365 115.881C206.684 119.289 203.774 123.445 201.832 128.069C199.89 132.693 198.96 137.679 199.105 142.692C199.457 171.965 198.401 219.088 221.977 227.88C245.552 236.672 295.575 142.692 295.575 142.692L290.367 132.114L230.675 181.826C230.675 181.826 242.09 150.134 238.515 125.601Z" fill="#000032"/>
<path opacity="0.46" d="M238.515 125.601C238.032 122.584 236.738 119.755 234.772 117.415C232.807 115.076 230.242 113.313 227.353 112.315C224.463 111.317 221.357 111.122 218.365 111.75C215.374 112.378 212.609 113.806 210.365 115.881C206.684 119.289 203.774 123.445 201.832 128.069C199.89 132.693 198.96 137.679 199.105 142.692C199.457 171.965 198.401 219.088 221.977 227.88C245.552 236.672 295.575 142.692 295.575 142.692L290.367 132.114L230.675 181.826C230.675 181.826 242.09 150.134 238.515 125.601Z" fill="white"/>
<path d="M376.346 121.578C382.603 120.068 384.571 105.995 380.743 90.143C376.915 74.2915 368.739 62.6649 362.482 64.1742C356.226 65.6835 354.257 79.7572 358.086 95.6087C361.914 111.46 370.089 123.087 376.346 121.578Z" fill="#FFD200"/>
<path opacity="0.4" d="M376.346 121.578C382.603 120.068 384.571 105.995 380.743 90.143C376.915 74.2915 368.739 62.6649 362.482 64.1742C356.226 65.6835 354.257 79.7572 358.086 95.6087C361.914 111.46 370.089 123.087 376.346 121.578Z" fill="white"/>
<path d="M357.097 83.1762C356.781 83.2616 356.474 83.3794 356.182 83.5279C356.631 92.9015 358.942 102.092 362.98 110.564C363.217 110.552 363.453 110.519 363.684 110.466C367.695 109.495 369.469 102.602 367.653 94.9922C365.837 87.3822 361.108 82.2056 357.097 83.1762Z" fill="#FFD200"/>
<path opacity="0.08" d="M357.097 83.1762C356.781 83.2616 356.474 83.3794 356.182 83.5279C356.631 92.9015 358.942 102.092 362.98 110.564C363.217 110.552 363.453 110.519 363.684 110.466C367.695 109.495 369.469 102.602 367.653 94.9922C365.837 87.3822 361.108 82.2056 357.097 83.1762Z" fill="#222222"/>
<path d="M154.065 153.256H61.8737V215.079H154.065V153.256Z" fill="#E6E6E6"/>
<path d="M61.8596 153.256L107.955 197.074L154.051 153.256H61.8596Z" fill="#C9C9C9"/>
</svg>
