<svg width="215" height="170" viewBox="0 0 215 170" fill="none" xmlns="http://www.w3.org/2000/svg">
<path d="M187.696 29.3794H22.7802V136.451H187.696V29.3794Z" fill="#F2F2F2"/>
<path d="M92.7745 124.22L86.5154 163.982H128.293L118.686 124.22H92.7745Z" fill="#C9C9C9"/>
<path d="M135.738 157.013H76.9837V169.79H135.738V157.013Z" fill="#E6E6E6"/>
<path d="M187.696 115.78H22.7802V136.451H187.696V115.78Z" fill="#E6E6E6"/>
<path d="M107.026 131.752C110.139 131.752 112.662 129.23 112.662 126.12C112.662 123.009 110.139 120.487 107.026 120.487C103.913 120.487 101.389 123.009 101.389 126.12C101.389 129.23 103.913 131.752 107.026 131.752Z" fill="#A5A5A5"/>
<path d="M100.876 21.9735C100.758 24.4318 100.973 26.8947 101.515 29.2954C101.599 29.5759 101.738 29.8371 101.922 30.0641C102.107 30.2911 102.335 30.4795 102.593 30.6185C102.851 30.7575 103.134 30.8443 103.425 30.874C103.716 30.9037 104.011 30.8758 104.292 30.7917C105.208 30.5707 106.042 30.091 106.694 29.41C107.346 28.7289 107.788 27.875 107.968 26.95L109.146 23.0411C109.304 22.2281 109.204 21.3861 108.86 20.6326C108.516 19.8791 107.946 19.2517 107.228 18.8379C104.679 17.1735 100.868 19.2751 100.876 21.9735Z" fill="#F4A28C"/>
<path d="M108.944 23.7471L111.779 37.9706L103.82 38.9625L104.956 28.2192L108.944 23.7471Z" fill="#F4A28C"/>
<path d="M105.722 25.5797C105.722 25.5797 105.722 23.8985 106.975 23.9573C108.229 24.0162 108.321 26.4792 106.588 26.7987L105.722 25.5797Z" fill="#F4A28C"/>
<path d="M100.884 24.7642L99.715 26.5127C99.6483 26.612 99.6079 26.7266 99.5976 26.8458C99.5873 26.9649 99.6075 27.0848 99.6563 27.194C99.7051 27.3032 99.7808 27.3983 99.8764 27.4703C99.9721 27.5423 100.084 27.5888 100.203 27.6055L101.885 27.8661L100.884 24.7642Z" fill="#F4A28C"/>
<path opacity="0.08" d="M117.138 29.3794H128.293C128.293 29.3794 144.505 41.9889 149.653 60.2391C153.86 75.0678 153.069 88.3414 147.129 97.0504C145.634 99.2944 144.597 101.812 144.079 104.458C143.56 107.104 143.571 109.826 144.109 112.468L144.74 115.78H115.211L117.138 29.3794Z" fill="black"/>
<path d="M103.82 39.3157C103.82 39.3157 92.4884 39.3157 90.6124 48.2684C88.7363 57.2212 89.5355 79.6072 82.2921 80.4899C75.0487 81.3726 62.438 52.9171 62.438 52.9171C62.438 52.9171 57.0707 48.1255 53.5878 50.2691C50.1049 52.4127 58.6859 56.9942 58.6859 56.9942C58.6859 56.9942 65.3657 111.686 98.9158 87.5596C132.466 63.4334 103.82 39.3157 103.82 39.3157Z" fill="#F4A28C"/>
<path opacity="0.31" d="M104.603 30.5646C105.59 30.2618 106.467 29.6774 107.127 28.8833C107.127 28.8833 107.127 31.5397 104.3 34.2634L104.603 30.5646Z" fill="#CE8172"/>
<path d="M103.82 38.9711L111.779 37.9707C111.779 37.9707 131.54 38.349 132.685 60.0962C133.829 81.8434 127.536 80.7001 125.239 99.606H93.9691C93.9691 99.606 95.1721 87.8371 91.4452 79.8595C87.7184 71.8819 68.083 65.9134 103.82 38.9711Z" fill="#000032"/>
<path d="M108.128 53.4802H95.6853V71.722H108.128V53.4802Z" fill="#24285B"/>
<path opacity="0.08" d="M110.063 42.6362C110.063 42.6362 106.294 51.4461 113.15 62.6013C120.007 73.7565 123.733 79.7754 111.779 79.5569C99.8243 79.3383 99.5972 58.457 99.5972 58.457H90.5871L91.664 75.6984L97.25 76.539L106.361 94.6378L125.71 96.1846L132.811 87.2655L136.571 71.7222L121.302 45.0489L110.063 42.6362Z" fill="black"/>
<path d="M127.216 45.2084C127.216 45.2084 140.13 51.799 140.416 79.2709C140.702 106.743 118.618 98.7316 104.317 77.8418C104.317 77.8418 95.7189 69.5448 99.5972 66.073C103.475 62.6012 107.917 74.3784 107.917 74.3784C107.917 74.3784 121.891 85.0881 127.578 82.8772C133.265 80.6664 97.1239 42.3251 127.216 45.2084Z" fill="#F4A28C"/>
<path d="M106.815 22.36C107.895 25.7541 108.27 29.3324 107.917 32.8763C107.286 38.5338 106.159 47.579 117.651 48.4364C129.143 49.2939 127.965 43.4431 126.998 38.9709C126.03 34.4987 115.666 34.1625 116.381 24.5961C117.096 15.0296 110.29 13.2643 104.334 13.4745C98.3774 13.6846 94.558 22.5785 106.815 22.36Z" fill="#FFD200"/>
<path d="M94.1373 93.6794L90.5871 115.78H129.538L125.727 96.2013L94.1373 93.6794Z" fill="#24285B"/>
<path d="M50.4498 44.0651C62.5487 44.0651 72.3567 34.2646 72.3567 22.175C72.3567 10.0854 62.5487 0.284912 50.4498 0.284912C38.351 0.284912 28.543 10.0854 28.543 22.175C28.543 34.2646 38.351 44.0651 50.4498 44.0651Z" fill="#24285B"/>
<path d="M182.194 58.4652C194.195 58.4652 203.924 48.7437 203.924 36.7516C203.924 24.7596 194.195 15.0381 182.194 15.0381C170.192 15.0381 160.464 24.7596 160.464 36.7516C160.464 48.7437 170.192 58.4652 182.194 58.4652Z" fill="#24285B"/>
<path d="M191.397 133.383C203.687 133.383 213.649 123.428 213.649 111.148C213.649 98.8679 203.687 88.9131 191.397 88.9131C179.108 88.9131 169.146 98.8679 169.146 111.148C169.146 123.428 179.108 133.383 191.397 133.383Z" fill="#24285B"/>
<path d="M23.8571 126.33C36.9548 126.33 47.5727 115.72 47.5727 102.632C47.5727 89.5445 36.9548 78.9348 23.8571 78.9348C10.7593 78.9348 0.141495 89.5445 0.141495 102.632C0.141495 115.72 10.7593 126.33 23.8571 126.33Z" fill="#24285B"/>
<path d="M194.544 27.8662H171.35V45.0572H194.544V27.8662Z" fill="white"/>
<path d="M171.35 27.8577L182.951 40.3579L194.552 27.8577H171.35Z" fill="#000032"/>
<path d="M202.09 104.524H181.866V118.84H202.09V104.524Z" fill="#FFD200"/>
<path d="M188.789 108.105V115.511L196.857 111.686L188.789 108.105Z" fill="white"/>
<path d="M58.6691 23.9826C60.2628 23.9826 61.5547 22.6916 61.5547 21.0992C61.5547 19.5068 60.2628 18.2158 58.6691 18.2158C57.0754 18.2158 55.7835 19.5068 55.7835 21.0992C55.7835 22.6916 57.0754 23.9826 58.6691 23.9826Z" fill="#FFD200"/>
<path d="M48.2709 17.7114H39.6983V25.2519H48.2709V17.7114Z" fill="#FFD200"/>
<path d="M48.2373 17.7114C50.5198 17.5144 52.7034 16.691 54.5472 15.3322C56.391 13.9734 57.8233 12.132 58.6859 10.0112V31.4222C58.6859 31.4222 55.2031 25.2519 48.2373 25.2519V17.7114Z" fill="white"/>
<path d="M43.9804 25.2517L46.3949 32.54H50.3657L48.2625 25.2517H43.9804Z" fill="#FFD200"/>
<path d="M36.5015 92.6958H10.9267V113.014H36.5015V92.6958Z" fill="#000032"/>
<path opacity="0.85" d="M10.9267 113.014L19.045 99.1099L23.7141 108.13L28.6355 101.052L36.5015 113.014H10.9267Z" fill="white"/>
<path d="M24.3198 100.421C25.3652 100.421 26.2127 99.5745 26.2127 98.5299C26.2127 97.4852 25.3652 96.6384 24.3198 96.6384C23.2744 96.6384 22.4269 97.4852 22.4269 98.5299C22.4269 99.5745 23.2744 100.421 24.3198 100.421Z" fill="white"/>
</svg>
