<svg width="36" height="36" viewBox="0 0 36 36" fill="none" xmlns="http://www.w3.org/2000/svg">
<g clip-path="url(#clip0)">
<path d="M35.4268 11.5589L33.426 9.55018C32.6211 8.74187 31.3808 9.40112 31.3808 9.40112L31.3774 9.39887C30.0848 9.93718 28.5401 9.6835 27.4905 8.62993C26.4403 7.57468 26.1923 6.02668 26.7384 4.73575C26.7435 4.72337 26.7435 4.7155 26.7491 4.70256C27.216 3.46731 26.5523 2.65675 26.3565 2.452L24.3461 0.433747C23.4681 -0.447691 22.5146 0.353872 22.2812 0.578309L0.582191 22.1907C-0.623246 23.3899 0.370691 24.3479 0.370691 24.3479L2.69888 26.6851C2.69888 26.6851 3.27319 27.3061 4.38807 26.8561C4.4235 26.842 4.4505 26.8358 4.48144 26.8262C5.80669 26.1878 7.44075 26.4077 8.53707 27.508C9.58107 28.5571 9.83475 30.0921 9.3015 31.3791H9.30319C9.30319 31.3791 8.62594 32.6363 9.44044 33.4536L11.4795 35.5011C11.6246 35.644 12.6962 36.6064 14.0338 35.2756L35.5939 13.8032C35.919 13.4247 36.4264 12.5624 35.4268 11.5589ZM13.194 25.4245L13.0089 25.6079C12.8014 25.8149 12.5888 25.6821 12.4808 25.5859L10.0907 23.1857L9.48882 23.7859C9.18394 24.0902 8.9235 23.7764 8.9235 23.7764L8.84363 23.6959C8.84363 23.6959 8.62707 23.5013 8.95669 23.1739L10.7871 21.3509C10.7871 21.3509 11.0751 21.0325 11.3496 21.307L11.412 21.3694C11.6173 21.5877 11.4891 21.7846 11.4008 21.8802L10.7798 22.5001L13.0776 24.808C13.3628 25.0937 13.2823 25.3086 13.194 25.4245ZM15.2286 23.3978L15.0789 23.5469C14.8461 23.7792 14.5412 23.5114 14.4669 23.4406L11.943 20.9054C11.943 20.9054 11.5948 20.5471 11.8806 20.2636L11.9869 20.1578C11.9869 20.1578 12.2895 19.876 12.7058 20.2945L15.1836 22.7819C15.4575 23.0575 15.3197 23.2926 15.2286 23.3978ZM18.3077 20.1786C18.1553 20.4796 17.9589 20.7653 17.6906 21.0336C17.2181 21.5044 16.7141 21.7204 16.1786 21.6827C15.6426 21.6467 15.1076 21.3599 14.5733 20.8238C14.2374 20.4857 14.004 20.1302 13.8741 19.7522C13.7441 19.3759 13.7267 19.0064 13.8223 18.6407C13.9179 18.2751 14.1199 17.9399 14.4293 17.6311C14.6768 17.3847 14.9873 17.1968 15.3309 17.0432C15.4451 17.0247 15.6555 17.023 15.7556 17.2564L15.7944 17.3476C15.9654 17.7469 15.4873 17.8802 15.4873 17.8802L15.4879 17.8819C15.4682 17.8915 15.4463 17.8994 15.426 17.9084C15.2606 17.9866 15.1189 18.0856 15.0002 18.2048C14.7409 18.4619 14.6374 18.76 14.6891 19.0964C14.7409 19.4322 14.94 19.7736 15.2865 20.1218C16.0076 20.8452 16.641 20.9374 17.1844 20.3957C17.3424 20.2394 17.4954 20.0099 17.6456 19.7511C17.6473 19.7511 17.6569 19.7545 17.6569 19.7545C17.6569 19.7545 17.8549 19.4131 18.0411 19.5992L18.1564 19.7157C18.3516 19.8962 18.3398 20.0706 18.3077 20.1786ZM21.5933 17.0584L21.2642 17.3864C21.0594 17.59 20.7377 17.5135 20.7377 17.5135L18.8466 17.068L18.7644 17.5664L19.5452 18.3505C19.8253 18.6312 19.7629 18.8477 19.6746 18.9715L19.5041 19.1391C19.2645 19.3793 18.9939 19.1695 18.8921 19.0722L16.3513 16.5212C16.3513 16.5212 15.9936 16.1657 16.2518 15.9098L16.4104 15.7517C16.5099 15.6685 16.7468 15.5414 17.0578 15.8536L18.1648 16.9651L18.0546 16.3126L17.8633 14.5913C17.8633 14.5913 17.8335 14.3342 18.0287 14.1396L18.2863 13.8826C18.2863 13.8826 18.5985 13.5676 18.6503 14.0204C18.6503 14.0204 18.6514 14.0204 18.6514 14.0221L18.8978 16.1371L21.4459 16.7204C21.582 16.7575 21.7986 16.8531 21.5933 17.0584ZM23.922 14.8107L22.6772 16.051C22.3532 16.3739 22.0511 16.1281 21.9651 16.0448L19.4518 13.5226C19.4518 13.5226 19.1396 13.1041 19.4681 12.7761L20.6854 11.5645C20.6854 11.5645 20.9419 11.2776 21.1539 11.4908L21.2513 11.5876C21.2513 11.5876 21.5499 11.8277 21.2473 12.1287L20.5841 12.7885C20.3304 13.0422 20.5824 13.2807 20.5824 13.2807L20.7782 13.4753C20.7782 13.4753 21.0431 13.7526 21.3446 13.4517L21.8779 12.9201C21.8779 12.9201 22.1428 12.6473 22.3464 12.8509L22.4258 12.9308C22.6485 13.1738 22.5489 13.3622 22.473 13.4511L21.96 13.9624C21.6388 14.2819 21.8199 14.5187 21.8773 14.5784L22.2283 14.9311C22.3341 15.0137 22.5068 15.0863 22.6907 14.9029L23.3454 14.2504C23.3454 14.2504 23.6143 13.9602 23.7904 14.1362L23.9018 14.2476C24.1386 14.4923 24.0114 14.7083 23.922 14.8107ZM25.7085 12.9606L25.6005 13.0669C25.3862 13.2801 25.1224 13.0574 25.0369 12.9741L22.9978 10.9272C22.7334 10.6622 22.5056 10.8259 22.4263 10.8996L22.0568 11.2686C21.7991 11.5257 21.5584 11.2467 21.5584 11.2467L21.4605 11.1477C21.4605 11.1477 21.2456 10.9339 21.5033 10.6769L23.3983 8.79025C23.5125 8.68731 23.7426 8.53375 23.94 8.73175L24.0013 8.79418C24.2201 9.02481 24.0941 9.22843 24.0148 9.31787L23.6334 9.697C23.5823 9.75043 23.4146 9.96812 23.7212 10.2769L25.7259 12.2901C25.8368 12.415 25.9948 12.6799 25.7085 12.9606Z" fill="#999999"/>
</g>
<defs>
<clipPath id="clip0">
<rect width="36" height="36" fill="white"/>
</clipPath>
</defs>
</svg>
