<svg width="75" height="75" viewBox="0 0 75 75" fill="none" xmlns="http://www.w3.org/2000/svg">
<path fill-rule="evenodd" clip-rule="evenodd" d="M15.498 31.671V24.503L23.247 20.0296V43.2767V43.3123C23.2085 49.6976 18.0148 54.8706 11.6235 54.8706V47.1037C13.7461 47.1037 15.4714 45.3903 15.498 43.2767V42.6038C14.2856 43.0336 12.9812 43.2648 11.6235 43.2648C5.21742 43.2648 0.0148221 38.0741 0 31.671V24.503L7.74605 20.0296H7.74902V31.671C7.77273 33.7876 9.50101 35.498 11.6235 35.498C13.7461 35.498 15.4714 33.7876 15.498 31.671ZM25.8202 31.5968C25.8913 25.2411 31.0731 20.1038 37.4437 20.1038C43.8409 20.1038 49.0376 25.2826 49.0672 31.671V31.7451C48.9961 38.1008 43.8142 43.2382 37.4437 43.2382C31.0465 43.2382 25.8498 38.0593 25.8202 31.671V31.5968ZM59.3894 20.0089V31.671C59.419 33.7846 61.1443 35.4891 63.2638 35.4891C65.3834 35.4891 67.1087 33.7846 67.1384 31.671V24.4822L74.8874 20.0089V31.671C74.8577 38.0593 69.6611 43.2382 63.2638 43.2382C56.8666 43.2382 51.67 38.0593 51.6403 31.671V24.4822L59.3894 20.0089ZM33.5692 31.7213C33.6255 33.8083 35.3419 35.4891 37.4437 35.4891C39.5633 35.4891 41.2885 33.7846 41.3182 31.671V31.6205C41.2619 29.5306 39.5455 27.8528 37.4437 27.8528C35.3241 27.8528 33.5988 29.5573 33.5692 31.671V31.7213Z" fill="white"/>
</svg>
