<svg width="36" height="36" viewBox="0 0 36 36" fill="none" xmlns="http://www.w3.org/2000/svg">
<g clip-path="url(#clip0)">
<path d="M35.3962 6.01626C35.011 5.93132 34.5964 6.19639 34.5144 6.60434L33.4831 11.7601C33.0464 11.5358 32.7011 11.177 32.3054 10.7452C31.5935 9.96817 30.7073 9.00139 29.0023 9.00139C27.2972 9.00139 26.4125 9.9681 25.7006 10.7452C25.059 11.4468 24.5507 12.0012 23.5077 12.0012C22.4633 12.0012 21.9564 11.4468 21.3134 10.7452C20.6015 9.96817 19.7153 9.00139 18.0103 9.00139C16.3067 9.00139 15.4205 9.9681 14.71 10.7444C14.0655 11.4467 13.5572 12.0012 12.5128 12.0012C11.4669 12.0012 10.9572 11.4467 10.3126 10.7444C9.60071 9.9681 8.71303 9.00139 7.0065 9.00139C5.29998 9.00139 4.41378 9.9674 3.70187 10.7444C3.30405 11.1775 2.95714 11.5377 2.5172 11.762L1.48566 6.60434C1.40361 6.19639 0.989055 5.93055 0.603819 6.01626C0.196577 6.09754 -0.0670906 6.49226 0.0149626 6.89873L4.15306 27.588C4.43283 28.9854 5.67059 29.9997 7.09439 29.9997H28.9055C30.3293 29.9997 31.5671 28.9854 31.8468 27.588L35.9849 6.89873C36.0671 6.49233 35.8035 6.09754 35.3962 6.01626ZM30.3763 27.2937C30.2357 27.9924 29.6175 28.4999 28.9056 28.4999H7.09446C6.38256 28.4999 5.76439 27.9924 5.62376 27.2937L2.81729 13.2619C3.70223 12.9352 4.28806 12.3231 4.80639 11.758C5.45094 11.0557 5.96069 10.5013 7.00657 10.5013C8.05393 10.5013 8.56369 11.0564 9.20823 11.7587C9.92013 12.535 10.8078 13.501 12.5129 13.501C14.2179 13.501 15.1041 12.5343 15.816 11.7572C16.4591 11.0556 16.9659 10.5012 18.0103 10.5012C19.0547 10.5012 19.563 11.0556 20.2075 11.7579C20.9179 12.5343 21.8041 13.501 23.5078 13.501C25.2114 13.501 26.0962 12.5343 26.8081 11.7579C27.4511 11.0556 27.9579 10.5012 29.0023 10.5012C30.0467 10.5012 30.555 11.0556 31.1996 11.7579C31.7163 12.323 32.3009 12.9347 33.1829 13.2614L30.3763 27.2937Z" fill="#999999"/>
</g>
<defs>
<clipPath id="clip0">
<rect width="36" height="36" fill="white"/>
</clipPath>
</defs>
</svg>
