<svg width="24" height="24" viewBox="0 0 24 24" fill="none" xmlns="http://www.w3.org/2000/svg">
<path d="M18.924 4.93C17.0365 3.0415 14.526 2.001 11.8545 2C6.34646 2 1.86346 6.481 1.86096 11.9895C1.86046 13.673 2.28546 15.332 3.09146 16.8005L1.79896 21.52C1.75196 21.6925 1.79996 21.8765 1.92596 22.0035C2.02096 22.0995 2.14946 22.152 2.28146 22.152C2.32396 22.152 2.36646 22.1465 2.40846 22.1355L7.25196 20.8655C8.66595 21.5995 10.251 21.987 11.8505 21.9875C17.3625 21.9875 21.8455 17.506 21.848 11.9975C21.849 9.328 20.8105 6.818 18.924 4.93Z" fill="url(#paint0_linear)"/>
<path d="M17.4356 6.41603C15.9456 4.92503 13.9651 4.10353 11.8571 4.10303C7.50512 4.10303 3.96562 7.64103 3.96362 11.99C3.96312 13.4805 4.38012 14.9315 5.17012 16.188L5.35812 16.4865L4.56062 19.397L7.54712 18.614L7.83562 18.785C9.04662 19.504 10.4356 19.884 11.8516 19.8845H11.8546C16.2036 19.8845 19.7431 16.346 19.7446 11.9965C19.7451 9.88903 18.9256 7.90703 17.4356 6.41603Z" fill="url(#paint1_linear)"/>
<path opacity="0.05" d="M14.4464 16.9395C13.9489 16.9395 13.2694 16.8125 11.9029 16.274C10.3729 15.67 8.86991 14.359 7.67091 12.582L7.63241 12.5255C7.31141 12.097 6.56641 10.972 6.56641 9.7755C6.56641 8.4855 7.21041 7.799 7.48541 7.5055L7.52791 7.46C7.90741 7.0445 8.35441 7 8.52891 7C8.71341 7.002 8.86991 7 9.00541 7.006C9.33241 7.019 9.70491 7.1135 9.97341 7.7105C10.0984 7.9895 10.3114 8.513 10.4779 8.9235C10.5844 9.187 10.6709 9.401 10.6974 9.458C10.8444 9.751 10.8514 10.0415 10.7154 10.315L10.6829 10.3815C10.6189 10.5125 10.5524 10.648 10.4109 10.813L10.2934 10.954C10.2124 11.0525 10.1309 11.1505 10.0584 11.2265C10.2529 11.547 10.6614 12.1545 11.2239 12.6565C11.9209 13.277 12.5179 13.5365 12.8384 13.676C12.9019 13.7035 12.9549 13.727 12.9969 13.747C13.1994 13.512 13.5329 13.1115 13.6479 12.94C14.0329 12.362 14.5864 12.5625 14.7679 12.629C15.0524 12.732 16.4294 13.417 16.4429 13.4235L16.5704 13.486C16.7799 13.5875 16.9769 13.683 17.1014 13.89C17.2989 14.2205 17.1894 14.9265 17.0049 15.4425C16.7379 16.194 15.5909 16.845 14.9779 16.9L14.8649 16.912C14.7324 16.9275 14.5979 16.9395 14.4464 16.9395ZM8.60791 8C8.53791 8 8.41541 7.971 8.26491 8.135L8.21441 8.1895C7.98791 8.431 7.56591 8.881 7.56591 9.7755C7.56591 10.697 8.22891 11.654 8.43191 11.9255C8.44541 11.9435 8.46741 11.976 8.49941 12.0225C9.58691 13.634 10.9259 14.8135 12.2699 15.3435C13.9619 16.011 14.3964 15.9605 14.7479 15.919L14.8869 15.904C15.1914 15.8765 15.9479 15.4285 16.0624 15.107C16.1669 14.8145 16.2004 14.5635 16.2059 14.42C16.1839 14.4095 16.1599 14.3985 16.1344 14.3865L15.9929 14.317C15.6744 14.157 14.6034 13.634 14.4274 13.5695C14.2064 13.8735 13.7964 14.352 13.6879 14.4765C13.4844 14.71 13.1244 14.931 12.5734 14.6535C12.5404 14.637 12.4954 14.618 12.4394 14.5935C12.0939 14.443 11.3744 14.1305 10.5579 13.4035C9.82341 12.748 9.32091 11.9515 9.13891 11.639C8.91641 11.2585 8.97791 10.8915 9.32191 10.549C9.38191 10.489 9.45041 10.4035 9.52041 10.319L9.65141 10.162C9.71041 10.0935 9.73191 10.049 9.78491 9.9415L9.80241 9.906C9.75641 9.804 9.66341 9.5765 9.55141 9.2995C9.38991 8.901 9.18341 8.392 9.06191 8.121C9.02941 8.049 9.00491 8.0135 8.99291 7.9985C8.99541 8.006 8.97841 8.0065 8.96391 8.0055C8.85291 8 8.73141 8 8.60791 8Z" fill="black"/>
<path opacity="0.07" d="M14.4444 16.692C14.0214 16.692 13.3669 16.582 11.9949 16.041C10.5114 15.456 9.04941 14.1775 7.87841 12.442L7.83491 12.378C7.52691 11.967 6.81641 10.897 6.81641 9.775C6.81641 8.584 7.41291 7.948 7.66791 7.676L7.71241 7.628C8.02491 7.2865 8.38791 7.25 8.52941 7.25C8.71791 7.2515 8.86291 7.25 8.99491 7.256C9.24091 7.266 9.52341 7.318 9.74591 7.813C9.87041 8.09 10.0814 8.61 10.2464 9.0175C10.3589 9.295 10.4489 9.5185 10.4724 9.566C10.5134 9.6485 10.6414 9.903 10.4919 10.2035L10.4584 10.2715C10.3959 10.399 10.3419 10.5095 10.2209 10.6505L10.0999 10.795C10.0134 10.9 9.92691 11.0045 9.85191 11.0795C9.74391 11.187 9.74391 11.187 9.78691 11.2605C9.95091 11.542 10.4029 12.2595 11.0574 12.843C11.7839 13.4905 12.4054 13.76 12.7389 13.905C12.8109 13.936 12.8684 13.9615 12.9109 13.983C13.0574 14.056 13.0724 14.041 13.1244 13.982C13.2684 13.818 13.7084 13.3 13.8559 13.0785C14.1329 12.6635 14.4904 12.7935 14.6829 12.863C14.9359 12.955 16.2024 13.5815 16.3309 13.646L16.4619 13.71C16.6519 13.802 16.8019 13.8745 16.8879 14.017C17.0149 14.23 16.9624 14.8185 16.7704 15.3575C16.5264 16.043 15.4474 16.606 14.9564 16.65L14.8369 16.663C14.7204 16.677 14.5979 16.692 14.4444 16.692ZM8.60041 7.75C8.58741 7.75 8.57441 7.75 8.56141 7.75C8.46991 7.75 8.26391 7.7655 8.08041 7.966L8.03191 8.018C7.79941 8.266 7.31591 8.782 7.31591 9.775C7.31591 10.7465 7.95641 11.707 8.23191 12.075C8.24441 12.0915 8.26391 12.12 8.29241 12.162C9.40791 13.815 10.7879 15.027 12.1784 15.576C13.9309 16.267 14.4009 16.2115 14.7769 16.1675L14.9104 16.153C15.2569 16.122 16.1359 15.6465 16.2984 15.1905C16.4649 14.7245 16.4719 14.3355 16.4464 14.252C16.4499 14.255 16.3304 14.203 16.2439 14.161L16.1059 14.093C15.7944 13.9365 14.7029 13.4025 14.5119 13.333C14.3319 13.268 14.3314 13.2665 14.2719 13.356C14.0974 13.6165 13.6119 14.1845 13.5009 14.311C13.1799 14.6785 12.8089 14.4905 12.6864 14.429C12.6504 14.411 12.6009 14.39 12.5399 14.3635C12.2059 14.218 11.5114 13.916 10.7249 13.2155C10.0169 12.5845 9.53141 11.814 9.35541 11.512C9.11741 11.105 9.38491 10.8385 9.49891 10.725C9.56391 10.66 9.63891 10.5685 9.71441 10.4765L9.84191 10.3235C9.92141 10.2305 9.95491 10.1625 10.0099 10.05L10.0449 9.9785C10.0694 9.9295 10.0739 9.884 10.0249 9.787C9.99891 9.735 9.90241 9.498 9.78341 9.2035C9.62041 8.802 9.41291 8.289 9.28991 8.0165C9.17541 7.762 9.10841 7.759 8.97391 7.754C8.85841 7.75 8.73041 7.75 8.60041 7.75Z" fill="black"/>
<path fill-rule="evenodd" clip-rule="evenodd" d="M9.51742 7.91551C9.33992 7.52051 9.15292 7.51251 8.98342 7.50551C8.84492 7.49951 8.68692 7.50001 8.52892 7.50001C8.37092 7.50001 8.11392 7.55951 7.89642 7.79701C7.67892 8.03451 7.06592 8.60801 7.06592 9.77501C7.06592 10.942 7.91592 12.07 8.03442 12.228C8.15292 12.386 9.67542 14.8575 12.0864 15.8085C14.0899 16.5985 14.4979 16.4415 14.9329 16.402C15.3679 16.3625 16.3364 15.8285 16.5339 15.2745C16.7314 14.7205 16.7314 14.246 16.6724 14.147C16.6129 14.048 16.4549 13.989 16.2179 13.87C15.9809 13.751 14.8144 13.1775 14.5969 13.0985C14.3794 13.0195 14.2214 12.98 14.0629 13.2175C13.9049 13.4545 13.4504 13.989 13.3119 14.147C13.1734 14.3055 13.0349 14.3255 12.7979 14.2065C12.5609 14.0875 11.7969 13.8375 10.8904 13.0295C10.1854 12.401 9.70942 11.6245 9.57092 11.387C9.43242 11.15 9.55592 11.0215 9.67492 10.903C9.78142 10.7965 9.91192 10.626 10.0309 10.4875C10.1494 10.349 10.1889 10.25 10.2679 10.092C10.3469 9.93351 10.3074 9.79501 10.2479 9.67651C10.1894 9.55751 9.72842 8.38451 9.51742 7.91551Z" fill="white"/>
<defs>
<linearGradient id="paint0_linear" x1="3.35896" y1="6.4005" x2="17.5485" y2="20.59" gradientUnits="userSpaceOnUse">
<stop stop-color="#DFE9F2"/>
<stop offset="0.391" stop-color="#D6E0E9"/>
<stop offset="1" stop-color="#BFC8D1"/>
</linearGradient>
<linearGradient id="paint1_linear" x1="7.69462" y1="5.36303" x2="14.4316" y2="19.6325" gradientUnits="userSpaceOnUse">
<stop stop-color="#2ECC75"/>
<stop offset="1" stop-color="#0B964A"/>
</linearGradient>
</defs>
</svg>
