<svg width="36" height="34" viewBox="0 0 36 34" fill="none" xmlns="http://www.w3.org/2000/svg">
<path fill-rule="evenodd" clip-rule="evenodd" d="M24.9231 3.69213V6.92312H11.0769V3.69213C11.0769 2.83528 11.4173 2.01352 12.0232 1.40763C12.6291 0.801748 13.4509 0.461365 14.3077 0.461365H21.6923C22.5492 0.461365 23.3709 0.801748 23.9768 1.40763C24.5827 2.01352 24.9231 2.83528 24.9231 3.69213ZM24.9231 7.84619H11.0769V32.7692H24.9231V7.84619ZM3.2308 7.84619H10.1539V32.7692H3.2308C1.4465 32.7692 3.8147e-05 31.3228 3.8147e-05 29.5385V11.077C3.8147e-05 9.29265 1.4465 7.84619 3.2308 7.84619ZM25.8461 7.84619V32.7692H32.7692C34.5535 32.7692 36 31.3228 36 29.5385V11.077C36 9.29265 34.5535 7.84619 32.7692 7.84619H25.8461Z" fill="#999999"/>
</svg>
